<svg enable-background="new 0 0 66 66" viewBox="0 0 66 66" xmlns="http://www.w3.org/2000/svg"><path d="m23.37 43.36c-2.01 0-3.65 1.64-3.65 3.65s1.64 3.65 3.65 3.65 3.65-1.64 3.65-3.65c-.01-2.01-1.64-3.65-3.65-3.65zm0 5.83c-1.2 0-2.18-.98-2.18-2.18s.98-2.18 2.18-2.18 2.18.98 2.18 2.18-.98 2.18-2.18 2.18z"/><path d="m16.03 34.3c-1.9 0-3.44 1.54-3.44 3.44s1.54 3.44 3.44 3.44 3.44-1.55 3.44-3.44-1.54-3.44-3.44-3.44zm0 5.43c-1.09 0-1.98-.89-1.98-1.98s.89-1.98 1.98-1.98 1.98.89 1.98 1.98-.89 1.98-1.98 1.98z"/><path d="m30.09 40.42c1.9 0 3.44-1.54 3.44-3.44s-1.54-3.44-3.44-3.44-3.44 1.55-3.44 3.44c-.01 1.89 1.54 3.44 3.44 3.44zm0-5.43c1.09 0 1.98.89 1.98 1.98s-.89 1.98-1.98 1.98-1.98-.89-1.98-1.98.89-1.98 1.98-1.98z"/><path d="m64.58 54.43h-4.17v-21.68c0-1.9-1.55-3.45-3.45-3.45h-47.68c-1.9 0-3.45 1.55-3.45 3.45v21.68h-4.17c-.4 0-.73.33-.73.73v1.83c0 3.27 2.66 5.93 5.93 5.93h52.53c3.27 0 5.93-2.66 5.93-5.93v-1.83c-.01-.4-.33-.73-.74-.73zm-5.64-21.68v21.68h-16.56v-9.98-5.74-5.96c0-.74-.24-1.42-.64-1.99h15.22c1.09.01 1.98.9 1.98 1.99zm-18.02 11.01c-1.1-.12-1.95-1.04-1.95-2.17s.86-2.06 1.95-2.18zm-33.63 3.56c2.18-.04 3.94-1.82 3.94-4.01s-1.76-3.97-3.94-4.01v-6.55c0-1.09.89-1.99 1.99-1.99h29.65c1.09 0 1.99.89 1.99 1.99v5.21c-1.9.12-3.42 1.7-3.42 3.63s1.52 3.5 3.42 3.62v9.22h-4.21c-.36-2.31-2.34-4.09-4.75-4.09s-4.39 1.78-4.75 4.09h-19.92zm.27-1.48v-5.05c1.25.17 2.21 1.24 2.21 2.53s-.97 2.36-2.21 2.52zm27.68 8.59h-6.56c.34-1.5 1.68-2.63 3.28-2.63s2.94 1.13 3.28 2.63zm28.61 2.56c0 2.46-2 4.47-4.47 4.47h-52.53c-2.46 0-4.47-2-4.47-4.47v-1.09h61.46v1.09z"/><path d="m4.6 12.97 15.14 3.37c.26.06.51.08.77.08 1.58 0 3.01-1.08 3.41-2.67l5.42 1.21c.39.09.64.48.55.87l-.41 1.85c-.5 2.27.93 4.52 3.19 5.03l13.94 3.11c.94.21 1.87.31 2.8.31 5.37 0 10.25-3.4 12-8.7.16-.49.11-1.02-.15-1.47-.25-.45-.69-.77-1.19-.88l-35.43-7.9-17.86-3.99c-2.69-.6-5.38 1.1-5.98 3.8-.59 2.7 1.11 5.38 3.8 5.98zm55.39 3.71c.03.05.07.16.03.29-1.81 5.49-7.43 8.68-13.09 7.42l-13.94-3.11c-1.48-.33-2.41-1.8-2.08-3.28l.41-1.85c.26-1.18-.48-2.35-1.66-2.62l-5.41-1.21.79-3.56 34.71 7.74c.14.03.21.13.24.18zm-57.75-9.37c.36-1.65 1.83-2.77 3.45-2.77.25 0 .51.03.77.08l17.15 3.82-1.09 4.9c-.25 1.11-1.35 1.81-2.46 1.56l-15.14-3.36c-1.9-.43-3.11-2.32-2.68-4.23z"/></svg>