<svg xmlns="http://www.w3.org/2000/svg" xmlns:xlink="http://www.w3.org/1999/xlink" version="1.1" x="0px" y="0px" viewBox="0 0 66 66" style="enable-background:new 0 0 66 66;" xml:space="preserve"><path d="M23.37,43.36c-2.01,0-3.65,1.64-3.65,3.65c0,2.01,1.64,3.65,3.65,3.65s3.65-1.64,3.65-3.65  C27.01,45,25.38,43.36,23.37,43.36z M23.37,49.19c-1.2,0-2.18-0.98-2.18-2.18c0-1.2,0.98-2.18,2.18-2.18c1.2,0,2.18,0.98,2.18,2.18  C25.55,48.21,24.57,49.19,23.37,49.19z"></path><path d="M16.03,34.3c-1.9,0-3.44,1.54-3.44,3.44c0,1.9,1.54,3.44,3.44,3.44c1.9,0,3.44-1.55,3.44-3.44  C19.47,35.85,17.93,34.3,16.03,34.3z M16.03,39.73c-1.09,0-1.98-0.89-1.98-1.98c0-1.09,0.89-1.98,1.98-1.98  c1.09,0,1.98,0.89,1.98,1.98C18.01,38.84,17.12,39.73,16.03,39.73z"></path><path d="M30.09,40.42c1.9,0,3.44-1.54,3.44-3.44c0-1.9-1.54-3.44-3.44-3.44c-1.9,0-3.44,1.55-3.44,3.44  C26.64,38.87,28.19,40.42,30.09,40.42z M30.09,34.99c1.09,0,1.98,0.89,1.98,1.98s-0.89,1.98-1.98,1.98c-1.09,0-1.98-0.89-1.98-1.98  S29,34.99,30.09,34.99z"></path><path d="M64.58,54.43h-4.17V32.75c0-1.9-1.55-3.45-3.45-3.45H9.28c-1.9,0-3.45,1.55-3.45,3.45v21.68H1.66  c-0.4,0-0.73,0.33-0.73,0.73v1.83c0,3.27,2.66,5.93,5.93,5.93h52.53c3.27,0,5.93-2.66,5.93-5.93v-1.83  C65.31,54.76,64.99,54.43,64.58,54.43z M58.94,32.75v21.68H42.38v-9.98v-5.74v-5.96c0-0.74-0.24-1.42-0.64-1.99h15.22  C58.05,30.77,58.94,31.66,58.94,32.75z M40.92,43.76c-1.1-0.12-1.95-1.04-1.95-2.17c0-1.13,0.86-2.06,1.95-2.18V43.76z M7.29,47.32  c2.18-0.04,3.94-1.82,3.94-4.01c0-2.19-1.76-3.97-3.94-4.01v-6.55c0-1.09,0.89-1.99,1.99-1.99h29.65c1.09,0,1.99,0.89,1.99,1.99  v5.21c-1.9,0.12-3.42,1.7-3.42,3.63c0,1.93,1.52,3.5,3.42,3.62v9.22h-4.21c-0.36-2.31-2.34-4.09-4.75-4.09  c-2.41,0-4.39,1.78-4.75,4.09H7.29V47.32z M7.56,45.84v-5.05c1.25,0.17,2.21,1.24,2.21,2.53C9.77,44.61,8.8,45.68,7.56,45.84z   M35.24,54.43h-6.56c0.34-1.5,1.68-2.63,3.28-2.63S34.9,52.93,35.24,54.43z M63.85,56.99c0,2.46-2,4.47-4.47,4.47H6.85  c-2.46,0-4.47-2-4.47-4.47V55.9h61.46V56.99z"></path><path d="M4.6,12.97l15.14,3.37c0.26,0.06,0.51,0.08,0.77,0.08c1.58,0,3.01-1.08,3.41-2.67l5.42,1.21c0.39,0.09,0.64,0.48,0.55,0.87  l-0.41,1.85c-0.5,2.27,0.93,4.52,3.19,5.03l13.94,3.11c0.94,0.21,1.87,0.31,2.8,0.31c5.37,0,10.25-3.4,12-8.7  c0.16-0.49,0.11-1.02-0.15-1.47c-0.25-0.45-0.69-0.77-1.19-0.88l-35.43-7.9c0,0,0,0,0,0L6.78,3.19c-2.69-0.6-5.38,1.1-5.98,3.8  C0.21,9.69,1.91,12.37,4.6,12.97z M59.99,16.68c0.03,0.05,0.07,0.16,0.03,0.29c-1.81,5.49-7.43,8.68-13.09,7.42l-13.94-3.11  c-1.48-0.33-2.41-1.8-2.08-3.28l0.41-1.85c0.26-1.18-0.48-2.35-1.66-2.62l-5.41-1.21l0.79-3.56l34.71,7.74  C59.89,16.53,59.96,16.63,59.99,16.68z M2.24,7.31C2.6,5.66,4.07,4.54,5.69,4.54c0.25,0,0.51,0.03,0.77,0.08l17.15,3.82l-1.09,4.9  c-0.25,1.11-1.35,1.81-2.46,1.56L4.92,11.54C3.02,11.11,1.81,9.22,2.24,7.31z"></path></svg>