<svg xmlns="http://www.w3.org/2000/svg" xmlns:xlink="http://www.w3.org/1999/xlink" version="1.1" x="0px" y="0px" viewBox="0 0 512 512" style="enable-background:new 0 0 512 512;" xml:space="preserve"><g><path d="M478.4,241.1c19-9.5,32.1-29.1,32.1-51.8v-34.4c0-31.9-26-57.9-57.9-57.9H346c-15.1-36.2-50.9-61.7-92.5-61.7   s-77.4,25.5-92.5,61.7H59.4c-31.9,0-57.9,26-57.9,57.9v34.4c0,26.3,17.7,48.6,41.9,55.6v44.4v39.5c-24.1,7-41.9,29.2-41.9,55.6   v34.4c0,31.9,26,57.9,57.9,57.9h393.2c31.9,0,57.9-26,57.9-57.9v-34.4c0-22.6-13.1-42.2-32.1-51.7v-43.3V241.1z M446.4,333   c-103.3,11-217.3,23.8-289.7,44.8c-14.5,4.2-30.4,1.2-42.4-8.1l-38.9-30.1v-34.2h371V333z M75.4,247.2h371v26.1h-371V247.2z    M253.6,67.4c23.3,0,43.9,11.8,56.2,29.7H197.4C209.7,79.2,230.3,67.4,253.6,67.4z M33.6,189.3v-34.4c0-14.3,11.6-25.9,25.9-25.9   h46.1v18c0,8.8,7.2,16,16,16s16-7.2,16-16v-18h315.1c14.3,0,25.9,11.6,25.9,25.9v34.4c0,14.3-11.6,25.9-25.9,25.9H59.4   C45.2,215.2,33.6,203.6,33.6,189.3z M478.4,418.8c0,14.3-11.6,25.9-25.9,25.9h-46.1v-18c0-8.8-7.2-16-16-16s-16,7.2-16,16v18H59.4   c-14.3,0-25.9-11.6-25.9-25.9v-34.4c0-10.9,6.8-20.3,16.4-24.1L94.7,395c14.1,10.9,31.4,16.7,48.9,16.7c7.4,0,14.8-1,22.1-3.1   c73-21.2,192.7-34,298.4-45.2c0.9-0.1,1.8-0.3,2.7-0.5c7,4.6,11.6,12.6,11.6,21.6V418.8z"></path></g></svg>