<?xml version="1.0" encoding="UTF-8"?>
<svg width="700pt" height="700pt" version="1.1" viewBox="0 0 700 700" xmlns="http://www.w3.org/2000/svg">
 <path d="m654.06 329.63c25.977-12.988 43.887-39.785 43.887-70.82v-47.031c0-43.613-35.547-79.16-79.16-79.16h-145.74c-20.645-49.492-69.59-84.355-126.46-84.355s-105.82 34.863-126.46 84.355h-138.91c-43.613 0-79.16 35.547-79.16 79.16v47.031c0 35.957 24.199 66.445 57.285 76.016v114.71c-32.949 9.5703-57.285 39.922-57.285 76.016v47.031c0 43.613 35.547 79.16 79.16 79.16h537.58c43.613 0 79.16-35.547 79.16-79.16v-47.031c0-30.898-17.91-57.695-43.887-70.684zm-43.75 125.64c-141.23 15.039-297.09 32.539-396.07 61.25-19.824 5.7422-41.562 1.6406-57.969-11.074l-53.184-41.152v-46.758h507.23zm-507.23-117.3h507.23v35.684h-507.23zm243.63-245.82c31.855 0 60.02 16.133 76.836 40.605h-153.67c16.816-24.473 44.98-40.605 76.836-40.605zm-300.78 166.66v-47.031c0-19.551 15.859-35.41 35.41-35.41h63.027v24.609c0 12.031 9.8438 21.875 21.875 21.875s21.875-9.8438 21.875-21.875v-24.609h430.8c19.551 0 35.41 15.859 35.41 35.41v47.031c0 19.551-15.859 35.41-35.41 35.41h-537.71c-19.414 0-35.273-15.859-35.273-35.41zm608.12 313.77c0 19.551-15.859 35.41-35.41 35.41h-63.027v-24.609c0-12.031-9.8438-21.875-21.875-21.875s-21.875 9.8438-21.875 21.875v24.609h-430.66c-19.551 0-35.41-15.859-35.41-35.41v-47.031c0-14.902 9.2969-27.754 22.422-32.949l61.25 47.441c19.277 14.902 42.93 22.832 66.855 22.832 10.117 0 20.234-1.3672 30.215-4.2383 99.805-28.984 263.46-46.484 407.97-61.797 1.2305-0.13672 2.4609-0.41016 3.6914-0.68359 9.5703 6.2891 15.859 17.227 15.859 29.531z"/>
</svg>
