<svg xmlns="http://www.w3.org/2000/svg" viewBox="0 0 100 100" x="0px" y="0px"><path d="M63.12842,56.501a6.07751,6.07751,0,0,0,.15332-2.11719c-.01807-.84863-.042-3.77344-.07276-7.48047-.05273-6.39551-.12548-15.1543-.21679-19.56152-.1377-6.60547-6.59375-13.28711-7.71387-14.39746V9.33649c.051.02655.07684.04339.07715.04339a.50134.50134,0,0,0,.32764.12207.50711.50711,0,0,0,.19921-.041.50126.50126,0,0,0,.3003-.44141c.00439-.11133.09668-2.74707-.00049-4.4873l-.01123-.23145C56.07129,2.22656,55.54346,1.5,50.01514,1.5c-5.55664,0-6.48535.71973-6.61377,3.03223-.09717,1.74023-.00489,4.376-.00049,4.4873a.49788.49788,0,0,0,.2583.417.50642.50642,0,0,0,.49316-.00293,1.79778,1.79778,0,0,1,.16553-.07519v3.88281c-1.26709,1.05664-8.11279,7.10449-8.11279,14.49707V52.31836a14.66964,14.66964,0,0,0,.60547,5.22852,23.5375,23.5375,0,0,0,1.186,2.65527c.14063.2832.272.54883.38135.78027.40918.86426,1.19678,2.44824,1.61133,3.17285a3.2264,3.2264,0,0,1-.04932,2.23243c-.17627.67089-.3706,1.72949-.52685,2.58007-.061.33106-.11426.62207-.15577.83008a4.19662,4.19662,0,0,1-.39111,1.0459c-.13769.291-.30322.64258-.50049,1.13574a12.27542,12.27542,0,0,0-.6167,2.69531c-.04687.31934-.083.582-.126.73926a.97829.97829,0,0,1-.12647.29883A5.14616,5.14616,0,0,0,37,76.94336a17.52378,17.52378,0,0,0-.50342,2.96484c-.04883.43653-.08984.80957-.13672,1.044a2.41649,2.41649,0,0,1-.16113.46484,7.18785,7.18785,0,0,0-.52441,3.207,43.95219,43.95219,0,0,0,1.61084,9.4502,5.2575,5.2575,0,0,0,1.551,2.79993l.00232.00207a5.62869,5.62869,0,0,0,3.75824.948,5.556,5.556,0,0,0,3.80078-1.21387c.04492-.03418.08252-.06543.11572-.08984H48.311c.34912.84863,1.39062,1.97949,3.6538,1.97949a3.53075,3.53075,0,0,0,3.3628-1.6416H58.7832a3.08468,3.08468,0,0,0,2.25879-.92578c1.90918-1.91114,1.90479-6.29883,1.90186-8.9209v-.26367a12.717,12.717,0,0,0-1.7334-6.43653l-.21-.40625c-.68994-1.33691-1.18848-2.30175-1.75977-3.59668a3.14363,3.14363,0,0,1-.0957-2.376c.04492-.18262.09033-.36817.12842-.5586.0874-.43554.15234-.90625.21582-1.37109a13.64149,13.64149,0,0,1,.29736-1.68359,2.38137,2.38137,0,0,1,.3916-.79883,3.751,3.751,0,0,0,.51807-1.01172,18.39137,18.39137,0,0,0,.65088-3.24219,2.3344,2.3344,0,0,1,.24951-.90039,5.64383,5.64383,0,0,0,.25928-.63867l.03271-.09863a9.34092,9.34092,0,0,0,.57178-2.74317,3.54366,3.54366,0,0,1,.22168-1.29785c.05615-.16406.12158-.35156.19531-.61719a3.06331,3.06331,0,0,0,.1582-1.16015c-.00537-.16407-.0122-.37793.00391-.73731A1.8482,1.8482,0,0,1,63.12842,56.501ZM37.20508,30.08392c1.53912-.11828,6.87378-.4931,12.81006-.4931,5.87365,0,10.609.36676,12.024.4892.06989,4.71692.12647,11.5711.16986,16.83111.01587,1.91437.03,3.61316.04242,4.93372-1.4801.07025-6.13733.26257-12.77044.26257-6.61676,0-10.91584-.19159-12.27588-.26221ZM44.38037,8.27637c-.00629-.26282-.01239-.58661-.01678-.9372a20.44647,20.44647,0,0,1,5.65155-.68585,16.48351,16.48351,0,0,1,5.2052.66412c-.00409.339-.00983.65339-.01575.913a16.63274,16.63274,0,0,0-5.18945-.59766A19.14135,19.14135,0,0,0,44.38037,8.27637ZM50.01514,2.5c5.06836,0,5.09424.541,5.15674,1.84863l.0122.23828c.028.50653.03876,1.09961.04083,1.6839a18.42476,18.42476,0,0,0-5.20977-.61749,21.95285,21.95285,0,0,0-5.65668.64887c.00177-.59455.01251-1.19983.041-1.71528C44.47949,3.1543,44.51562,2.5,50.01514,2.5ZM45.12891,13.87012a.501.501,0,0,0,.189-.3916V11.04688h2.832a.5.5,0,0,0,0-1h-2.832V9.05859a21.2003,21.2003,0,0,1,4.69727-.42578,19.29033,19.29033,0,0,1,4.26318.372v1.04212H50.50391a.5.5,0,0,0,0,1h3.77441v2.10839a.50006.50006,0,0,0,.1543.36133c.07422.07129,7.4209,7.1836,7.55957,13.84668.01068.51306.02112,1.09033.03131,1.71118-1.56049-.13214-6.2478-.48364-12.00836-.48364-5.87,0-11.15729.364-12.81006.49011V27.73828C37.20508,20.252,45.04932,13.93262,45.12891,13.87012ZM39.77106,61.56238a67.28122,67.28122,0,0,0,10.041,5.43371c3.87836,1.7237,7.68067,3.08649,8.91254,3.51764-.08911.43164-.16248.89075-.226,1.35248-.061.44531-.12208.89453-.20557,1.31152-.03516.17676-.07764.34668-.11914.51563l-.01917.07953c-1.89538-.78-5.20819-2.42352-7.932-3.7768l-.519-.25781c-.80078-.39844-1.68115-.81933-2.57031-1.24512a44.98971,44.98971,0,0,1-5.98785-3.1723,2.88616,2.88616,0,0,0-.288-1.66168C40.60687,63.22083,40.16858,62.366,39.77106,61.56238Zm6.64056,33.95813a1.02142,1.02142,0,0,0-.63037.30273,4.58491,4.58491,0,0,1-3.18457,1.001,7.61115,7.61115,0,0,1-2.17523-.23743,7.61775,7.61775,0,0,0,1.62787-2.08191c.84375-1.35937,1.71582-2.76562,3.20312-2.76562,1.39307,0,1.9668,1.4414,2.57129,3.32617.05029.15668.09943.30621.14874.45508Zm13.92285-.29395a2.09263,2.09263,0,0,1-1.55127.63184H55.80109q.26073-.55518.54364-1.17578a22.62785,22.62785,0,0,1,2.02881-3.88282c.51617-.57617,2.31335-.78015,3.50012-.79711C61.74469,92.02216,61.3783,94.18085,60.33447,95.22656Zm1.60938-8.47851v.26465c.00061.566.001,1.25244-.02216,1.98889-1.03888.00665-3.40332.13781-4.29327,1.1322a21.36669,21.36669,0,0,0-2.19287,4.13379c-.31494.68847-.61475,1.3457-.876,1.86719a.47229.47229,0,0,0-.0163.06c-.00329.00916-.01318.01355-.01593.023-.0039.0127-.40234,1.28223-2.5625,1.28223-2.45605,0-2.77929-1.50488-2.791-1.56348a.46933.46933,0,0,0-.01972-.05468.45724.45724,0,0,0-.0086-.04688c-.12744-.31836-.24512-.68652-.36963-1.07519-.54443-1.69629-1.29-4.02051-3.52344-4.02051-2.04346,0-3.15771,1.7959-4.05273,3.23828-.59955.96576-1.16944,1.87286-1.833,2.01495a4.48558,4.48558,0,0,1-1.11676-2.18A41.65494,41.65494,0,0,1,36.67432,84.624a6.29826,6.29826,0,0,1,.4317-2.78332c2.21832,1.57226,5.52624,4.17059,6.40912,5.54016a.50027.50027,0,0,0,.4209.22949.493.493,0,0,0,.2705-.08008.49957.49957,0,0,0,.14942-.69043c-1.08063-1.67669-4.88678-4.57049-6.96479-6.02191.03229-.22778.0644-.48767.09906-.7984a16.84746,16.84746,0,0,1,.46582-2.78125,4.4778,4.4778,0,0,1,.38453-.98517c.22229.12525.45758.25708.71313.40021,3.84717,2.15332,11.00879,6.16113,13.6626,10.709a.49956.49956,0,0,0,.43213.248.49123.49123,0,0,0,.25146-.06836.49936.49936,0,0,0,.17969-.68359c-2.79053-4.78418-10.10693-8.87793-14.0376-11.07715-.3219-.18024-.60834-.34119-.87585-.49286.02313-.13879.04669-.29443.07214-.46905a11.48666,11.48666,0,0,1,.55615-2.46875c.1875-.46875.34522-.80274.47608-1.08008.08661-.184.16076-.34992.23059-.51947a65.97426,65.97426,0,0,0,9.78747,5.72259,72.81094,72.81094,0,0,0,10.57685,4.38214A11.59248,11.59248,0,0,1,61.94385,86.74805Zm-2.20661-7.11249a85.01358,85.01358,0,0,1-9.495-4.05255c-5.05646-2.5744-8.30432-4.49927-9.9477-5.88513.031-.16462.0644-.34516.102-.54944.145-.79.34375-1.87207.51026-2.50684.019-.072.03778-.15021.05652-.22735a57.40734,57.40734,0,0,0,5.7384,2.98126c.88477.42285,1.76025.84179,2.55713,1.23828l.519.25781c2.97962,1.48,6.313,3.13379,8.19751,3.88788a3.85086,3.85086,0,0,0,.35034,1.93341C58.7984,77.78314,59.22412,78.63611,59.73724,79.63556Zm.01081-11.44318a2.77254,2.77254,0,0,1-.39844.76758,4.07206,4.07206,0,0,0-.34235.59308c-1.26867-.44489-4.99371-1.7843-8.789-3.471-4.821-2.142-9.49066-4.80957-11.42163-6.51935a21.19042,21.19042,0,0,1-1.03735-2.33221,12.88929,12.88929,0,0,1-.5484-4.38361c1.438.07367,5.72973.26056,12.27008.26056,6.584,0,11.239-.18957,12.78033-.26221.00757.72254.01447,1.27.02045,1.56006a5.24028,5.24028,0,0,1-.10742,1.79785,2.80108,2.80108,0,0,0-.13379.8252c-.01807.39746-.01026.63379-.0044.81445a2.155,2.155,0,0,1-.12256.86035c-.01886.068-.03576.12012-.05346.17811a14.89606,14.89606,0,0,1-7.30982-4.392.50018.50018,0,0,0-.77636.63086,15.7087,15.7087,0,0,0,7.79589,4.71869,5.91669,5.91669,0,0,0-.10839,1.00592,8.388,8.388,0,0,1-.521,2.46679l-.0332.09961a4.62118,4.62118,0,0,1-.21778.53321c-.01519.03283-.02978.06683-.04474.09979a21.90188,21.90188,0,0,1-15.5202-9.091.49974.49974,0,1,0-.90332.42774c.53986,1.1391,6.31714,8.70123,16.15247,9.63849-.00653.04742-.01483.08386-.02063.13592A17.54794,17.54794,0,0,1,59.74805,68.19238Z"></path><path d="M40.42334,27.2002a.49972.49972,0,0,0,.5-.5c0-1.47852,1.28369-5.01563,4.03955-7.91309a.5001.5001,0,0,0-.72461-.68945c-2.97607,3.1289-4.31494,6.91406-4.31494,8.60254A.49972.49972,0,0,0,40.42334,27.2002Z"></path><path d="M46.60449,12.71289H52.979a.5.5,0,0,0,0-1H46.60449a.5.5,0,0,0,0,1Z"></path></svg>