<svg xmlns="http://www.w3.org/2000/svg" viewBox="0 0 64 64" x="0px" y="0px"><g><rect x="24" y="46" width="2" height="2"></rect><path d="M12,54a6,6,0,0,0,1.536-11.793,5.705,5.705,0,0,1,2.019-2.375l-1.11-1.664a7.714,7.714,0,0,0-2.994,3.86A6,6,0,0,0,12,54Zm-.971-9.867c-.009.158-.029.313-.029.472v.718a3.789,3.789,0,0,0-1.707.97l1.414,1.414a1.831,1.831,0,0,1,2.586,0l1.414-1.414A3.789,3.789,0,0,0,13,45.323v-.718c0-.153.016-.3.028-.454a3.994,3.994,0,1,1-2-.018Z"></path><path d="M39.707,35.879l-1.414-1.414a1.831,1.831,0,0,1-2.586,0l-1.414,1.414a3.834,3.834,0,0,0,5.414,0Z"></path><path d="M61.992,20.958a1.012,1.012,0,0,0-.067-.332l-.006-.019h0L56,6.8V3a1,1,0,0,0-1-1H30a1,1,0,0,0-1,1V6.828L24.059,20.664a.96.96,0,0,0-.052.3c0,.012-.007.021-.007.033V34H9V27.618L14.447,24.9l-.894-1.79-6,3A1,1,0,0,0,7,27v7H3a1,1,0,0,0-1,1V61a1,1,0,0,0,1,1H61a.991.991,0,0,0,.352-.071.925.925,0,0,0,.1-.049,1.08,1.08,0,0,0,.2-.135c.03-.027.058-.052.085-.081a1.02,1.02,0,0,0,.142-.212.876.876,0,0,0,.047-.085c0-.009.011-.017.014-.026A1,1,0,0,0,62,61.015L62,61V21C62,20.985,61.992,20.973,61.992,20.958ZM20,60H4V36H20ZM59.483,20H50.517L55,9.539ZM31,4H54V6H31ZM26,22h3.586L26,25.586Zm.586,14L25,37.586,23.414,36Zm-3.5,24L25,57.6,26.919,60ZM28,58.148l-2-2.5V50H24v5.648l-2,2.5V37.414l2,2V44h2V39.414l2-2ZM48,60H30V55.5l.746-.56A9.766,9.766,0,0,1,36.567,53a11.627,11.627,0,0,0,8.275-3.428L48,46.414Zm0-16.414-4.572,4.572A9.64,9.64,0,0,1,36.567,51,11.768,11.768,0,0,0,30,53.029V43.157a19.505,19.505,0,0,0,1.077,1.949l.161.251A3,3,0,0,0,33.942,47a3.044,3.044,0,0,0,2.09-.815,1.308,1.308,0,0,1,1.739,0A3.039,3.039,0,0,0,39.86,47a3,3,0,0,0,2.7-1.643l.162-.251A19.371,19.371,0,0,0,45.67,32.433,3.994,3.994,0,0,0,41.635,29,4.16,4.16,0,0,0,38.4,30.522l-.061.077A9.031,9.031,0,0,1,41.6,25.8l-1.2-1.6a11.046,11.046,0,0,0-4.19,6.773.96.96,0,0,1-.064-.079A4.126,4.126,0,0,0,32.652,29h-.484a3.991,3.991,0,0,0-4.035,3.433c-.062.521-.1,1.044-.116,1.567H26V28.414L32.414,22H48ZM30.119,32.668A1.993,1.993,0,0,1,32.168,31h.484a2.109,2.109,0,0,1,1.8.951A3.13,3.13,0,0,0,36.929,33.4a3.175,3.175,0,0,0,2.665-1.162l.372-.466A2.145,2.145,0,0,1,41.635,31a2,2,0,0,1,2.049,1.669,17.362,17.362,0,0,1-2.645,11.359l-.194.3a1.145,1.145,0,0,0-.068.124,1.1,1.1,0,0,1-1.639.268,3.32,3.32,0,0,0-4.473,0,1.1,1.1,0,0,1-1.642-.27,1.033,1.033,0,0,0-.066-.123l-.194-.3A17.368,17.368,0,0,1,30.119,32.668ZM48.341,20H26.419L30.705,8H53.483Zm3.421,40L55,57.3,58.238,60ZM60,58.864l-4-3.333V39H54V55.531l-4,3.333V22h4V37h2V22h4Z"></path><path d="M39,10a4,4,0,1,0,4,4A4,4,0,0,0,39,10Zm0,6a2,2,0,1,1,2-2A2,2,0,0,1,39,16Z"></path></g></svg>