<svg xmlns="http://www.w3.org/2000/svg" xmlns:xlink="http://www.w3.org/1999/xlink" version="1.1" x="0px" y="0px" viewBox="0 0 67 67" enable-background="new 0 0 67 67" xml:space="preserve"><g><path d="M64.7032318,1.7561051c-0.3740234-0.1547852-0.8027382-0.0693359-1.0898476,0.2167969L47.1829643,18.4036274   c-1.424427,0.0470695-3.2079468,0.9732819-4.0910645,0.7318726c-1.0932579-0.2959862-2.2875557-2.9002151-4.3476563-3.1674805   c-2.0647087-0.2739744-3.8780861,1.9475079-5.0136719,1.9550781c-0.1562309-0.0539169-0.2134094,0.1790829-1.8964844-0.8256836   c-2.6004696-1.5577326-3.7813778-1.5873728-6.0390625,1.0712891c-1.2394867,1.4614658-1.3031521,1.5410805-3.4501953,1.1743164   c-3.0137882-0.5144272-4.3296986-0.0871372-5.0849609,3.621582c-0.3502941,1.7259064-0.3701611,1.7829914-2.0019522,2.7944336   c-3.1192465,1.9326057-3.4181252,3.5139885-0.8115234,6.2631817c0.2998047,0.3166504,0.5975342,0.6380005,0.8282471,0.944397   c-4.8086548,1.392395-8.3380127,5.8306274-8.3380127,11.0863647c0,3.8643799,1.9151001,7.4008179,5.0615234,9.534668   L1.9727602,63.6130371c-0.2861328,0.2861328-0.3720703,0.7158203-0.2167969,1.0898438   c0.1542969,0.3735352,0.5195313,0.6171875,0.9238281,0.6171875c20.7533798,0,38.8642349,0,61.6406288,0   c0.5527344,0,1-0.4477539,1-1c0-19.961277,0-38.18573,0-61.6401367   C65.3204193,2.2756364,65.0772552,1.9108902,64.7032318,1.7561051z M63.3204155,12.7336445L44.3696098,31.684267   c-0.6335983-1.7817955-1.745224-3.4063072-3.0452881-4.5932007L63.3204155,5.0939956V12.7336445z M37.6999321,38.3538818   l-1.7801514-1.7803955h3.5605469L37.6999321,38.3538818z M36.2858696,39.7678833l-1.7799072,1.7799072V37.987854   L36.2858696,39.7678833z M39.9629936,36.0908203v-1.517334h-4.0437012l2.8591309-2.8593731l-1.4140625-1.4140625   l-2.8583984,2.8585796v-4.0426617h-2v4.0436382l-2.859375-2.8595562l-1.4140625,1.4140625l2.8591309,2.8593731h-4.0437012v2   h4.0432129l-2.8586426,2.8588867l1.4140625,1.4140625l2.859375-2.8595581v4.0436401h1.517334l-2.8007813,2.8007202   c-2.0822945-0.5009041-3.999548-1.7360153-5.3347168-3.5194702c-4.7042522-6.2747765-0.2227821-15.2797832,7.6181641-15.2797832   c2.0917969,0,4.0722656,0.6660156,5.7373047,1.9331055c1.7597656,1.3051147,2.9980469,3.180542,3.5244141,5.321104   L39.9629936,36.0908203z M24.2872124,42.5109863c0.1394043,0.1863403,0.2966309,0.3586426,0.4473877,0.5361328h-3.8765869   l2.3282471-2.3282471C23.4976616,41.3411865,23.8609428,41.9422607,24.2872124,42.5109863z M14.7081118,28.8723164   c0.1123648-0.8745728,2.6064234-1.655447,3.6425772-3.0488281c1.0137596-1.3653526,0.8047543-3.9871616,1.703125-4.5688477   c0.7214146-0.4728336,3.263073,0.692234,5.0439453,0.0722656c1.605751-0.561409,2.8451633-3.1234245,3.8798828-3.2871094   c0.9444809-0.1356888,2.90275,1.9085579,4.7666016,1.8833008c1.8311996-0.0124207,3.6707458-2.0993881,4.7421875-1.9716797   c1.0771599,0.1396313,2.2922249,2.6290684,4.0820313,3.1147461c0.6499023,0.1752319,1.3288574,0.1037598,1.9887695-0.0368042   l-4.8330078,4.8331299c-1.8500977-1.1988525-3.9819336-1.8305054-6.2182617-1.8305054   c-5.5167236,0-10.1445313,3.8339844-11.2657471,9.1049175c-1.211792-0.4188843-2.473999-0.6312866-3.7674561-0.6312866   c-0.3759766,0-0.7470703,0.0211182-1.1140137,0.0565186C16.6385555,31.0374298,14.6002026,29.6984425,14.7081118,28.8723164z    M8.9366274,44.0529785c0-6.7057304,6.7729826-11.3528519,13.0419912-8.8818359   c-0.0507107,1.1748428,0.1048565,2.4863434,0.5009766,3.7797852l-0.1767578-0.1767578l-2.8583984,2.8583984v-4.0429688h-2   v4.0439453l-2.859374-2.859375l-1.4140625,1.4140625l2.8588858,2.8588867h-4.0434561v2h4.0434561l-2.8588858,2.8588867   l1.4140625,1.4140625l2.859374-2.859375v4.0439453h2v-4.0429688l2.8583984,2.8583984l1.4140625-1.4140625l-2.8588867-2.8588867   h4.043457v-1.7999878c0.8956413,1.0066757,2.0692024,1.8935432,2.9609375,2.3951416   c-0.7631874,4.63834-4.7489758,7.9463501-9.3896484,7.9463501C13.2135286,53.588623,8.9366274,49.3440971,8.9366274,44.0529785z    M13.8067446,54.6071777c1.3365974,0.5911217,3.0707178,0.9814453,4.6660147,0.9814453   c0.6828575,0,1.4537544-0.0660858,2.199707-0.2074585l-7.9389639,7.9389038H5.093854L13.8067446,54.6071777z    M63.3204155,15.5617695v5.8613281L21.4229546,63.3200684h-5.8613272   C57.8688354,21.0135746,44.1512489,34.7307777,63.3204155,15.5617695z M63.3204155,63.3200684H24.2510796l39.0693359-39.0688477   V63.3200684z"></path><rect x="46.0997314" y="57.467041" width="3.3984375" height="2"></rect><rect x="43.0782471" y="51.9914551" width="3.3994141" height="2"></rect><rect x="54.4073486" y="37.7341309" width="3.3984375" height="2"></rect><rect x="56.1065674" y="45.4772949" width="3.3984375" height="2"></rect><rect x="48.553833" y="44.1555176" width="3.3994141" height="2"></rect><rect x="50.2530518" y="51.9914551" width="3.3994141" height="2"></rect><rect x="54.4073486" y="57.8444824" width="3.3984375" height="2"></rect></g></svg>