<svg xmlns="http://www.w3.org/2000/svg" xmlns:xlink="http://www.w3.org/1999/xlink" version="1.1" x="0px" y="0px" viewBox="0 0 100 100" enable-background="new 0 0 100 100" xml:space="preserve"><path fill="#000000" d="M65.6,83.2h-15V55.7c5.1-0.4,15.5-6.3,15.5-15.8s-3.9-23.6-3.9-23.7c-0.1-0.2-0.3-0.4-0.5-0.4H38.4  c-0.2,0-0.4,0.1-0.5,0.4c0,0.1-3.9,14.2-3.9,23.7s10.4,15.4,15.5,15.8v27.5h-15c-0.3,0-0.5,0.2-0.5,0.5s0.2,0.5,0.5,0.5h31.1  c0.3,0,0.5-0.2,0.5-0.5S65.9,83.2,65.6,83.2z M35.1,39.9c0-8.5,3.2-20.8,3.8-23.1h22.5c0.6,2.3,3.8,14.6,3.8,23.1  c0,9.2-10.4,14.8-15,14.8C45.5,54.7,35.1,49.1,35.1,39.9z"></path><path fill="#000000" d="M62.1,31.9c-0.1-0.2-0.3-0.4-0.5-0.4H39.1c-0.2,0-0.4,0.2-0.5,0.4c-0.1,0.3-1.5,6.5-0.5,10.3  c1.1,4.4,6.9,9.4,12,10.2h0.5h0.1c5-0.8,10.7-5.8,11.9-10.2C63.6,38.4,62.1,32.2,62.1,31.9z"></path><path fill="#000000" d="M39.9,27.9C39.9,27.9,40,27.9,39.9,27.9c0.3,0,0.5-0.2,0.6-0.4l0.6-3.1c0.1-0.3-0.1-0.5-0.4-0.6  c-0.3-0.1-0.5,0.1-0.6,0.4l-0.6,3.1C39.5,27.6,39.6,27.8,39.9,27.9z"></path></svg>