<svg xmlns="http://www.w3.org/2000/svg" xmlns:xlink="http://www.w3.org/1999/xlink" version="1.1" x="0px" y="0px" viewBox="0 0 100 100" enable-background="new 0 0 100 100" xml:space="preserve"><g><line fill="none" stroke="#000000" stroke-width="3" stroke-miterlimit="10" x1="49.647" y1="190.738" x2="49.647" y2="205.652"></line><path fill="none" stroke="#000000" stroke-miterlimit="10" d="M49.647,189.738"></path><g><path d="M61.063,208.652c0.781,0,1.417,0.636,1.417,1.417s-0.636,1.417-1.417,1.417H49.647H38.23    c-0.781,0-1.417-0.636-1.417-1.417s0.636-1.417,1.417-1.417h11.417H61.063 M61.063,205.652H49.647H38.23    c-2.439,0-4.417,1.977-4.417,4.417s1.977,4.417,4.417,4.417h11.417h11.417c2.439,0,4.417-1.977,4.417-4.417    S63.503,205.652,61.063,205.652L61.063,205.652z"></path></g><path fill="none" stroke="#000000" stroke-width="3" stroke-linejoin="round" stroke-miterlimit="10" d="M44.739,146.363   l-0.057,14.315c0,2.451-1.987,4.438-4.438,4.438s-4.438-1.987-4.438-4.438l0-14.315l-1.285,0l-5.75,10.876   c-1.521,3.092-2.375,6.571-2.375,10.249c0,12.841,10.409,23.25,23.25,23.25s23.25-10.409,23.25-23.25   c0-3.678-0.854-7.157-2.375-10.249l-5.75-10.876l-15.125,0H44.739z"></path><path fill="none" stroke="#000000" stroke-width="3" stroke-linejoin="round" stroke-miterlimit="10" d="M35.806,146.363   c-3.328,0-5.578-2.698-5.578-6.026s2.698-6.026,6.026-6.026c1.664,0,3.271,0.802,4.358,2.164c0-3.714,3.011-6.725,6.725-6.725   s6.686,2.302,6.686,6.016c0.972-0.903,2.275-1.455,3.706-1.455c2.332,0,4.322,1.466,5.099,3.527   c0.431-0.142,0.89-0.225,1.368-0.225c2.416,0,4.375,1.959,4.375,4.375c0,2.223-1.657,4.058-3.804,4.338"></path></g><g><line fill="none" stroke="#000000" stroke-width="3" stroke-miterlimit="10" x1="395.351" y1="88.831" x2="424.617" y2="88.831"></line><path fill="none" stroke="#000000" stroke-width="3" stroke-linejoin="round" stroke-miterlimit="10" d="M412.351,23.739v7.917   c0,2.163,1.754,3.917,3.917,3.917s3.917-1.754,3.917-3.917l0-7.917h5.169c0,0,4.685,16.003-2.116,28.006   c-6.8,12.002-4.849,23.525-4.849,23.525s1.694,5.281,5.453,10.722c2.248,3.801-0.933,6.849-2.304,7.361   c-0.085,0.032-0.173,0.062-0.262,0.091c-0.85,0.274-1.74,0.389-2.628,0.389h-6.894h-1.769h-1.769h-6.894   c-0.889,0-1.778-0.115-2.628-0.389c-0.089-0.029-0.177-0.059-0.262-0.091c-1.371-0.512-4.552-3.561-2.304-7.361   c3.759-5.441,5.453-10.722,5.453-10.722s1.952-11.522-4.849-23.525c-6.8-12.002-2.116-28.006-2.116-28.006h13.6h3.538H412.351z"></path><path fill="none" stroke="#000000" stroke-width="3" stroke-linejoin="round" stroke-miterlimit="10" d="M395.943,23.739   c-3.328,0-5.578-2.698-5.578-6.026s2.698-6.026,6.026-6.026c1.664,0,3.271,0.802,4.358,2.164c0-3.714,3.011-6.725,6.725-6.725   s6.686,2.302,6.686,6.016c0.972-0.903,2.275-1.455,3.706-1.455c2.332,0,4.322,1.466,5.098,3.527   c0.431-0.142,0.89-0.225,1.368-0.225c2.416,0,4.375,1.959,4.375,4.375c0,2.223-1.657,4.058-3.804,4.338"></path></g><g><g><g><path d="M67.214,94.859H34.146c-0.799,0-1.458-0.627-1.498-1.425l-3.229-64.932c-1.319-1.238-2.088-2.988-2.088-4.812     c0-2.376,1.302-4.564,3.325-5.724c0.332-3.325,3.146-5.931,6.557-5.931c0.751,0,1.49,0.128,2.187,0.374     c1.129-3.945,4.739-6.782,9.043-6.782c3.747,0,7.089,2.22,8.585,5.551c0.618-0.126,1.249-0.189,1.888-0.189     c4.222,0,7.865,2.78,9.027,6.743c2.758,0.776,4.726,3.345,4.726,6.376c0,1.179,0,2.466-0.69,3.624l-3.267,65.702     C68.672,94.232,68.013,94.859,67.214,94.859z M35.573,91.859h30.213l3.138-63.12h-5.327v10.257c0,3.153-2.565,5.718-5.718,5.718     s-5.718-2.565-5.718-5.718V28.739H32.435L35.573,91.859z M30.969,25.739h22.693c0.829,0,1.5,0.671,1.5,1.5v11.757     c0,1.499,1.219,2.718,2.718,2.718s2.718-1.219,2.718-2.718V27.239c0-0.829,0.671-1.5,1.5-1.5h7.475     c0.09-0.398,0.097-0.918,0.097-1.596c0-1.906-1.339-3.452-3.115-3.633c-0.667-0.068-1.209-0.571-1.326-1.232     c-0.539-3.065-3.194-5.29-6.313-5.29c-0.79,0-1.561,0.142-2.289,0.421c-0.397,0.153-0.84,0.129-1.221-0.065     c-0.379-0.194-0.658-0.54-0.767-0.952c-0.742-2.806-3.291-4.766-6.197-4.766c-3.44,0-6.229,2.66-6.401,6.078     c0.009,0.199-0.021,0.401-0.093,0.596c-0.219,0.587-0.779,0.976-1.405,0.976c-0.383,0-0.753-0.146-1.031-0.408     c-0.645-0.538-1.458-0.833-2.299-0.833c-1.979,0-3.589,1.61-3.589,3.589c0,0.07,0.002,0.139,0.006,0.208     c0.026,0.413-0.12,0.819-0.403,1.121c-0.179,0.191-0.402,0.329-0.647,0.406c-1.348,0.543-2.249,1.872-2.249,3.331     C30.331,24.439,30.556,25.147,30.969,25.739z"></path></g></g><line fill="none" stroke="#000000" stroke-width="3" stroke-linejoin="round" stroke-miterlimit="10" x1="33.921" y1="88.831" x2="67.439" y2="88.831"></line></g><g><path fill="none" stroke="#000000" stroke-width="3" stroke-linejoin="round" stroke-miterlimit="10" d="M534.915,149.365v4.313   c0,1.815-1.471,3.286-3.286,3.286c-1.815,0-3.286-1.471-3.286-3.286v-4.313h-4.751h-7.05v8.727c0,2.58-2.091,4.671-4.671,4.671   c-2.58,0-4.671-2.091-4.671-4.671l0-8.727h-5.044v60.529c0,2.144,1.738,3.883,3.883,3.883h17.554h17.554   c2.144,0,3.883-1.738,3.883-3.883v-60.529H534.915z"></path><path fill="none" stroke="#000000" stroke-width="3" stroke-linejoin="round" stroke-miterlimit="10" d="M502.156,149.365   c-2.814,0-5.096-2.282-5.096-5.096c0-2.814,2.282-5.096,5.096-5.096c0.226,0,0.46,0.078,0.678,0.106   c-0.074-0.361-0.113-0.734-0.113-1.117c0-3.06,2.481-5.541,5.541-5.541c2.938,0,5.342,2.287,5.53,5.178   c0.221-4.733,4.15-9.796,8.937-9.796c3.822,0,7.083,2.403,8.355,5.78l0,0.002c1.009-0.448,2.125-0.697,3.3-0.697   c4.495,0,8.139,3.644,8.139,8.139c0,0.656-0.078,1.293-0.223,1.903c1.622,0.853,2.728,2.554,2.728,4.514   c0,0.605-0.105,1.185-0.299,1.723"></path><line fill="none" stroke="#000000" stroke-width="3" stroke-linecap="round" stroke-linejoin="round" stroke-miterlimit="10" x1="524.395" y1="167.292" x2="524.395" y2="196.414"></line><line fill="none" stroke="#000000" stroke-width="3" stroke-linecap="round" stroke-linejoin="round" stroke-miterlimit="10" x1="514.395" y1="167.292" x2="514.395" y2="196.414"></line><line fill="none" stroke="#000000" stroke-width="3" stroke-linecap="round" stroke-linejoin="round" stroke-miterlimit="10" x1="534.395" y1="167.292" x2="534.395" y2="196.414"></line><line fill="none" stroke="#000000" stroke-width="3" stroke-linejoin="round" stroke-miterlimit="10" x1="502.156" y1="208.894" x2="545.029" y2="208.894"></line><polyline fill="none" stroke="#000000" stroke-width="3" stroke-linejoin="round" stroke-miterlimit="10" points="545.029,166.89    554.029,166.89 554.029,196.39 545.029,196.39  "></polyline><path fill="none" stroke="#000000" stroke-width="3" stroke-linejoin="round" stroke-miterlimit="10" d="M545.029,159.223h13.417   c1.887,0,3.417,1.53,3.417,3.417v37.667c0,1.887-1.53,3.417-3.417,3.417h-13.028"></path></g><g><path fill="none" stroke="#000000" stroke-width="3" stroke-linejoin="round" stroke-miterlimit="10" d="M755.35,264.259   c-3.328,0-5.578-2.698-5.578-6.026c0-3.328,2.698-6.026,6.026-6.026c1.664,0,3.271,0.802,4.358,2.164   c0-3.714,3.011-6.725,6.725-6.725s6.686,2.302,6.686,6.016c0.972-0.903,2.275-1.455,3.706-1.455c2.332,0,4.322,1.466,5.099,3.527   c0.431-0.142,0.89-0.225,1.368-0.225c2.416,0,4.375,1.959,4.375,4.375c0,2.223-1.657,4.058-3.804,4.338"></path><path fill="none" stroke="#000000" stroke-width="3" stroke-linejoin="round" stroke-miterlimit="10" d="M753.786,286.618   c-3.139-10.827,0.236-22.359,0.236-22.359h13.6h3.538h0.598v7.917c0,2.163,1.754,3.917,3.917,3.917   c2.163,0,3.917-1.754,3.917-3.917v-7.917h5.169c0,0,1.872,6.396,1.531,14.134c-0.095,2.149-0.36,4.402-0.884,6.65"></path><path fill="none" stroke="#000000" stroke-width="3" stroke-linejoin="round" stroke-miterlimit="10" d="M781.109,295.277   c-4.949,10.847-3.312,20.513-3.312,20.513s1.694,5.281,5.453,10.722c2.248,3.801-0.933,6.849-2.304,7.361   c-0.085,0.032-0.173,0.062-0.262,0.091c-0.85,0.274-1.74,0.389-2.628,0.389h-6.894h-1.769h-1.769h-6.894   c-0.889,0-1.778-0.115-2.628-0.389c-0.089-0.029-0.177-0.059-0.262-0.091c-1.371-0.512-4.552-3.561-2.304-7.361   c3.759-5.441,5.453-10.722,5.453-10.722s1.397-8.246-2.29-18.052"></path><polyline fill="none" stroke="#000000" stroke-width="3" stroke-linejoin="round" stroke-miterlimit="10" points="786.292,278.393    793.614,276.145 789.953,282.395 797.614,285.645 787.723,288.978  "></polyline><polyline fill="none" stroke="#000000" stroke-width="3" stroke-linejoin="round" stroke-miterlimit="10" points="751.461,292.154    741.739,295.395 749.772,298.395 746.6,305.27 759.714,300.83  "></polyline><path fill="none" stroke="#000000" stroke-width="3" stroke-linejoin="round" stroke-miterlimit="10" d="M758.753,297.718   c2.444,0.302,5.6,0.134,9.49-1.136c10.726-3.5,17.246-0.055,17.246-0.055l3.125-10.562c0,0-7.75-3.445-20.5,0.055   s-18.875-1.375-18.875-1.375l3.125,10.562C752.364,295.207,754.458,297.188,758.753,297.718"></path><line fill="none" stroke="#000000" stroke-width="3" stroke-linejoin="round" stroke-miterlimit="10" x1="784.025" y1="329.351" x2="754.758" y2="329.351"></line></g><g><path fill="none" stroke="#000000" stroke-width="3" stroke-linejoin="round" stroke-miterlimit="10" d="M649.727,590h10.272   c2.209,0,4-1.791,4-4v-46.885c0,0-0.167-7.167-8-10l-0.77-22.5h-5.502h0.323h-5.502l-0.77,22.5c-7.833,2.833-8,10-8,10V586   c0,2.209,1.791,4,4,4h10.272"></path><path fill="none" stroke="#000000" stroke-width="3" stroke-linejoin="round" stroke-miterlimit="10" d="M649.942,506.518h7.513   v-1.252c0-1.936-1.569-3.505-3.505-3.505h-4.062h-4.062c-1.936,0-3.505,1.569-3.505,3.505v1.252h7.513"></path><line fill="none" stroke="#000000" stroke-width="3" stroke-linejoin="round" stroke-miterlimit="10" x1="635.667" y1="545.448" x2="663.887" y2="545.448"></line><line fill="none" stroke="#000000" stroke-width="3" stroke-linejoin="round" stroke-miterlimit="10" x1="635.667" y1="576.198" x2="663.887" y2="576.198"></line><line fill="none" stroke="#000000" stroke-width="3" stroke-linejoin="round" stroke-miterlimit="10" x1="643.843" y1="523.948" x2="655.71" y2="523.948"></line><line fill="none" stroke="#000000" stroke-width="3" stroke-linejoin="round" stroke-miterlimit="10" x1="655.305" y1="512.107" x2="644.248" y2="512.107"></line><polyline fill="none" stroke="#000000" stroke-width="2" stroke-linejoin="round" stroke-miterlimit="10" points="649.866,568.115    654.976,564.115 654.976,556.865 649.777,552.198 644.577,556.865 644.577,564.115 649.688,568.115  "></polyline><line fill="none" stroke="#000000" stroke-width="2" stroke-linecap="round" stroke-linejoin="round" stroke-miterlimit="10" x1="649.777" y1="570.115" x2="649.777" y2="552.198"></line><polyline fill="none" stroke="#000000" stroke-width="2" stroke-linecap="round" stroke-linejoin="round" stroke-miterlimit="10" points="   644.917,557.656 649.777,560.323 654.375,556.948  "></polyline><polyline fill="none" stroke="#000000" stroke-width="2" stroke-linecap="round" stroke-linejoin="round" stroke-miterlimit="10" points="   644.917,561.404 649.777,564.071 654.375,560.696  "></polyline></g><g><path fill="none" stroke="#000000" stroke-width="3" stroke-linejoin="round" stroke-miterlimit="10" d="M811.562,589.798h-82.458   c-1.162,0-2.104-0.942-2.104-2.104v-34.708c0-1.162,0.942-2.104,2.104-2.104h82.458c1.162,0,2.104,0.942,2.104,2.104v34.708   C813.667,588.855,812.725,589.798,811.562,589.798z"></path><path fill="none" stroke="#000000" stroke-width="2.6459" stroke-linejoin="round" stroke-miterlimit="10" d="M784.273,563.089   h-27.879v-2.91c0-1.657,1.343-3,3-3h21.879c1.657,0,3,1.343,3,3V563.089z"></path><path fill="none" stroke="#000000" stroke-width="3" stroke-linejoin="round" stroke-miterlimit="10" d="M754.832,550.881v-14.085   c0,0-0.127-5.444-6.077-7.596l-0.585-17.091h-4.179h0.245h-4.179l-0.585,17.091c-5.95,2.152-6.077,7.596-6.077,7.596v14.085"></path><line fill="none" stroke="#000000" stroke-width="3" stroke-linejoin="round" stroke-miterlimit="10" x1="739.523" y1="525.275" x2="748.536" y2="525.275"></line><line fill="none" stroke="#000000" stroke-width="3" stroke-linejoin="round" stroke-miterlimit="10" x1="748.229" y1="516.281" x2="739.83" y2="516.281"></line><path fill="none" stroke="#000000" stroke-width="3" stroke-linejoin="round" stroke-miterlimit="10" d="M781.427,550.881v-14.085   c0,0-0.127-5.444-6.077-7.596l-0.585-17.091h-4.179h0.245h-4.179l-0.585,17.091c-5.95,2.152-6.077,7.596-6.077,7.596v14.085"></path><line fill="none" stroke="#000000" stroke-width="3" stroke-linejoin="round" stroke-miterlimit="10" x1="766.117" y1="525.275" x2="775.131" y2="525.275"></line><line fill="none" stroke="#000000" stroke-width="3" stroke-linejoin="round" stroke-miterlimit="10" x1="774.823" y1="516.281" x2="766.425" y2="516.281"></line><path fill="none" stroke="#000000" stroke-width="3" stroke-linejoin="round" stroke-miterlimit="10" d="M808.504,550.881v-14.085   c0,0-0.127-5.444-6.077-7.596l-0.585-17.091h-4.179h0.245h-4.179l-0.585,17.091c-5.95,2.152-6.077,7.596-6.077,7.596v14.085"></path><line fill="none" stroke="#000000" stroke-width="3" stroke-linejoin="round" stroke-miterlimit="10" x1="792.28" y1="525.275" x2="801.293" y2="525.275"></line><line fill="none" stroke="#000000" stroke-width="3" stroke-linejoin="round" stroke-miterlimit="10" x1="800.986" y1="516.281" x2="792.587" y2="516.281"></line><line fill="none" stroke="#000000" stroke-width="3" stroke-linecap="round" stroke-linejoin="round" stroke-miterlimit="10" x1="749.333" y1="511.756" x2="738.895" y2="511.756"></line><line fill="none" stroke="#000000" stroke-width="3" stroke-linecap="round" stroke-linejoin="round" stroke-miterlimit="10" x1="775.833" y1="511.756" x2="765.395" y2="511.756"></line><line fill="none" stroke="#000000" stroke-width="3" stroke-linecap="round" stroke-linejoin="round" stroke-miterlimit="10" x1="803.083" y1="511.756" x2="792.645" y2="511.756"></line><line fill="none" stroke="#000000" stroke-width="3" stroke-linejoin="round" stroke-miterlimit="10" x1="733.223" y1="540.923" x2="754.659" y2="540.923"></line><line fill="none" stroke="#000000" stroke-width="3" stroke-linejoin="round" stroke-miterlimit="10" x1="759.818" y1="540.923" x2="781.39" y2="540.923"></line><line fill="none" stroke="#000000" stroke-width="3" stroke-linejoin="round" stroke-miterlimit="10" x1="786.896" y1="540.923" x2="808.331" y2="540.923"></line><polyline fill="none" stroke="#000000" stroke-width="2" stroke-linejoin="round" stroke-miterlimit="10" points="770.576,583.256    775.686,579.256 775.686,572.006 770.487,567.339 765.288,572.006 765.288,579.256 770.398,583.256  "></polyline><line fill="none" stroke="#000000" stroke-width="2" stroke-linecap="round" stroke-linejoin="round" stroke-miterlimit="10" x1="770.487" y1="585.256" x2="770.487" y2="567.339"></line><polyline fill="none" stroke="#000000" stroke-width="2" stroke-linecap="round" stroke-linejoin="round" stroke-miterlimit="10" points="   765.627,572.798 770.487,575.464 775.085,572.089  "></polyline><polyline fill="none" stroke="#000000" stroke-width="2" stroke-linecap="round" stroke-linejoin="round" stroke-miterlimit="10" points="   765.627,576.546 770.487,579.212 775.085,575.837  "></polyline></g><g><path fill="none" stroke="#000000" stroke-width="2.9664" stroke-linecap="round" stroke-linejoin="round" stroke-miterlimit="10" d="   M41.598,509.447h8.005h-0.127h8.005h-0.985c-1.157,0-2.095,0.938-2.095,2.095l0,0.054c0,0.847,0.506,1.619,1.294,1.929   c6.569,2.588,11.218,8.99,11.218,16.477v50.538c0,2.474-0.696,4.927-2.147,6.931c-0.923,1.274-2.122,2.335-3.556,2.335   c-2.705,0-5.086-4.823-6.092-7.192c-0.33-0.776-1.087-1.282-1.931-1.282h-3.958h0.623h-3.958c-0.844,0-1.601,0.505-1.931,1.282   c-1.006,2.369-3.387,7.192-6.092,7.192c-1.434,0-2.633-0.992-3.556-2.181c-1.445-1.863-2.147-4.198-2.147-6.555v-51.067   c0-7.488,4.649-13.89,11.217-16.477c0.788-0.31,1.294-1.082,1.294-1.929c0-1.003,0-2.149,0-2.149"></path><polyline fill="none" stroke="#000000" stroke-width="2.9664" stroke-linejoin="round" stroke-miterlimit="10" points="   55.526,509.447 55.526,502.297 49.476,502.297 49.603,502.297 43.553,502.297 43.553,509.447  "></polyline><path fill="none" stroke="#000000" stroke-width="3" stroke-linejoin="round" stroke-miterlimit="10" d="M54.862,581.333   c-0.666,5.622-2.895,7.558-4.284,8.223c-0.533,0.255-1.149,0.255-1.682,0c-1.39-0.665-3.619-2.601-4.285-8.223"></path><path fill="none" stroke="#000000" stroke-width="0.898" stroke-linejoin="round" stroke-miterlimit="10" d="M49.935,588.747"></path><path fill="none" stroke="#000000" stroke-width="0.898" stroke-linejoin="round" stroke-miterlimit="10" d="M49.616,588.797"></path><line fill="none" stroke="#000000" stroke-width="2.9664" stroke-linejoin="round" stroke-miterlimit="10" x1="32.167" y1="535.752" x2="67.306" y2="535.752"></line><line fill="none" stroke="#000000" stroke-width="2.9664" stroke-linejoin="round" stroke-miterlimit="10" x1="32.167" y1="572.997" x2="67.306" y2="572.997"></line></g><g><path fill="none" stroke="#000000" stroke-width="3" stroke-miterlimit="10" d="M200.741,547.791   c7.335,0.001,12.264,0.003,12.259,0.007l-0.001-18.75c0,0-12.166-13.083-37.999-13.083c-25.36,0-37.167,13.083-37.167,13.083v18.75   l-0.021,0.012v18.75c0,0,11.807,13.083,37.167,13.083c25.833,0,37.999-13.083,37.999-13.083l0.001-18.75"></path><path fill="none" stroke="#000000" stroke-width="3" stroke-miterlimit="10" d="M156.682,547.794   c11.202-0.002,25.387-0.004,36.718-0.004"></path><path fill="none" stroke="#000000" stroke-width="3" stroke-miterlimit="10" d="M137.833,547.797c0,0,4.594-0.001,11.51-0.002"></path><path fill="none" stroke="#000000" stroke-width="3" stroke-miterlimit="10" d="M200.74,533.897c3.935,0.905,8.025,2.027,12.26,3.4   "></path><path fill="none" stroke="#000000" stroke-width="3" stroke-miterlimit="10" d="M156.682,531.883   c9.27-1.475,21.702-2.044,36.719,0.538"></path><path fill="none" stroke="#000000" stroke-width="3" stroke-miterlimit="10" d="M137.833,537.297c0,0,4.038-2.095,11.51-3.936"></path><path fill="none" stroke="#000000" stroke-width="3" stroke-miterlimit="10" d="M201.029,562.335   c3.846-0.893,7.84-1.994,11.971-3.334"></path><path fill="none" stroke="#000000" stroke-width="3" stroke-miterlimit="10" d="M156.682,564.416   c9.503,1.512,22.331,2.072,37.859-0.739"></path><path fill="none" stroke="#000000" stroke-width="3" stroke-miterlimit="10" d="M137.833,559.002c0,0,4.038,2.095,11.51,3.936"></path><polyline fill="none" stroke="#000000" stroke-width="3" stroke-linecap="round" stroke-linejoin="round" stroke-miterlimit="10" points="   207.04,571.164 212.25,582.672 192.375,582.672 189.23,578.201  "></polyline><polyline fill="none" stroke="#000000" stroke-width="3" stroke-linecap="round" stroke-linejoin="round" stroke-miterlimit="10" points="   143.043,571.164 137.833,582.672 157.708,582.672 160.854,578.201  "></polyline><line fill="none" stroke="#000000" stroke-width="3" stroke-linecap="round" stroke-linejoin="round" stroke-miterlimit="10" x1="149.344" y1="521.289" x2="149.344" y2="574.327"></line><line fill="none" stroke="#000000" stroke-width="3" stroke-linecap="round" stroke-linejoin="round" stroke-miterlimit="10" x1="156.683" y1="518.516" x2="156.683" y2="576.918"></line><line fill="none" stroke="#000000" stroke-width="3" stroke-linecap="round" stroke-linejoin="round" stroke-miterlimit="10" x1="200.74" y1="521.289" x2="200.74" y2="574.327"></line><line fill="none" stroke="#000000" stroke-width="3" stroke-linecap="round" stroke-linejoin="round" stroke-miterlimit="10" x1="193.401" y1="563.676" x2="193.401" y2="576.918"></line><line fill="none" stroke="#000000" stroke-width="3" stroke-linecap="round" stroke-linejoin="round" stroke-miterlimit="10" x1="193.401" y1="518.516" x2="193.401" y2="563.676"></line><path fill="none" stroke="#000000" stroke-width="3" stroke-linecap="round" stroke-linejoin="round" stroke-miterlimit="10" d="   M135.979,559.46h-5.213c-0.033,0-0.06,0.027-0.06,0.06v4.747H126.5v-5.826c0-1.624,1.316-2.941,2.939-2.942l6.54-0.005"></path><polyline fill="none" stroke="#000000" stroke-width="3" stroke-linecap="round" stroke-linejoin="round" stroke-miterlimit="10" points="   132.24,554.808 132.24,550.392 129.583,550.392  "></polyline></g><g><path fill="none" stroke="#000000" stroke-width="3" stroke-linejoin="round" stroke-miterlimit="10" d="M155.183,141.056   c-3.328,0-5.578-2.698-5.578-6.026s2.698-6.026,6.026-6.026c1.664,0,3.271,0.802,4.358,2.164c0-3.714,3.011-6.725,6.725-6.725   c3.714,0,6.686,2.302,6.686,6.016c0.972-0.903,2.275-1.455,3.706-1.455c2.332,0,4.322,1.466,5.099,3.527   c0.431-0.142,0.89-0.225,1.368-0.225c2.416,0,4.375,1.959,4.375,4.375c0,2.223-1.657,4.058-3.804,4.338"></path><path fill="none" stroke="#000000" stroke-width="3" stroke-linejoin="round" stroke-miterlimit="10" d="M164.722,141.056h3.518   h-0.115h15.333v3.587c0,4.897,0.846,9.758,2.502,14.367l1.63,4.54l0.002-0.001c1.05,2.379,1.633,5.011,1.633,7.779   c0,10.65-8.634,19.284-19.284,19.284h-3.52c-10.65,0-19.284-8.634-19.284-19.284c0-2.768,0.583-5.4,1.633-7.779l0.002,0.001   l1.63-4.54c1.655-4.609,2.502-9.47,2.502-14.367v-3.587h5.315v10.05c0,1.795,1.455,3.25,3.25,3.25s3.25-1.455,3.25-3.25   L164.722,141.056z"></path><line fill="none" stroke="#000000" stroke-width="2.8544" stroke-miterlimit="10" x1="168.573" y1="190.556" x2="168.573" y2="204.057"></line><g><path d="M179.99,207.057c0.542,0,0.887,0.288,1.045,0.46c0.157,0.171,0.414,0.541,0.366,1.092c-0.06,0.694-0.811,1.281-1.64,1.281    h-11.188h-11.417c-0.542,0-0.887-0.288-1.045-0.46c-0.157-0.171-0.414-0.541-0.366-1.092c0.06-0.694,0.811-1.281,1.64-1.281    h11.188H179.99 M179.99,204.057h-11.417h-11.188c-2.329,0-4.427,1.701-4.628,4.021c-0.228,2.617,1.83,4.812,4.399,4.812h11.417    h11.188c2.329,0,4.427-1.701,4.628-4.021C184.617,206.251,182.56,204.057,179.99,204.057L179.99,204.057z"></path></g></g><g><path fill="none" stroke="#000000" stroke-width="3" stroke-linejoin="round" stroke-miterlimit="10" d="M406,547.881v-7.167   l-5.354-4.222c-5.689-4.485-9.333-11.181-9.622-18.419c-0.016-0.39-0.024-0.788-0.024-1.193c0-13.163,13.649-14.414,18.011-14.477   l2.433-0.002c4.116,0.026,18.279,1.089,18.279,14.479c0,0.405-0.008,0.802-0.024,1.193c-0.289,7.239-3.933,13.934-9.622,18.419   l-5.354,4.222v7.167"></path><path fill="none" stroke="#000000" stroke-width="3" stroke-miterlimit="10" d="M410.388,589.297c3.314,0,6-2.686,6-6v-35.417   h-1.749h-4.251h-0.053h-4.251h-1.749v35.417c0,3.314,2.686,6,6,6"></path><path fill="none" stroke="#000000" stroke-width="3" stroke-linejoin="round" stroke-miterlimit="10" d="M410.335,526.631   c3.582-0.083,4.735,3.417,4.735,3.417s5.174-2.25,6.61-7c2.857-9.447-4.228-11.75-4.228-11.75l-3.124,3.917h-4.002h0.009h-4.002   l-3.061-3.917c0,0-7.085,2.303-4.229,11.75c1.436,4.75,6.61,7,6.61,7S406.753,526.714,410.335,526.631z"></path></g><g><path fill="none" stroke="#000000" stroke-width="3" stroke-linejoin="round" stroke-miterlimit="10" d="M656.312,306.061h-13.834   c-1.105,0-2-0.895-2-2v-49.104v-8.396h17.834v8.563v48.937C658.312,305.166,657.417,306.061,656.312,306.061z"></path><line fill="none" stroke="#000000" stroke-width="3" stroke-linejoin="round" stroke-miterlimit="10" x1="640.478" y1="254.957" x2="658.312" y2="254.957"></line><line fill="none" stroke="#000000" stroke-width="3" stroke-miterlimit="10" x1="649.888" y1="306.061" x2="649.888" y2="333.957"></line><line fill="none" stroke="#000000" stroke-width="3" stroke-linecap="round" stroke-miterlimit="10" x1="639.929" y1="333.957" x2="659.848" y2="333.957"></line><path fill="none" stroke="#000000" stroke-width="3" stroke-miterlimit="10" d="M769.343,208.627"></path><path fill="none" stroke="#000000" stroke-width="3" stroke-miterlimit="10" d="M769.343,172.377"></path><circle fill="none" stroke="#000000" stroke-miterlimit="10" cx="645.673" cy="300.082" r="0.959"></circle><circle fill="none" stroke="#000000" stroke-width="0.5625" stroke-miterlimit="10" cx="647.592" cy="295.957" r="0.54"></circle><circle fill="none" stroke="#000000" stroke-miterlimit="10" cx="650.16" cy="265.707" r="0.959"></circle><circle fill="none" stroke="#000000" stroke-width="0.5625" stroke-miterlimit="10" cx="652.079" cy="261.582" r="0.54"></circle><circle fill="none" stroke="#000000" stroke-width="0.5203" stroke-miterlimit="10" cx="650.62" cy="303.062" r="0.499"></circle></g><g><path fill="none" stroke="#000000" stroke-width="3" stroke-linecap="round" stroke-linejoin="round" stroke-miterlimit="10" d="   M769.424,172.377h0.999c1.233,0,2.422-0.457,3.338-1.283l0.43-0.388c1.859-1.676,3.137-3.9,3.649-6.35l1.463-7   c0.297-1.419,1.183-2.644,2.437-3.371l5.145-2.979c2.36-1.367,4.103-3.59,4.867-6.209l2.31-7.921l-24.638,0h-24.638l2.31,7.921   c0.764,2.618,2.507,4.842,4.867,6.209l5.145,2.979c1.254,0.726,2.14,1.952,2.437,3.371l1.463,7c0.512,2.45,1.79,4.674,3.649,6.35   l0.43,0.388c0.916,0.826,2.105,1.283,3.338,1.283H769.424z"></path><g><path d="M780.759,210.203c0.542,0,0.887,0.288,1.045,0.46c0.157,0.171,0.414,0.541,0.366,1.092    c-0.06,0.694-0.811,1.281-1.64,1.281h-11.188h-11.417c-0.542,0-0.887-0.288-1.045-0.46c-0.157-0.171-0.414-0.541-0.366-1.092    c0.06-0.694,0.811-1.281,1.64-1.281h11.188H780.759 M780.759,207.203h-11.417h-11.188c-2.329,0-4.427,1.701-4.628,4.021    c-0.228,2.617,1.83,4.812,4.399,4.812h11.417h11.188c2.329,0,4.427-1.701,4.628-4.021    C785.386,209.398,783.329,207.203,780.759,207.203L780.759,207.203z"></path></g><line fill="none" stroke="#000000" stroke-width="3" stroke-miterlimit="10" x1="746.51" y1="142.792" x2="792.337" y2="142.792"></line><path fill="none" stroke="#000000" stroke-width="3" stroke-miterlimit="10" d="M784.063,136.869   c-0.05-0.407-0.076-0.821-0.076-1.242c0-5.564,4.511-10.075,10.075-10.075s10.075,4.511,10.075,10.075   c0,5.564-4.511,10.075-10.075,10.075c-0.874,0-1.722-0.111-2.531-0.32"></path><line fill="none" stroke="#000000" stroke-width="3" stroke-miterlimit="10" x1="769.343" y1="208.627" x2="769.343" y2="172.377"></line></g><g><line fill="none" stroke="#000000" stroke-width="3" stroke-linejoin="round" stroke-miterlimit="10" x1="881.622" y1="134.698" x2="899.456" y2="134.698"></line><line fill="none" stroke="#000000" stroke-width="3" stroke-miterlimit="10" x1="891.032" y1="185.802" x2="891.032" y2="213.698"></line><line fill="none" stroke="#000000" stroke-width="3" stroke-linecap="round" stroke-miterlimit="10" x1="881.072" y1="213.698" x2="900.992" y2="213.698"></line><circle fill="none" stroke="#000000" stroke-miterlimit="10" cx="886.816" cy="176.823" r="0.959"></circle><circle fill="none" stroke="#000000" stroke-width="0.5625" stroke-miterlimit="10" cx="888.735" cy="172.698" r="0.54"></circle><circle fill="none" stroke="#000000" stroke-miterlimit="10" cx="891.303" cy="145.448" r="0.959"></circle><circle fill="none" stroke="#000000" stroke-width="0.5625" stroke-miterlimit="10" cx="893.222" cy="141.323" r="0.54"></circle><circle fill="none" stroke="#000000" stroke-width="0.5203" stroke-miterlimit="10" cx="891.764" cy="179.803" r="0.499"></circle><path fill="none" stroke="#000000" stroke-width="3" stroke-linejoin="round" stroke-miterlimit="10" d="M881.622,176.885   c0,4.925,3.992,8.917,8.917,8.917c4.925,0,8.917-3.992,8.917-8.917v-42.02v-8.563h-17.834v8.396V176.885z"></path></g><g><path fill="none" stroke="#000000" stroke-width="3" stroke-linejoin="round" stroke-miterlimit="10" d="M58.615,334.45H34.967   c-1.888,0-3.419-1.025-3.419-2.289v-56.208v-9.61h30.487v9.801v56.017C62.034,333.425,60.504,334.45,58.615,334.45z"></path><line fill="none" stroke="#000000" stroke-width="3" stroke-linejoin="round" stroke-miterlimit="10" x1="31.548" y1="275.953" x2="62.034" y2="275.953"></line><circle fill="none" stroke="#000000" stroke-width="1.1447" stroke-miterlimit="10" cx="37.494" cy="327.607" r="1.098"></circle><circle fill="none" stroke="#000000" stroke-width="0.6439" stroke-miterlimit="10" cx="39.69" cy="322.885" r="0.618"></circle><circle fill="none" stroke="#000000" stroke-width="1.1447" stroke-miterlimit="10" cx="42.63" cy="288.259" r="1.098"></circle><circle fill="none" stroke="#000000" stroke-width="0.6439" stroke-miterlimit="10" cx="44.827" cy="283.537" r="0.618"></circle><circle fill="none" stroke="#000000" stroke-width="0.5955" stroke-miterlimit="10" cx="43.157" cy="331.017" r="0.571"></circle><polyline fill="none" stroke="#000000" stroke-width="3" stroke-linecap="round" stroke-linejoin="round" stroke-miterlimit="10" points="   66.382,247.55 55.641,254.919 47.382,328.705  "></polyline></g><g><path fill="none" stroke="#000000" stroke-width="3" stroke-linecap="round" stroke-linejoin="round" stroke-miterlimit="10" d="   M332.042,387.564h-85.104v16.625l4.156,4.156l-4.552,4.552v11.479l6.729,3.563l-6.729,3.958v14.25h10.397   c2.183,0,4.307,0.667,6.1,1.913c5.222,3.628,17.142,11.15,26.197,11.15c9.095,0,20.918-6.901,26.025-10.181   c1.724-1.108,3.723-1.694,5.773-1.694h11.009v-18.604l-4.75-5.344l4.75-3.76V387.564z"></path><line fill="none" stroke="#000000" stroke-width="3" stroke-linecap="round" stroke-linejoin="round" stroke-miterlimit="10" x1="246.542" y1="376.085" x2="332.042" y2="376.085"></line><line fill="none" stroke="#000000" stroke-width="3" stroke-linecap="round" stroke-linejoin="round" stroke-miterlimit="10" x1="319.177" y1="394.502" x2="319.177" y2="371.543"></line><line fill="none" stroke="#000000" stroke-width="3" stroke-linecap="round" stroke-linejoin="round" stroke-miterlimit="10" x1="261.459" y1="394.502" x2="261.459" y2="371.543"></line><line fill="none" stroke="#000000" stroke-width="3" stroke-linecap="round" stroke-linejoin="round" stroke-miterlimit="10" x1="253.271" y1="427.939" x2="261.459" y2="427.939"></line><line fill="none" stroke="#000000" stroke-width="3" stroke-linecap="round" stroke-linejoin="round" stroke-miterlimit="10" x1="251.094" y1="408.345" x2="254.459" y2="408.345"></line><line fill="none" stroke="#000000" stroke-width="3" stroke-linecap="round" stroke-linejoin="round" stroke-miterlimit="10" x1="267.209" y1="427.939" x2="269.709" y2="427.939"></line><line fill="none" stroke="#000000" stroke-width="3" stroke-linecap="round" stroke-linejoin="round" stroke-miterlimit="10" x1="327.209" y1="423.387" x2="323.459" y2="423.387"></line><line fill="none" stroke="#000000" stroke-width="3" stroke-linecap="round" stroke-linejoin="round" stroke-miterlimit="10" x1="325.193" y1="407.793" x2="313.679" y2="407.793"></line><path fill="none" stroke="#000000" stroke-width="3" stroke-linejoin="round" stroke-miterlimit="10" d="M286.937,406.411   l-0.235-6.875h-2.772h0.163h-2.772l-0.388,11.335c-3.946,1.427-4.03,5.038-4.03,5.038v23.62c0,1.113,0.902,2.015,2.015,2.015h5.175   "></path><line fill="none" stroke="#000000" stroke-width="3" stroke-linejoin="round" stroke-miterlimit="10" x1="283.93" y1="441.543" x2="289.105" y2="441.543"></line><path fill="none" stroke="#000000" stroke-width="3" stroke-linejoin="round" stroke-miterlimit="10" d="M284.039,399.487h3.785   v-0.631c0-0.975-0.79-1.766-1.766-1.766h-2.047h-2.047c-0.975,0-1.766,0.79-1.766,1.766v0.631h3.785"></path><line fill="none" stroke="#000000" stroke-width="3" stroke-linejoin="round" stroke-miterlimit="10" x1="276.847" y1="419.099" x2="287.417" y2="419.099"></line><line fill="none" stroke="#000000" stroke-width="3" stroke-linejoin="round" stroke-miterlimit="10" x1="276.847" y1="434.59" x2="291.064" y2="434.59"></line><line fill="none" stroke="#000000" stroke-width="3" stroke-linejoin="round" stroke-miterlimit="10" x1="280.966" y1="408.268" x2="286.047" y2="408.268"></line><line fill="none" stroke="#000000" stroke-width="3" stroke-linejoin="round" stroke-miterlimit="10" x1="286.74" y1="402.303" x2="281.171" y2="402.303"></line><path fill="none" stroke="#000000" stroke-width="3" stroke-linejoin="round" stroke-miterlimit="10" d="M288.536,411.097   c-1.485,0-2.489-1.204-2.489-2.689s1.204-2.689,2.689-2.689c0.743,0,1.46,0.358,1.945,0.966c0-1.657,1.344-3.001,3.001-3.001   s2.984,1.027,2.984,2.685c0.434-0.403,1.015-0.649,1.654-0.649c1.041,0,1.929,0.654,2.275,1.574c0.192-0.063,0.397-0.1,0.611-0.1   c1.078,0,1.953,0.874,1.953,1.953c0,0.992-0.74,1.811-1.698,1.936"></path><line fill="none" stroke="#000000" stroke-width="3" stroke-miterlimit="10" x1="288.272" y1="440.147" x2="301.333" y2="440.147"></line><path fill="none" stroke="#000000" stroke-width="3" stroke-linejoin="round" stroke-miterlimit="10" d="M295.859,411.097v3.533   c0,0.965,0.783,1.748,1.748,1.748c0.965,0,1.748-0.783,1.748-1.748l0-3.533h2.307c0,0,2.091,7.142-0.944,12.499   c-3.035,5.357-2.164,10.499-2.164,10.499s0.756,2.357,2.434,4.785c1.003,1.696-0.416,3.057-1.028,3.285   c-0.038,0.014-0.077,0.028-0.117,0.041c-0.38,0.122-0.776,0.174-1.173,0.174h-3.077h-0.789h-0.789h-3.077   c-0.397,0-0.794-0.051-1.173-0.174c-0.04-0.013-0.079-0.026-0.117-0.041c-0.612-0.229-2.032-1.589-1.028-3.285   c1.678-2.428,2.434-4.785,2.434-4.785s0.871-5.142-2.164-10.499c-3.035-5.357-0.944-12.499-0.944-12.499h6.07h1.579H295.859z"></path><circle fill="none" stroke="#000000" stroke-width="3" stroke-linejoin="round" stroke-miterlimit="10" cx="284.304" cy="426.862" r="3.133"></circle></g><g><path fill="none" stroke="#000000" stroke-width="3" stroke-linejoin="round" stroke-miterlimit="10" d="M524.173,260.163   l-0.482-14.102h-5.685h0.334h-5.685l-0.795,23.249c-8.094,2.928-8.266,10.333-8.266,10.333v48.447c0,2.283,1.851,4.133,4.133,4.133   h10.614"></path><line fill="none" stroke="#000000" stroke-width="3" stroke-linejoin="round" stroke-miterlimit="10" x1="518.005" y1="332.223" x2="528.619" y2="332.223"></line><line fill="none" stroke="#000000" stroke-width="3" stroke-linejoin="round" stroke-miterlimit="10" x1="503.477" y1="286.187" x2="525.157" y2="286.187"></line><line fill="none" stroke="#000000" stroke-width="3" stroke-linejoin="round" stroke-miterlimit="10" x1="503.477" y1="317.962" x2="532.637" y2="317.962"></line><line fill="none" stroke="#000000" stroke-width="3" stroke-linejoin="round" stroke-miterlimit="10" x1="511.926" y1="263.972" x2="522.346" y2="263.972"></line><line fill="none" stroke="#000000" stroke-width="3" stroke-linejoin="round" stroke-miterlimit="10" x1="523.769" y1="251.736" x2="512.345" y2="251.736"></line><path fill="none" stroke="#000000" stroke-width="3" stroke-linejoin="round" stroke-miterlimit="10" d="M527.452,269.775   c-3.047,0-5.106-2.47-5.106-5.516s2.47-5.516,5.516-5.516c1.523,0,2.995,0.734,3.989,1.981c0-3.4,2.756-6.156,6.156-6.156   c3.4,0,6.12,2.107,6.12,5.507c0.89-0.827,2.082-1.332,3.392-1.332c2.135,0,3.957,1.342,4.667,3.229   c0.395-0.13,0.814-0.206,1.253-0.206c2.212,0,4.005,1.793,4.005,4.005c0,2.035-1.517,3.715-3.482,3.971"></path><line fill="none" stroke="#000000" stroke-width="3" stroke-miterlimit="10" x1="526.911" y1="329.36" x2="553.701" y2="329.36"></line><path fill="none" stroke="#000000" stroke-width="3" stroke-linejoin="round" stroke-miterlimit="10" d="M542.472,269.775v7.247   c0,1.98,1.605,3.585,3.585,3.585s3.585-1.605,3.585-3.585l0-7.247h4.732c0,0,4.288,14.649-1.937,25.636S548,316.946,548,316.946   s1.551,4.834,4.992,9.815c2.058,3.479-0.854,6.27-2.109,6.739c-0.078,0.029-0.159,0.057-0.24,0.083   c-0.779,0.251-1.592,0.356-2.406,0.356h-6.311h-1.619h-1.619h-6.311c-0.814,0-1.628-0.105-2.406-0.356   c-0.082-0.026-0.162-0.054-0.24-0.083c-1.255-0.469-4.167-3.259-2.109-6.739c3.441-4.981,4.992-9.815,4.992-9.815   s1.786-10.548-4.438-21.535c-6.225-10.987-1.937-25.636-1.937-25.636h12.45h3.239H542.472z"></path><circle fill="none" stroke="#000000" stroke-width="3" stroke-linejoin="round" stroke-miterlimit="10" cx="518.772" cy="302.111" r="6.427"></circle></g><g><polyline fill="none" stroke="#000000" stroke-width="3" stroke-linejoin="round" stroke-miterlimit="10" points="650.586,144.648    675.586,144.648 650.586,173.474 650.148,173.474 625.148,144.648 650.148,144.648  "></polyline><line fill="none" stroke="#000000" stroke-width="3.3166" stroke-miterlimit="10" x1="650.148" y1="173.474" x2="650.148" y2="212.474"></line><line fill="none" stroke="#000000" stroke-width="3" stroke-linecap="round" stroke-miterlimit="10" x1="636.815" y1="212.474" x2="663.482" y2="212.474"></line><line fill="none" stroke="#000000" stroke-width="3" stroke-linecap="round" stroke-miterlimit="10" x1="630.157" y1="150.422" x2="671.149" y2="150.422"></line><line fill="none" stroke="#000000" stroke-width="2.6404" stroke-miterlimit="10" x1="667.195" y1="140.98" x2="658.889" y2="151.422"></line><g><path fill="none" d="M667.195,139.98"></path></g><g><path d="M680.39,124.599c0,0-0.336,0.697-0.891,1.701c-0.273,0.506-0.588,1.099-0.949,1.714c-0.348,0.626-0.755,1.266-1.149,1.915    c-0.408,0.639-0.685,1.383-1.115,1.943c-0.44,0.552-0.99,0.953-1.496,1.269c-0.52,0.305-0.996,0.523-1.378,0.636    c-0.373,0.121-0.628,0.156-0.628,0.156l-0.233-0.189c0,0-0.017-0.257,0.026-0.646c0.034-0.397,0.152-0.908,0.345-1.479    c0.207-0.559,0.489-1.179,0.94-1.721c0.462-0.534,1.134-0.956,1.678-1.485c0.556-0.518,1.1-1.045,1.643-1.513    c0.53-0.478,1.047-0.907,1.487-1.276c0.872-0.746,1.486-1.216,1.486-1.216L680.39,124.599z"></path></g><ellipse transform="matrix(0.2827 0.9592 -0.9592 0.2827 611.4708 -545.4413)" fill="none" stroke="#000000" stroke-width="2" stroke-miterlimit="10" cx="670.433" cy="136.126" rx="5.167" ry="6.504"></ellipse></g><g><path fill="none" stroke="#000000" stroke-width="3" stroke-linejoin="round" stroke-miterlimit="10" d="M190.893,258.126v37.447   c0,11.409-9.248,20.656-20.655,20.656c-11.408,0-20.655-9.248-20.655-20.655v-37.449L190.893,258.126z"></path><g><path d="M181.299,328.758c0.542,0,0.887,0.288,1.045,0.46c0.157,0.171,0.414,0.541,0.366,1.092    c-0.06,0.694-0.811,1.281-1.64,1.281h-11.188h-11.417c-0.542,0-0.887-0.288-1.045-0.46c-0.157-0.171-0.414-0.541-0.366-1.092    c0.06-0.694,0.811-1.281,1.64-1.281h11.188H181.299 M181.299,325.758h-11.417h-11.188c-2.329,0-4.427,1.701-4.628,4.021    c-0.228,2.617,1.83,4.812,4.399,4.812h11.417h11.188c2.329,0,4.427-1.701,4.628-4.021    C185.926,327.952,183.869,325.758,181.299,325.758L181.299,325.758z"></path></g><line fill="none" stroke="#000000" stroke-width="3" stroke-miterlimit="10" x1="169.883" y1="325.758" x2="170.237" y2="316.23"></line><line fill="none" stroke="#000000" stroke-width="3.074" stroke-miterlimit="10" x1="149.582" y1="273.54" x2="190.893" y2="273.54"></line></g><g><line fill="none" stroke="#000000" stroke-width="3" stroke-miterlimit="10" x1="290.771" y1="311.313" x2="290.771" y2="326.227"></line><g><path d="M302.187,329.227c0.781,0,1.417,0.635,1.417,1.417s-0.635,1.417-1.417,1.417h-11.417h-11.417    c-0.781,0-1.417-0.636-1.417-1.417s0.635-1.417,1.417-1.417h11.417H302.187 M302.187,326.227h-11.417h-11.417    c-2.439,0-4.417,1.977-4.417,4.417c0,2.439,1.977,4.417,4.417,4.417h11.417h11.417c2.439,0,4.417-1.977,4.417-4.417    C306.604,328.205,304.626,326.227,302.187,326.227L302.187,326.227z"></path></g><path fill="none" stroke="#000000" stroke-width="3" stroke-linejoin="round" stroke-miterlimit="10" d="M285.862,266.938   c0.001,0,4.908,0,4.908,0h15.125l5.75,10.876c1.521,3.092,2.375,6.571,2.375,10.249c0,12.841-10.409,23.25-23.25,23.25   c-12.841,0-23.25-10.409-23.25-23.25c0-3.678,0.854-7.157,2.375-10.249l5.75-10.876h1.285H285.862z"></path><line fill="none" stroke="#000000" stroke-width="3" stroke-miterlimit="10" x1="271.416" y1="274.938" x2="309.974" y2="274.938"></line><polygon fill="none" stroke="#000000" stroke-width="3" stroke-linejoin="round" stroke-miterlimit="10" points="285.995,252.731    322.128,270.221 308.092,253.15  "></polygon><line fill="none" stroke="#000000" stroke-width="3" stroke-linejoin="round" stroke-miterlimit="10" x1="304.061" y1="261.476" x2="297.539" y2="274.952"></line><line fill="none" stroke="#000000" stroke-width="3" stroke-linecap="round" stroke-linejoin="round" stroke-miterlimit="10" x1="308.421" y1="253.357" x2="309.48" y2="250.939"></line></g><g><polyline fill="none" stroke="#000000" stroke-width="3" stroke-linejoin="round" stroke-miterlimit="10" points="426.984,278.143    424.258,332.956 410.552,332.956 396.846,332.956 394.12,278.143  "></polyline><polyline fill="none" stroke="#000000" stroke-width="3" stroke-linecap="round" stroke-linejoin="round" stroke-miterlimit="10" points="   391.765,278.143 410.552,278.143 413.379,278.143 421.374,278.143 429.339,278.143  "></polyline><line fill="none" stroke="#000000" stroke-width="3" stroke-linejoin="round" stroke-miterlimit="10" x1="396.635" y1="328.722" x2="424.535" y2="328.722"></line><path fill="none" stroke="#000000" stroke-width="3" stroke-linecap="round" stroke-linejoin="round" stroke-miterlimit="10" d="   M394.12,278.143c0,0-1.738-10.615,9.053-11.308"></path><path fill="none" stroke="#000000" stroke-width="3" stroke-linejoin="round" stroke-miterlimit="10" d="M420.695,268.468h1.269   c3.113-2.951,2.976-8.407,0.298-11.757c-4.037-5.049-12.49-7.15-12.49-7.15s7.692,9.082-2.299,8.832   c-9.991-0.25-8.879,8.442-8.879,8.442"></path><path fill="none" stroke="#000000" stroke-width="3" stroke-linecap="round" stroke-linejoin="round" stroke-miterlimit="10" d="   M426.984,278.143c0,0,3.852-6.417-2.626-8.5c0,0-2.977-1.25-6.227-1.667"></path><line fill="none" stroke="#000000" stroke-width="3" stroke-linecap="round" stroke-linejoin="round" stroke-miterlimit="10" x1="425.537" y1="270.192" x2="431.407" y2="258.153"></line></g><g><path fill="none" stroke="#000000" stroke-width="3" stroke-linejoin="round" stroke-miterlimit="10" d="M890.926,588.141l10.272,0   c2.209,0,4-1.791,4-4v-46.885c0,0-0.167-7.167-8-10l-0.77-22.5h-5.502h0.323h-5.502l-0.77,22.5c-7.833,2.833-8,10-8,10v46.885   c0,2.209,1.791,4,4,4h10.272"></path><line fill="none" stroke="#000000" stroke-width="3" stroke-linejoin="round" stroke-miterlimit="10" x1="876.647" y1="543.589" x2="904.867" y2="543.589"></line><line fill="none" stroke="#000000" stroke-width="3" stroke-linejoin="round" stroke-miterlimit="10" x1="876.647" y1="574.339" x2="904.867" y2="574.339"></line><line fill="none" stroke="#000000" stroke-width="3" stroke-linejoin="round" stroke-miterlimit="10" x1="884.824" y1="522.09" x2="896.69" y2="522.09"></line><line fill="none" stroke="#000000" stroke-width="3" stroke-linejoin="round" stroke-miterlimit="10" x1="884.824" y1="511.173" x2="896.69" y2="511.173"></line><circle fill="none" stroke="#000000" stroke-width="3" stroke-linejoin="round" stroke-miterlimit="10" cx="890.757" cy="559.11" r="6.937"></circle><line fill="none" stroke="#000000" stroke-width="3.4232" stroke-linecap="round" stroke-linejoin="round" stroke-miterlimit="10" x1="898.576" y1="504.756" x2="883.599" y2="504.756"></line></g><g><line fill="none" stroke="#000000" stroke-width="3" stroke-linejoin="round" stroke-miterlimit="10" x1="154.596" y1="88.344" x2="186.415" y2="88.344"></line><g><path d="M183.469,94.831h-25.927c-1.553,0-2.855-1.213-2.966-2.762l-2.794-39.141c-0.004-0.053-0.041-0.117-0.099-0.171    c-4.432-4.175-3.651-9.415-1.443-12.925c0.023-0.037,0.032-0.083,0.026-0.133l-1.469-11.753c-0.002-0.022-0.005-0.045-0.006-0.067    c-2.427-1.526-3.987-4.333-3.987-7.684c0-4.919,4.002-8.922,8.922-8.922c1.596,0,3.138,0.474,4.47,1.344    c1.189-4.071,4.956-7.054,9.406-7.054c4.736,0,8.382,2.634,9.437,6.528c1.103-0.535,2.321-0.818,3.574-0.818    c2.982,0,5.725,1.647,7.157,4.202c0.313-0.045,0.626-0.067,0.939-0.067c3.779,0,6.854,3.075,6.854,6.854    c0,2.485-1.344,4.703-3.376,5.905l-1.441,11.532c-0.006,0.051,0.002,0.096,0.026,0.134c2.208,3.511,2.987,8.75-1.443,12.924    c-0.059,0.055-0.096,0.12-0.1,0.173l-2.794,39.14C186.323,93.618,185.021,94.831,183.469,94.831z M151.723,29.152l1.275,10.205    c0.084,0.678-0.067,1.367-0.427,1.94c-1.011,1.608-2.937,5.747,1,9.456c0.564,0.532,0.904,1.235,0.957,1.98l2.794,39.14    c0.008,0.114,0.105,0.204,0.22,0.204h25.927c0.115,0,0.211-0.09,0.22-0.205l2.794-39.14c0.054-0.746,0.394-1.448,0.958-1.98    c3.936-3.708,2.01-7.847,1-9.455c-0.36-0.574-0.512-1.263-0.427-1.941l1.275-10.205h-2.34V41.54c0,3.195-2.6,5.795-5.795,5.795    s-5.795-2.6-5.795-5.795v-5.371c-0.739,0.398-1.585,0.625-2.482,0.625c-2.896,0-5.252-2.356-5.252-5.252v-2.39H151.723z     M178.111,31.955v9.585c0,1.677,1.364,3.042,3.042,3.042s3.042-1.364,3.042-3.042V27.739c0-0.76,0.617-1.377,1.377-1.377    c0.107,0,0.212,0.013,0.313,0.036h3.371l-0.009-0.07c2.031-0.265,3.563-2.013,3.563-4.066c0-2.261-1.839-4.101-4.101-4.101    c-0.423,0-0.855,0.071-1.283,0.212c-0.7,0.23-1.459-0.132-1.719-0.822c-0.793-2.108-2.841-3.524-5.095-3.524    c-1.378,0-2.694,0.516-3.703,1.454c-0.401,0.372-0.984,0.472-1.487,0.253c-0.502-0.219-0.827-0.714-0.827-1.262    c0-3.624-2.875-6.155-6.993-6.155c-3.883,0-7.042,3.159-7.042,7.042c0,0.585-0.37,1.106-0.922,1.299    c-0.554,0.192-1.167,0.016-1.531-0.44c-1.095-1.372-2.732-2.191-4.38-2.191c-3.401,0-6.168,2.767-6.168,6.168    c0,3.574,2.358,6.167,5.607,6.167v0.036h15.524c0.094-0.021,0.193-0.034,0.293-0.035c0.748-0.035,1.375,0.585,1.395,1.339    c0,0.013,0.001,0.027,0.001,0.041v3.799c0,1.377,1.121,2.498,2.498,2.498c1.281,0,2.34-0.969,2.482-2.213v-0.284    c0-0.744,0.591-1.354,1.335-1.376c0.381-0.013,0.741,0.129,1.008,0.388c0.267,0.259,0.426,0.615,0.426,0.988    C178.127,31.681,178.122,31.818,178.111,31.955z"></path></g></g><g><line fill="none" stroke="#000000" stroke-width="2.7486" stroke-linejoin="round" stroke-miterlimit="10" x1="274.652" y1="88.487" x2="305.122" y2="88.487"></line><g><path d="M301.651,94.598H278.18c-1.186,0-2.304-0.519-3.068-1.423c-0.764-0.903-1.089-2.091-0.892-3.259    c0.871-5.16,2.543-17.956-0.723-25.306c-4.542-10.221-3.539-35.385-3.484-36.681l0.103-4.972c0-3.547,2.91-6.458,6.488-6.458    c0.917,0,1.809,0.19,2.627,0.553c1.397-3.061,4.48-5.12,7.98-5.12c3.531,0,6.645,2.149,8.021,5.233    c0.969-0.579,2.139-0.883,3.455-0.883c3.15,0,5.784,2.257,6.368,5.24c2.654,0.765,4.608,3.193,4.701,6.026    c0.034,0.116,0.055,0.238,0.061,0.364c0.046,1.074,1.081,26.428-3.483,36.697c-3.267,7.35-1.594,20.146-0.723,25.306    c0.197,1.167-0.128,2.355-0.892,3.259C303.955,94.08,302.836,94.598,301.651,94.598z M272.964,29.478    c-0.15,5.54-0.416,25.614,3.273,33.914c3.469,7.805,2.078,20.281,0.94,27.024c-0.068,0.404,0.111,0.689,0.225,0.823    c0.114,0.135,0.366,0.36,0.777,0.36h23.471c0.412,0,0.664-0.225,0.777-0.36c0.113-0.134,0.293-0.418,0.225-0.823    c-1.138-6.743-2.529-19.219,0.94-27.024c3.69-8.304,3.424-28.374,3.274-33.914h-19.395v9.21c0,3.205-2.607,5.813-5.813,5.813    s-5.813-2.607-5.813-5.813v-9.21H272.964z M273.043,26.478h4.303c0.829,0,1.5,0.671,1.5,1.5v10.71    c0,1.551,1.262,2.813,2.813,2.813s2.813-1.262,2.813-2.813v-10.71c0-0.829,0.671-1.5,1.5-1.5h20.541    c-0.479-1.199-1.609-2.086-2.958-2.194c-0.399-0.032-0.769-0.222-1.027-0.528c-0.242-0.287-0.367-0.654-0.352-1.027    c-0.023-1.904-1.579-3.445-3.488-3.445c-1.406,0-2.357,0.497-2.91,1.52c-0.314,0.584-0.979,0.894-1.626,0.756    c-0.65-0.135-1.133-0.682-1.188-1.343c-0.249-2.962-2.775-5.283-5.752-5.283c-2.766,0-5.135,1.953-5.664,4.654    c-0.033,0.248-0.128,0.491-0.287,0.704c-0.417,0.557-1.165,0.754-1.802,0.477c-0.192-0.084-0.359-0.204-0.496-0.35    c-0.645-0.592-1.479-0.917-2.358-0.917c-1.924,0-3.489,1.565-3.489,3.489L273.043,26.478z"></path></g></g><g><line fill="none" stroke="#000000" stroke-width="2.8544" stroke-miterlimit="10" x1="290.919" y1="192.906" x2="290.919" y2="206.407"></line><g><path d="M302.336,209.407c0.542,0,0.887,0.288,1.045,0.46c0.157,0.171,0.414,0.541,0.366,1.092    c-0.06,0.694-0.811,1.281-1.64,1.281h-11.188h-11.417c-0.542,0-0.887-0.288-1.045-0.46c-0.157-0.171-0.414-0.541-0.366-1.092    c0.06-0.694,0.811-1.281,1.64-1.281h11.188H302.336 M302.336,206.407h-11.417h-11.188c-2.329,0-4.427,1.701-4.628,4.021    c-0.228,2.617,1.83,4.812,4.399,4.812h11.417h11.188c2.329,0,4.427-1.701,4.628-4.021    C306.963,208.601,304.906,206.407,302.336,206.407L302.336,206.407z"></path></g><path fill="none" stroke="#000000" stroke-width="2.9614" stroke-linejoin="round" stroke-miterlimit="10" d="M304.381,142.322   l-0.077-3.746c0-2.069-1.677-3.746-3.746-3.746c-1.007,0-1.921,0.397-2.594,1.044l0.002,0.003   c-0.464-2.546-2.692-4.476-5.371-4.476c-2.86,0-5.206,2.199-5.441,4.998c-0.633-1.172-1.75-1.732-3.175-1.732   c-2.069,0-3.746,1.677-3.746,3.746l0.001,0.012c-1.927,0.154-3.443,1.767-3.443,3.734"></path><path fill="none" stroke="#000000" stroke-width="3" stroke-linejoin="round" stroke-miterlimit="10" d="M287.23,142.322v11.375   c0,1.795-1.455,3.25-3.25,3.25s-3.25-1.455-3.25-3.25c0,0,0-11.375,0-11.375h-4.068c0,0-9.143,22.313,1.475,41.998   c2.475,4.589,7.047,7.724,12.227,8.311c0.073,0.008,0.147,0.016,0.221,0.024c0.074-0.008,0.148-0.016,0.221-0.024   c5.18-0.588,9.752-3.723,12.227-8.311c10.618-19.685,1.475-41.998,1.475-41.998h-13.923H287.23z"></path></g><g><line fill="none" stroke="#000000" stroke-width="3" stroke-miterlimit="10" x1="401.425" y1="192.892" x2="401.425" y2="202.054"></line><g><path d="M390.529,202.054v3l10.896,0h11.119c0.498,0,0.815,0.265,0.96,0.423c0.144,0.157,0.38,0.497,0.336,1.004    c-0.055,0.638-0.751,1.176-1.519,1.176l-10.896,0h-11.119c-0.498,0-0.815-0.265-0.96-0.423c-0.144-0.157-0.38-0.497-0.336-1.004    c0.055-0.638,0.751-1.176,1.519-1.176V202.054 M390.529,202.054c-2.269,0-4.311,1.656-4.508,3.916    c-0.222,2.549,1.782,4.686,4.285,4.686h11.119l10.896,0c2.269,0,4.311-1.656,4.508-3.916c0.222-2.549-1.782-4.686-4.285-4.686    h-11.119L390.529,202.054L390.529,202.054z"></path></g><path fill="none" stroke="#000000" stroke-width="3" stroke-linejoin="round" stroke-miterlimit="10" d="M383.628,136.611   l0.1-4.859c0-2.683,2.164-4.859,4.832-4.859c1.299,0,2.479,0.516,3.347,1.354l-0.003,0.004c0.598-3.302,3.473-5.806,6.93-5.806   c3.69,0,6.717,2.852,7.019,6.484c0.816-1.521,2.257-2.247,4.097-2.247c2.669,0,4.832,2.175,4.832,4.859l-0.001,0.016   c2.486,0.2,4.441,2.292,4.441,4.843"></path><path fill="none" stroke="#000000" stroke-width="3" stroke-linejoin="round" stroke-miterlimit="10" d="M401.363,192.892   c-8.747,0-15.837-7.09-15.837-15.837c0-4.649,2.003-8.831,5.194-11.728h-0.032c0.609-6.939-7.061-29.096-7.061-29.096h8.272   c0,0,0,5.978,0,5.978c0,2.071,1.679,3.75,3.75,3.75c2.071,0,3.75-1.679,3.75-3.75v-5.978h2.026h17.797   c0,0-7.67,22.157-7.061,29.096h-0.032c3.191,2.897,5.194,7.079,5.194,11.728c0,8.747-7.09,15.837-15.837,15.837"></path></g><g><g><path d="M540.707-150.683h-36.831c-0.829,0-1.5-0.671-1.5-1.5v-69.143c0-0.829,0.671-1.5,1.5-1.5h36.831    c0.829,0,1.5,0.671,1.5,1.5v8.334h10.382c3.076,0,5.578,2.502,5.578,5.578v38.673c0,3.076-2.502,5.578-5.578,5.578h-10.382v10.979    C542.207-151.354,541.535-150.683,540.707-150.683z M505.375-153.683h33.831v-1.496h-33.831V-153.683z M505.375-158.178h33.831    v-61.647h-33.831V-158.178z M542.207-166.162h10.382c1.421,0,2.578-1.157,2.578-2.578v-38.673c0-1.421-1.157-2.578-2.578-2.578    h-10.382v3.622h7.401c0.829,0,1.5,0.671,1.5,1.5v32.145c0,0.829-0.671,1.5-1.5,1.5h-7.401V-166.162z M542.207-174.225h5.901    v-29.145h-5.901V-174.225z"></path></g></g><g><polygon fill="none" stroke="#000000" stroke-width="3" stroke-linejoin="round" stroke-miterlimit="10" points="539.791,29.639    505.403,29.639 505.403,94.194 539.791,94.194 539.791,45.576  "></polygon><polyline fill="none" stroke="#000000" stroke-width="3" stroke-linejoin="round" stroke-miterlimit="10" points="539.791,75.015    548.101,75.015 548.101,45.003 539.791,45.003  "></polyline><path fill="none" stroke="#000000" stroke-width="3" stroke-linejoin="round" stroke-miterlimit="10" d="M539.791,82.543h11.094   c2.103,0,3.807-1.705,3.807-3.807V42.629c0-2.103-1.705-3.807-3.807-3.807h-11.094"></path><line fill="none" stroke="#000000" stroke-width="3" stroke-linejoin="round" stroke-miterlimit="10" x1="505.403" y1="89.997" x2="539.791" y2="89.997"></line><path fill="none" stroke="#000000" stroke-width="3" stroke-linejoin="round" stroke-miterlimit="10" d="M506.283,29.695   c-1.042-0.775-1.717-2.016-1.717-3.415c0-1.821,1.144-3.374,2.752-3.982l0.008,0c-0.005-0.084-0.007-0.168-0.007-0.253   c0-2.35,1.905-4.254,4.254-4.254c1.065,0,2.038,0.391,2.784,1.037l-0.005,0c0.115-3.551,3.03-6.395,6.609-6.395   c3.066,0,5.645,2.087,6.393,4.918c0.733-0.281,1.53-0.435,2.363-0.435c3.258,0,5.966,2.357,6.512,5.459   c2.145,0.218,3.732,2.052,3.732,4.255c0,0.987,0.006,1.895-0.558,2.617"></path></g><g><path fill="none" stroke="#000000" stroke-width="3" stroke-linejoin="round" stroke-miterlimit="10" d="M664.792,49.559   c0,0,10.421-1.667,8.421,8.5s-0.78,14.224-10.223,17.945"></path><path fill="none" stroke="#000000" stroke-width="3" stroke-linejoin="round" stroke-miterlimit="10" d="M664.026,42.395   c0,0,17.354-1.17,16.187,14.664c-1.167,15.833-6.745,21-6.745,21s-5.483,5.575-12.369,4.204"></path><line fill="none" stroke="#000000" stroke-width="3" stroke-linejoin="round" stroke-miterlimit="10" x1="625.861" y1="88.344" x2="657.211" y2="88.344"></line><path fill="none" stroke="#000000" stroke-width="3" stroke-linejoin="round" stroke-miterlimit="10" d="M621.122,36.893   c-1.295-0.964-2.134-2.507-2.134-4.245c0-2.264,1.422-4.195,3.421-4.95l0.01,0c-0.006-0.104-0.009-0.209-0.009-0.314   c0-2.921,2.368-5.289,5.289-5.289c1.324,0,2.534,0.486,3.461,1.29l-0.006,0c0.142-4.415,3.766-7.95,8.216-7.95   c3.812,0,7.017,2.594,7.948,6.114c0.912-0.35,1.902-0.541,2.938-0.541c4.051,0,7.417,2.93,8.096,6.786   c2.667,0.271,4.639,2.551,4.639,5.29c0,1.227,0.007,2.356-0.694,3.254"></path><path fill="none" stroke="#000000" stroke-width="3" stroke-linejoin="round" stroke-miterlimit="10" d="M647.871,36.893v11.282   c0,2.606,2.112,4.718,4.718,4.718s4.718-2.112,4.718-4.718l0-11.282h5.761c0,0,7.813,34.167-7.354,55.833h-13.667H628.38   c-15.167-21.667-7.354-55.833-7.354-55.833h21.021H647.871z"></path></g><g><path fill="none" stroke="#000000" stroke-width="3" stroke-linejoin="round" stroke-miterlimit="10" d="M763.547,92.87h18.466   c0.681,0,1.367-0.076,2.007-0.309c4.19-1.524,1.602-5.866-0.062-8.058c-0.691-0.91-1.078-2.015-1.078-3.157V34.703h-19.333h-19.333   v46.642c0,1.143-0.387,2.247-1.078,3.157c-1.664,2.192-4.252,6.534-0.062,8.058c0.64,0.233,1.326,0.309,2.007,0.309H763.547z"></path><polyline fill="none" stroke="#000000" stroke-width="3" stroke-linejoin="round" stroke-miterlimit="10" points="782.88,47.203    791.88,47.203 791.88,76.703 782.88,76.703  "></polyline><path fill="none" stroke="#000000" stroke-width="3" stroke-linejoin="round" stroke-miterlimit="10" d="M782.88,39.537h13.417   c1.887,0,3.417,1.53,3.417,3.417V80.62c0,1.887-1.53,3.417-3.417,3.417h-13.028"></path><line fill="none" stroke="#000000" stroke-width="3" stroke-linejoin="round" stroke-miterlimit="10" x1="744.579" y1="84.037" x2="783.301" y2="84.037"></line><path fill="none" stroke="#000000" stroke-width="3" stroke-linejoin="round" stroke-miterlimit="10" d="M744.231,34.703   c-1.229-0.915-2.025-2.379-2.025-4.029c0-2.148,1.349-3.981,3.247-4.697l0.009,0c-0.006-0.099-0.009-0.198-0.009-0.298   c0-2.772,2.247-5.019,5.019-5.019c1.256,0,2.404,0.461,3.285,1.224l-0.006,0c0.135-4.189,3.574-7.544,7.796-7.544   c3.617,0,6.659,2.462,7.542,5.801c0.865-0.332,1.805-0.514,2.788-0.514c3.844,0,7.038,2.78,7.682,6.44   c2.531,0.257,4.402,2.421,4.402,5.02c0,1.165,0.007,2.236-0.659,3.088"></path></g><g><path fill="none" stroke="#000000" stroke-width="3" stroke-linejoin="round" stroke-miterlimit="10" d="M884.418,24.565   c-0.89-0.662-1.466-1.723-1.466-2.917c0-1.555,0.977-2.883,2.351-3.401l0.007,0c-0.004-0.071-0.006-0.144-0.006-0.216   c0-2.007,1.627-3.634,3.634-3.634c0.91,0,1.741,0.334,2.378,0.886l-0.004,0c0.098-3.034,2.588-5.463,5.645-5.463   c2.619,0,4.822,1.783,5.461,4.201c0.627-0.24,1.307-0.372,2.018-0.372c2.784,0,5.097,2.013,5.563,4.663   c1.833,0.186,3.188,1.753,3.188,3.635c0,0.843,0.005,1.619-0.477,2.236"></path><path fill="none" stroke="#000000" stroke-width="3" stroke-linejoin="round" stroke-miterlimit="10" d="M901.604,24.44v6.601   c0,1.752,1.421,3.173,3.173,3.173s3.173-1.421,3.173-3.173V24.44h5.099v8.721l-1.89,2.18l1.89,2.441   c0,7.819-2.035,13.692-2.471,17.181s-3.052,5.087-3.198,12.64c-0.145,7.553,0.872,2.622,3.343,13.523   c1.789,7.891-1.068,10.527-2.783,11.381c-0.531,0.265-1.117,0.392-1.711,0.392h-5.681l-3.667-1.402   c-0.827-0.316-1.735-0.352-2.584-0.101l-3.626,1.071c-0.968,0.286-1.972,0.431-2.982,0.431h-9.816c-2.08,0-4.05-1.08-5.048-2.905   c-0.628-1.15-1.067-2.679-0.911-4.655c0.308-3.905,6.786-7.118,10.56-8.667c2.338-0.96,4.138-2.936,4.785-5.379   c0.693-2.616,0.981-6.46-0.374-11.679c-2.907-11.192-3.198-22.82-3.198-22.82l1.308-1.453l-1.308-1.456V24.44h15.813H901.604z"></path></g><g><path fill="none" stroke="#000000" stroke-width="3" stroke-miterlimit="10" d="M289.549,575.008   c-0.001,7.335-0.003,12.263-0.007,12.259l18.75-0.001c0,0,13.083-12.166,13.083-37.999c0-25.36-13.083-37.167-13.083-37.167h-18.75   l-0.012-0.021h-18.75c0,0-13.083,11.807-13.083,37.167c0,25.833,13.083,37.999,13.083,37.999l18.75,0.001"></path><path fill="none" stroke="#000000" stroke-width="3" stroke-miterlimit="10" d="M289.545,530.95   c0.002,11.202,0.004,25.387,0.004,36.718"></path><path fill="none" stroke="#000000" stroke-width="3" stroke-miterlimit="10" d="M289.542,512.101c0,0,0.001,4.594,0.002,11.51"></path><path fill="none" stroke="#000000" stroke-width="3" stroke-miterlimit="10" d="M303.442,575.007   c-0.905,3.935-2.027,8.025-3.4,12.26"></path><path fill="none" stroke="#000000" stroke-width="3" stroke-miterlimit="10" d="M305.456,530.95   c1.475,9.27,2.044,21.702-0.538,36.719"></path><path fill="none" stroke="#000000" stroke-width="3" stroke-miterlimit="10" d="M300.042,512.101c0,0,2.095,4.038,3.936,11.51"></path><path fill="none" stroke="#000000" stroke-width="3" stroke-miterlimit="10" d="M275.004,575.296   c0.893,3.846,1.994,7.84,3.334,11.971"></path><path fill="none" stroke="#000000" stroke-width="3" stroke-miterlimit="10" d="M272.923,530.949   c-1.512,9.503-2.072,22.331,0.739,37.859"></path><path fill="none" stroke="#000000" stroke-width="3" stroke-miterlimit="10" d="M278.337,512.101c0,0-2.095,4.038-3.936,11.51"></path><line fill="none" stroke="#000000" stroke-width="3" stroke-linecap="round" stroke-linejoin="round" stroke-miterlimit="10" x1="316.05" y1="523.611" x2="263.012" y2="523.611"></line><line fill="none" stroke="#000000" stroke-width="3" stroke-linecap="round" stroke-linejoin="round" stroke-miterlimit="10" x1="318.823" y1="530.95" x2="260.421" y2="530.95"></line><line fill="none" stroke="#000000" stroke-width="3" stroke-linecap="round" stroke-linejoin="round" stroke-miterlimit="10" x1="316.05" y1="575.007" x2="263.012" y2="575.007"></line><line fill="none" stroke="#000000" stroke-width="3" stroke-linecap="round" stroke-linejoin="round" stroke-miterlimit="10" x1="273.663" y1="567.668" x2="260.421" y2="567.668"></line><line fill="none" stroke="#000000" stroke-width="3" stroke-linecap="round" stroke-linejoin="round" stroke-miterlimit="10" x1="318.823" y1="567.668" x2="273.663" y2="567.668"></line></g><g><path fill="none" stroke="#000000" stroke-width="3" stroke-linejoin="round" stroke-miterlimit="10" d="M910.253,283.955   c0.714-3.487,1.413-7.724,1.413-12.629l-2.167-2.799l2.167-2.5v-10h-33.667v10.831l1.5,1.669l-1.5,1.667   c0,0,0.16,6.383,1.362,14.567"></path><path fill="none" stroke="#000000" stroke-width="3" stroke-linejoin="round" stroke-miterlimit="10" d="M881.665,296.36   c1.554,5.984,1.224,10.392,0.429,13.391c-0.743,2.801-2.806,5.068-5.487,6.168c-4.327,1.776-11.755,5.46-12.109,9.938   c-0.179,2.266,0.324,4.02,1.045,5.338c1.144,2.093,3.402,3.331,5.788,3.331h11.255c1.158,0,2.309-0.167,3.419-0.495l4.158-1.229   c0.974-0.288,2.015-0.247,2.963,0.115l4.205,1.608h6.514c0.681,0,1.352-0.146,1.961-0.45c1.966-0.979,5.242-4.002,3.191-13.05   c-2.833-12.5-4-6.846-3.833-15.506c0.104-5.389,1.305-8.135,2.318-10.404"></path><polyline fill="none" stroke="#000000" stroke-width="3.1718" stroke-linejoin="round" stroke-miterlimit="10" points="   911.109,275.976 918.809,273.468 915.051,280.141 923.207,283.439 912.811,287.14  "></polyline><polyline fill="none" stroke="#000000" stroke-width="3.1718" stroke-linejoin="round" stroke-miterlimit="10" points="   874.535,291.146 864.317,294.747 872.862,297.775 869.632,305.099 883.415,300.171  "></polyline><path fill="none" stroke="#000000" stroke-width="3.1718" stroke-linejoin="round" stroke-miterlimit="10" d="M907.79,294.25   c1.817,0.414,2.795,0.91,2.795,0.91l3.114-11.221c0,0-8.254-3.503-21.67,0.426c-13.415,3.928-19.977-1.115-19.977-1.115   l3.493,11.109c0,0,2.248,2.056,6.799,2.539"></path><path fill="none" stroke="#000000" stroke-width="3.1718" stroke-linejoin="round" stroke-miterlimit="10" d="M882.344,296.898   c2.589,0.275,5.923,0.041,10.011-1.37c7.047-2.433,12.407-1.968,15.435-1.277"></path></g><g><path fill="none" stroke="#000000" stroke-width="3" stroke-linecap="round" stroke-linejoin="round" stroke-miterlimit="10" d="   M212.336,386.854h-85.104v16.625l4.156,4.156l-4.552,4.552v11.479l6.729,3.563l-6.729,3.958v14.25h10.397   c2.183,0,4.307,0.667,6.1,1.912c5.222,3.628,17.143,11.15,26.197,11.15c9.095,0,20.918-6.901,26.025-10.181   c1.724-1.108,3.723-1.694,5.773-1.694h11.009v-18.604l-4.75-5.344l4.75-3.76V386.854z"></path><line fill="none" stroke="#000000" stroke-width="3" stroke-linecap="round" stroke-linejoin="round" stroke-miterlimit="10" x1="126.836" y1="375.375" x2="212.336" y2="375.375"></line><line fill="none" stroke="#000000" stroke-width="3" stroke-linecap="round" stroke-linejoin="round" stroke-miterlimit="10" x1="199.471" y1="393.792" x2="199.471" y2="370.833"></line><line fill="none" stroke="#000000" stroke-width="3" stroke-linecap="round" stroke-linejoin="round" stroke-miterlimit="10" x1="141.753" y1="393.792" x2="141.753" y2="370.833"></line><path fill="none" stroke="#000000" stroke-width="3" stroke-linejoin="round" stroke-miterlimit="10" d="M170.964,411.377h-8.814   h-2.267v27.211c0,0.964,0.781,1.745,1.745,1.745h7.891h7.891c0.964,0,1.745-0.781,1.745-1.745v-27.211h-3.992v3.923   c0,1.16-0.94,2.1-2.1,2.1c-1.16,0-2.1-0.94-2.1-2.1L170.964,411.377z"></path><path fill="none" stroke="#000000" stroke-width="3" stroke-linejoin="round" stroke-miterlimit="10" d="M179.156,416.777h4.563   c0.964,0,1.745,0.781,1.745,1.745v10.036c0,0.964-0.781,1.745-1.745,1.745h-4.563"></path><path fill="none" stroke="#000000" stroke-width="3" stroke-linejoin="round" stroke-miterlimit="10" d="M159.882,411.377   c-1.265,0-2.291-1.026-2.291-2.291c0-1.265,1.026-2.291,2.291-2.291c0.102,0,0.207,0.035,0.305,0.048   c-0.033-0.162-0.051-0.33-0.051-0.502c0-1.376,1.094-2.415,2.491-2.491c0.135-0.007,1.177-0.172,2.316,0.877   c0.099-2.128,2.036-2.953,4.188-2.953c1.718,0,3.184,1.08,3.756,2.598l0,0.001c0.453-0.201,0.955-0.313,1.484-0.313   c2.021,0,4.785,1.386,4.814,5.041c0.002,0.295,0.037,2.003-0.029,2.277"></path><line fill="none" stroke="#000000" stroke-width="3" stroke-linecap="round" stroke-linejoin="round" stroke-miterlimit="10" x1="169.88" y1="421.507" x2="169.88" y2="430.463"></line><line fill="none" stroke="#000000" stroke-width="3" stroke-linecap="round" stroke-linejoin="round" stroke-miterlimit="10" x1="165.384" y1="421.507" x2="165.384" y2="430.463"></line><line fill="none" stroke="#000000" stroke-width="3" stroke-linecap="round" stroke-linejoin="round" stroke-miterlimit="10" x1="174.376" y1="421.507" x2="174.376" y2="430.463"></line><line fill="none" stroke="#000000" stroke-width="3" stroke-linejoin="round" stroke-miterlimit="10" x1="159.882" y1="436.221" x2="179.156" y2="436.221"></line><line fill="none" stroke="#000000" stroke-width="3" stroke-linecap="round" stroke-linejoin="round" stroke-miterlimit="10" x1="133.565" y1="427.229" x2="141.753" y2="427.229"></line><line fill="none" stroke="#000000" stroke-width="3" stroke-linecap="round" stroke-linejoin="round" stroke-miterlimit="10" x1="131.388" y1="407.635" x2="134.753" y2="407.635"></line><line fill="none" stroke="#000000" stroke-width="3" stroke-linecap="round" stroke-linejoin="round" stroke-miterlimit="10" x1="147.503" y1="427.229" x2="150.003" y2="427.229"></line><line fill="none" stroke="#000000" stroke-width="3" stroke-linecap="round" stroke-linejoin="round" stroke-miterlimit="10" x1="207.503" y1="422.677" x2="203.753" y2="422.677"></line><line fill="none" stroke="#000000" stroke-width="3" stroke-linecap="round" stroke-linejoin="round" stroke-miterlimit="10" x1="205.487" y1="407.083" x2="193.973" y2="407.083"></line></g><g><polygon fill="none" stroke="#000000" stroke-width="3" stroke-linejoin="round" stroke-miterlimit="10" points="770.71,376.964    777.402,373.213 782.607,378.848 790.131,377.349 793.34,384.316 800.958,385.215 801.857,392.834 808.825,396.043    807.325,403.566 812.96,408.771 809.209,415.463 812.96,422.155 807.325,427.36 808.825,434.883 801.857,438.092 800.958,445.71    793.34,446.609 790.131,453.577 782.607,452.077 777.402,457.713 770.71,453.962 764.019,457.713 758.814,452.077 751.29,453.577    748.081,446.609 740.463,445.71 739.564,438.092 732.596,434.883 734.096,427.36 728.46,422.155 732.211,415.463 728.46,408.771    734.096,403.566 732.596,396.043 739.564,392.834 740.463,385.215 748.081,384.316 751.29,377.349 758.814,378.848    764.019,373.213  "></polygon><circle fill="none" stroke="#000000" stroke-width="3" stroke-linejoin="round" stroke-miterlimit="10" cx="770.71" cy="415.463" r="31"></circle></g><g><g><path d="M420.724-26.016H398.12c-1.654,0-3.244-0.7-4.362-1.919c-1.117-1.219-1.675-2.867-1.531-4.522    c0.263-3.023,2.952-5.392,6.123-5.392h9.688v-6.465c-9.125-0.734-16.325-8.394-16.325-17.703c0-4.772,1.937-9.359,5.334-12.689    c0.145-6.07-5.103-22.675-7.201-28.737c-0.159-0.458-0.086-0.965,0.196-1.361c0.281-0.395,0.736-0.63,1.222-0.63h36.548    c0.485,0,0.94,0.235,1.222,0.63c0.282,0.395,0.354,0.902,0.196,1.361c-2.098,6.063-7.346,22.668-7.201,28.737    c3.398,3.331,5.334,7.917,5.334,12.689c0,9.31-7.2,16.969-16.325,17.703v6.465h9.917c1.654,0,3.244,0.7,4.362,1.919    c1.118,1.219,1.676,2.868,1.532,4.523C426.583-28.384,423.894-26.016,420.724-26.016z M398.349-34.849    c-1.628,0-3.005,1.165-3.134,2.651c-0.072,0.832,0.196,1.626,0.754,2.235c0.56,0.61,1.323,0.946,2.151,0.946h22.604    c1.628,0,3.005-1.165,3.134-2.651c0.072-0.832-0.196-1.626-0.754-2.236c-0.56-0.61-1.324-0.946-2.151-0.946H398.349z     M409.473-45.756h0.127v-1.5c8.139,0,14.761-6.622,14.761-14.761c0-4.153-1.765-8.138-4.842-10.932    c-0.374-0.339-0.546-0.836-0.477-1.322c-0.328-6.413,4.792-22.489,6.678-28.164h-32.367c1.895,5.699,7.051,21.892,6.673,28.247    c0.043,0.458-0.12,0.919-0.472,1.238c-3.077,2.794-4.842,6.778-4.842,10.932c0,8.139,6.622,14.761,14.761,14.761V-45.756z     M301.198-26.294h-22.604c-1.654,0-3.244-0.7-4.362-1.919c-1.118-1.219-1.676-2.867-1.532-4.522    c0.263-3.023,2.953-5.392,6.123-5.392h9.688v-11.638c-5.805-0.901-10.891-4.495-13.715-9.731    c-11.768-21.819-2.092-46.015-1.674-47.034c0.231-0.563,0.779-0.931,1.388-0.931h30.336c0.609,0,1.157,0.368,1.388,0.931    c0.417,1.02,10.094,25.215-1.674,47.034c-2.716,5.035-7.524,8.552-13.048,9.615v11.754h9.917c1.654,0,3.244,0.699,4.362,1.919    c1.118,1.219,1.676,2.868,1.532,4.523C307.058-28.663,304.368-26.294,301.198-26.294z M278.823-35.128    c-1.628,0-3.005,1.165-3.135,2.652c-0.072,0.832,0.196,1.625,0.755,2.235c0.56,0.61,1.323,0.947,2.15,0.947h22.604    c1.628,0,3.005-1.165,3.134-2.651c0.072-0.832-0.196-1.626-0.755-2.236c-0.56-0.61-1.323-0.946-2.15-0.946H278.823z     M275.552-104.462c-1.618,4.594-7.953,25.305,1.883,43.542c2.481,4.599,7.03,7.693,12.169,8.276l0.072,0.007l0.078-0.008    c5.134-0.582,9.683-3.676,12.164-8.275c9.836-18.236,3.501-38.947,1.883-43.542H275.552z M181.761-27.294h-22.604    c-1.654,0-3.244-0.699-4.362-1.919c-1.118-1.219-1.676-2.868-1.532-4.523c0.263-3.023,2.952-5.392,6.123-5.392h9.688v-10.444    h-0.65c-11.46,0-20.784-9.324-20.784-20.784c0-2.911,0.59-5.727,1.754-8.37l1.6-4.455c1.601-4.459,2.413-9.123,2.413-13.86v-3.587    c0-0.829,0.671-1.5,1.5-1.5h30.552c0.829,0,1.5,0.671,1.5,1.5v3.587c0,4.738,0.812,9.401,2.413,13.86l1.6,4.455    c1.164,2.643,1.754,5.459,1.754,8.37c0,11.417-9.252,20.713-20.653,20.783v10.445h9.917c1.654,0,3.244,0.699,4.362,1.919    c1.118,1.219,1.676,2.868,1.532,4.523C187.621-29.663,184.932-27.294,181.761-27.294z M159.386-36.128    c-1.628,0-3.005,1.165-3.134,2.651c-0.072,0.832,0.196,1.626,0.755,2.236c0.56,0.61,1.323,0.946,2.15,0.946h22.604    c1.628,0,3.005-1.165,3.134-2.651c0.072-0.832-0.196-1.626-0.755-2.236c-0.56-0.61-1.323-0.946-2.15-0.946H159.386z     M152.11-77.451c-0.976,2.24-1.471,4.627-1.471,7.095c0,9.806,7.978,17.784,17.784,17.784h3.52    c9.806,0,17.784-7.978,17.784-17.784c0-2.468-0.495-4.855-1.472-7.096c-0.028-0.057-0.054-0.115-0.075-0.175l-1.63-4.54    c-1.719-4.785-2.59-9.79-2.59-14.874v-2.087h-27.552v2.087c0,5.084-0.871,10.089-2.59,14.874l-1.63,4.54    C152.165-77.566,152.139-77.507,152.11-77.451z M61.654-27.294H38.821c-3.263,0-5.917-2.654-5.917-5.917    c0-3.263,2.654-5.917,5.917-5.917h9.917v-11.959c-12.951-0.778-23.25-11.562-23.25-24.705c0-3.829,0.851-7.5,2.529-10.911    l5.77-10.915c0.26-0.491,0.77-0.799,1.326-0.799h30.25c0.556,0,1.066,0.308,1.326,0.799l5.75,10.876    c1.698,3.45,2.549,7.122,2.549,10.95c0,13.143-10.299,23.927-23.25,24.705v11.959h9.917c3.263,0,5.917,2.654,5.917,5.917    C67.571-29.949,64.917-27.294,61.654-27.294z M38.821-36.128c-1.608,0-2.917,1.309-2.917,2.917c0,1.608,1.309,2.917,2.917,2.917    h22.833c1.608,0,2.917-1.309,2.917-2.917c0-1.608-1.309-2.917-2.917-2.917H38.821z M36.016-95.417L30.688-85.34    c-1.454,2.957-2.201,6.182-2.201,9.548c0,11.993,9.757,21.75,21.75,21.75s21.75-9.757,21.75-21.75    c0-3.366-0.747-6.591-2.221-9.587l-5.308-10.038H36.016z"></path></g></g><g><g><path d="M540.51-25.969h-22.604c-1.654,0-3.244-0.7-4.362-1.919c-1.118-1.219-1.676-2.867-1.532-4.523    c0.263-3.023,2.952-5.391,6.123-5.391h9.742l0.245-6.582c-11.494-0.8-20.601-10.407-20.601-22.101v-37.449    c0-0.829,0.671-1.5,1.5-1.5h41.311c0.829,0,1.5,0.671,1.5,1.5v37.448c0,11.731-9.164,21.362-20.708,22.109l-0.245,6.575h9.86    c1.654,0,3.244,0.699,4.362,1.919c1.118,1.219,1.676,2.867,1.532,4.523C546.37-28.337,543.68-25.969,540.51-25.969z     M518.135-34.802c-1.628,0-3.005,1.165-3.134,2.651c-0.073,0.833,0.195,1.626,0.754,2.236c0.56,0.61,1.323,0.946,2.151,0.946    h22.604c1.628,0,3.005-1.165,3.134-2.651c0.072-0.832-0.196-1.626-0.754-2.236c-0.56-0.61-1.324-0.946-2.151-0.946H518.135z     M510.521-102.434v35.949c0,10.562,8.593,19.155,19.155,19.155s19.155-8.593,19.155-19.156v-35.948H510.521z M781.687-27.055    h-22.604c-1.654,0-3.244-0.699-4.362-1.919c-1.117-1.219-1.676-2.867-1.531-4.523c0.262-3.023,2.951-5.391,6.122-5.391h9.688    V-70.74c-1.394-0.125-2.712-0.697-3.76-1.643l-0.431-0.388c-2.108-1.901-3.531-4.376-4.112-7.157l-1.464-7.001    c-0.208-1-0.835-1.867-1.72-2.379l-5.146-2.979c-2.706-1.567-4.68-4.084-5.556-7.086l-2.31-7.921    c-0.132-0.453-0.043-0.942,0.24-1.32c0.283-0.378,0.729-0.6,1.2-0.6h49.276c0.472,0,0.917,0.222,1.2,0.6    c0.283,0.377,0.372,0.867,0.24,1.32l-2.311,7.921c-0.876,3.002-2.85,5.52-5.556,7.086l-5.145,2.979    c-0.885,0.512-1.512,1.379-1.722,2.379l-1.462,7c-0.581,2.779-2.003,5.254-4.112,7.157l-0.432,0.389    c-1.089,0.981-2.468,1.561-3.922,1.654v31.839h9.917c1.654,0,3.244,0.699,4.362,1.919c1.117,1.219,1.676,2.867,1.531,4.523    C787.547-29.423,784.857-27.055,781.687-27.055z M759.311-35.888c-1.628,0-3.005,1.164-3.134,2.65    c-0.072,0.833,0.195,1.627,0.755,2.236c0.559,0.61,1.323,0.946,2.15,0.946h22.604c1.628,0,3.005-1.164,3.134-2.65    c0.072-0.833-0.195-1.627-0.755-2.236c-0.559-0.61-1.323-0.946-2.15-0.946H759.311z M747.941-106.214l1.75,6.001    c0.658,2.258,2.143,4.151,4.179,5.331l5.146,2.979c1.621,0.938,2.771,2.528,3.153,4.362l1.463,7    c0.45,2.153,1.552,4.07,3.185,5.542l0.431,0.388c0.641,0.578,1.47,0.896,2.333,0.896h1.998c0.863,0,1.692-0.318,2.334-0.897    l0.431-0.388c1.633-1.473,2.734-3.39,3.184-5.542l1.463-7c0.385-1.834,1.534-3.424,3.155-4.362l5.144-2.979    c2.036-1.179,3.521-3.072,4.179-5.331l1.751-6.001H747.941z M663.297-27.634h-26.666v-3h11.833v-36.94l-24.633-28.403    c-0.385-0.444-0.476-1.071-0.231-1.606c0.243-0.534,0.777-0.877,1.364-0.877h50.438c0.587,0,1.121,0.343,1.364,0.877    c0.244,0.535,0.153,1.162-0.231,1.606l-25,28.826c-0.022,0.026-0.046,0.051-0.07,0.076v36.441h11.833V-27.634z M628.25-95.46    l21.933,25.289l21.933-25.289H628.25z M901.548-28.21h-19.92v-3h8.46v-24.944c-5.273-0.508-9.41-4.964-9.41-10.369v-50.583    c0-0.829,0.672-1.5,1.5-1.5h17.834c0.828,0,1.5,0.671,1.5,1.5v50.583c0,5.063-3.63,9.293-8.424,10.226v25.087h8.46V-28.21z     M883.678-115.606v49.083c0,4.09,3.327,7.417,7.417,7.417s7.417-3.328,7.417-7.417v-49.083H883.678z"></path></g></g><g><g><g><path fill="none" stroke="#000000" stroke-width="3" stroke-linejoin="round" stroke-miterlimit="10" d="M61.704-218.747h8.403     l-3.288,66.121H50.286H33.752l-3.288-66.121h19.822h2.983H61.704z M67.045-157.155H33.527"></path></g></g></g><g><g><path d="M183.928-151.127h-28.502c-1.7,0-3.126-1.328-3.247-3.024l-3.072-43.028c-0.004-0.061-0.045-0.133-0.113-0.196    c-4.866-4.584-4.009-10.337-1.584-14.193c0.028-0.044,0.038-0.096,0.031-0.155l-1.615-12.92c-0.054-0.427,0.079-0.856,0.364-1.179    s0.694-0.507,1.125-0.507h44.727c0.43,0,0.84,0.185,1.125,0.507s0.417,0.752,0.364,1.179l-1.615,12.92    c-0.007,0.059,0.003,0.111,0.031,0.155c2.425,3.854,3.283,9.607-1.583,14.192c-0.068,0.064-0.109,0.136-0.114,0.198l-3.072,43.028    C187.054-152.455,185.628-151.127,183.928-151.127z M155.001-156.745l0.169,2.38c0.01,0.133,0.122,0.237,0.255,0.237h28.502    c0.133,0,0.245-0.104,0.254-0.237l0.17-2.381H155.001z M154.787-159.745h29.779l2.688-37.648c0.059-0.816,0.431-1.585,1.049-2.167    c4.335-4.085,2.214-8.642,1.101-10.411c-0.395-0.628-0.561-1.382-0.468-2.125l1.404-11.234h-41.328l1.404,11.234    c0.093,0.743-0.073,1.497-0.467,2.124c-1.113,1.77-3.234,6.328,1.101,10.412c0.617,0.581,0.99,1.35,1.048,2.166L154.787-159.745z"></path></g></g><g><g><path d="M302.724-151.69h-25.617c-1.253,0-2.436-0.548-3.244-1.504c-0.808-0.955-1.151-2.211-0.943-3.446    c0.104-0.618,0.219-1.337,0.336-2.138v-0.945h0.134c0.912-6.657,1.771-17.776-1.269-24.616c-4.968-11.179-3.84-38.821-3.79-39.992    c0.035-0.803,0.695-1.436,1.499-1.436h40.172c0.803,0,1.464,0.633,1.499,1.436c0.05,1.171,1.178,28.813-3.79,39.992    c-3.04,6.84-2.181,17.959-1.269,24.616h0.072v0.519c0.138,0.973,0.275,1.837,0.398,2.564c0.208,1.235-0.135,2.491-0.943,3.445    C305.16-152.239,303.978-151.69,302.724-151.69z M275.974-156.723c-0.032,0.198-0.064,0.392-0.097,0.582    c-0.083,0.496,0.137,0.845,0.276,1.01s0.448,0.441,0.953,0.441h25.617c0.505,0,0.814-0.276,0.954-0.441s0.359-0.514,0.276-1.01    c-0.032-0.19-0.064-0.384-0.097-0.582H275.974z M276.421-159.723h26.989c-1.026-7.621-1.662-18.587,1.559-25.835    c4.069-9.156,3.745-31.35,3.582-37.208h-37.27c-0.163,5.859-0.486,28.056,3.582,37.208    C278.083-178.311,277.447-167.345,276.421-159.723z"></path></g></g><g><g><path d="M418.198-152.182h-17.326c-1.101,0-2.14-0.155-3.089-0.462c-0.111-0.036-0.22-0.073-0.326-0.113    c-1.301-0.486-2.992-2.033-3.704-4.047c-0.638-1.807-0.419-3.703,0.633-5.483l0.057-0.089c3.29-4.763,4.963-9.459,5.223-10.222    c0.16-1.142,1.417-11.656-4.69-22.434c-7.032-12.412-2.448-28.488-2.25-29.166l0.315-1.079h32.986l0.315,1.079    c0.199,0.678,4.782,16.754-2.25,29.166c-6.128,10.817-4.854,21.285-4.69,22.432c0.258,0.758,1.931,5.458,5.224,10.223l0.057,0.089    c1.053,1.78,1.271,3.676,0.633,5.483c-0.712,2.015-2.402,3.561-3.704,4.047c-0.106,0.04-0.215,0.077-0.327,0.113    C420.338-152.337,419.299-152.182,418.198-152.182z M396.868-157.184c0.519,0.903,1.321,1.499,1.638,1.617l0.198,0.068    c0.651,0.21,1.38,0.317,2.168,0.317h17.326c0.788,0,1.517-0.106,2.167-0.316l0.198-0.069c0.317-0.118,1.12-0.714,1.638-1.617    H396.868z M396.676-160.184h25.718c-0.074-0.176-0.164-0.354-0.267-0.533c-3.818-5.543-5.543-10.847-5.615-11.07l-0.051-0.208    c-0.083-0.492-1.96-12.19,5.022-24.515c5.416-9.56,3.115-22.059,2.253-25.766h-28.403c-0.862,3.707-3.163,16.207,2.253,25.766    c6.983,12.325,5.106,24.023,5.022,24.515l-0.051,0.208c-0.072,0.224-1.796,5.527-5.615,11.07    C396.84-160.538,396.75-160.36,396.676-160.184z"></path></g></g><g><g><path d="M656.7-151.158h-27.333c-0.489,0-0.948-0.239-1.229-0.64c-15.372-21.959-7.913-55.606-7.588-57.028    c0.155-0.682,0.763-1.166,1.462-1.166h42.042c0.699,0,1.307,0.483,1.462,1.166c0.065,0.283,0.411,1.839,0.805,4.322    c2.71,0.061,8.704,0.678,12.688,4.687c2.806,2.824,4.047,6.728,3.688,11.603c-1.197,16.235-6.977,21.763-7.222,21.99    c-0.186,0.191-5.438,5.434-12.399,4.763c-1.332,3.366-3.021,6.627-5.146,9.663C657.648-151.396,657.189-151.158,656.7-151.158z     M630.157-154.158h25.753c12.512-18.66,8.066-46.792,6.918-52.833h-39.589C622.091-200.949,617.646-172.817,630.157-154.158z     M664.143-164.405c5.202,0.12,9.199-3.925,9.243-3.971c0.093-0.089,5.221-5.165,6.318-20.059c0.293-3.97-0.657-7.088-2.823-9.268    c-3.009-3.028-7.675-3.667-10.13-3.783c0.157,1.233,0.31,2.596,0.439,4.061c1.838-0.022,4.85,0.319,6.84,2.382    c1.773,1.837,2.325,4.531,1.642,8.007c-0.342,1.739-0.593,3.323-0.813,4.721c-1.047,6.617-1.692,10.691-9.576,14.022    C664.947-166.99,664.568-165.693,664.143-164.405z M667.416-194.423c0.394,6.458,0.289,14.413-1.293,22.426    c4.44-2.374,4.864-5.051,5.771-10.786c0.226-1.424,0.481-3.038,0.834-4.831c0.483-2.457,0.195-4.255-0.856-5.345    C670.7-194.173,668.742-194.416,667.416-194.423z"></path></g></g><g><line fill="none" stroke="#000000" stroke-width="3" stroke-linejoin="round" stroke-miterlimit="10" x1="744.111" y1="-162.149" x2="782.833" y2="-162.149"></line><g><path d="M781.577-151.069h-36.932c-0.957,0-1.781-0.131-2.521-0.399c-2.033-0.74-2.795-2.032-3.075-2.986    c-0.729-2.475,0.934-5.384,2.456-7.389c0.498-0.657,0.772-1.456,0.772-2.25v-46.642c0-0.829,0.672-1.5,1.5-1.5h38.666    c0.828,0,1.5,0.671,1.5,1.5v3.333h11.917c2.711,0,4.917,2.206,4.917,4.917v37.667c0,2.711-2.206,4.917-4.917,4.917h-9.846    c0.986,1.715,1.674,3.691,1.157,5.447c-0.281,0.954-1.043,2.247-3.076,2.986C783.358-151.2,782.534-151.069,781.577-151.069z     M745.278-209.236v45.142c0,1.445-0.491,2.888-1.383,4.064c-1.493,1.967-2.247,3.778-1.968,4.728    c0.046,0.158,0.188,0.637,1.223,1.014c0.405,0.147,0.894,0.219,1.495,0.219h36.932c0.602,0,1.09-0.071,1.493-0.219    c1.037-0.377,1.178-0.856,1.225-1.014c0.279-0.95-0.475-2.761-1.967-4.727c-0.893-1.176-1.384-2.62-1.384-4.064v-45.142H745.278z     M784.149-162.902h11.712c1.057,0,1.917-0.86,1.917-1.917v-37.667c0-1.057-0.86-1.917-1.917-1.917h-11.917v4.667h7.5    c0.828,0,1.5,0.671,1.5,1.5v29.5c0,0.829-0.672,1.5-1.5,1.5h-7.5v3.142C783.944-163.691,784.015-163.288,784.149-162.902z     M783.944-170.236h6v-26.5h-6V-170.236z"></path></g></g><g><g><path d="M905.174-150.267h-5.687c-0.184,0-0.364-0.034-0.536-0.099l-3.671-1.404c-0.517-0.197-1.096-0.22-1.626-0.063    l-3.631,1.073c-1.107,0.327-2.255,0.493-3.409,0.493h-9.826c-2.686,0-5.126-1.414-6.369-3.689    c-0.884-1.619-1.251-3.469-1.091-5.498c0.353-4.464,6.446-7.873,11.497-9.945c1.931-0.792,3.393-2.431,3.909-4.381    c0.825-3.113,0.699-6.791-0.377-10.929c-2.92-11.242-3.236-22.701-3.249-23.184c-0.009-0.383,0.129-0.756,0.385-1.041l0.407-0.452    l-0.407-0.454c-0.248-0.275-0.385-0.633-0.385-1.003v-9.456c0-0.829,0.672-1.5,1.5-1.5H912c0.828,0,1.5,0.671,1.5,1.5v8.73    c0,0.361-0.13,0.71-0.366,0.982l-1.087,1.253l1.14,1.472c0.203,0.263,0.313,0.585,0.313,0.918c0,5.608-1.021,10.273-1.768,13.681    c-0.318,1.454-0.594,2.709-0.718,3.704c-0.189,1.517-0.713,2.689-1.268,3.931c-0.86,1.928-1.837,4.113-1.922,8.565    c-0.07,3.639,0.106,3.983,0.632,5.005c0.588,1.144,1.477,2.872,2.678,8.171c2,8.821-1.384,11.973-3.579,13.067    C906.833-150.458,906.009-150.267,905.174-150.267z M899.765-153.267h5.409c0.379,0,0.73-0.079,1.044-0.236    c1.407-0.701,3.538-2.896,1.991-9.718c-1.117-4.929-1.901-6.454-2.42-7.463c-0.779-1.515-1.044-2.251-0.964-6.434    c0.098-5.061,1.254-7.65,2.183-9.73c0.501-1.121,0.896-2.006,1.03-3.08c0.142-1.13,0.43-2.448,0.764-3.974    c0.732-3.344,1.638-7.479,1.695-12.53l-1.575-2.035c-0.438-0.565-0.415-1.36,0.053-1.9l1.525-1.759v-6.671h-26.392v7.38    l0.925,1.029c0.513,0.571,0.513,1.436,0,2.006l-0.903,1.003c0.105,2.488,0.667,12.427,3.132,21.915    c1.206,4.645,1.332,8.834,0.373,12.452c-0.757,2.853-2.877,5.241-5.671,6.388c-5.863,2.407-9.469,5.175-9.646,7.406    c-0.113,1.438,0.133,2.724,0.733,3.823c0.717,1.313,2.148,2.127,3.736,2.127h9.826c0.866,0,1.728-0.125,2.56-0.37l3.631-1.073    c1.157-0.341,2.419-0.294,3.547,0.138L899.765-153.267z"></path></g></g><g><path fill="none" stroke="#000000" stroke-width="3" stroke-linecap="round" stroke-linejoin="round" stroke-miterlimit="10" d="   M93.286,387.964H8.182v16.625l4.156,4.156l-4.552,4.552v11.479l6.729,3.563l-6.729,3.958v14.25h10.397   c2.183,0,4.307,0.667,6.1,1.913c5.222,3.628,17.142,11.15,26.197,11.15c9.095,0,20.918-6.901,26.025-10.181   c1.724-1.108,3.723-1.694,5.773-1.694h11.009v-18.604l-4.75-5.344l4.75-3.76V387.964z"></path><line fill="none" stroke="#000000" stroke-width="3" stroke-linecap="round" stroke-linejoin="round" stroke-miterlimit="10" x1="7.786" y1="376.485" x2="93.286" y2="376.485"></line><line fill="none" stroke="#000000" stroke-width="3" stroke-linecap="round" stroke-linejoin="round" stroke-miterlimit="10" x1="80.422" y1="394.902" x2="80.422" y2="371.943"></line><line fill="none" stroke="#000000" stroke-width="3" stroke-linecap="round" stroke-linejoin="round" stroke-miterlimit="10" x1="22.703" y1="394.902" x2="22.703" y2="371.943"></line><line fill="none" stroke="#000000" stroke-width="3" stroke-linecap="round" stroke-linejoin="round" stroke-miterlimit="10" x1="14.515" y1="428.339" x2="22.703" y2="428.339"></line><line fill="none" stroke="#000000" stroke-width="3" stroke-linecap="round" stroke-linejoin="round" stroke-miterlimit="10" x1="12.338" y1="408.745" x2="15.703" y2="408.745"></line><line fill="none" stroke="#000000" stroke-width="3" stroke-linecap="round" stroke-linejoin="round" stroke-miterlimit="10" x1="28.453" y1="428.339" x2="30.953" y2="428.339"></line><line fill="none" stroke="#000000" stroke-width="3" stroke-linecap="round" stroke-linejoin="round" stroke-miterlimit="10" x1="88.453" y1="423.787" x2="84.703" y2="423.787"></line><line fill="none" stroke="#000000" stroke-width="3" stroke-linecap="round" stroke-linejoin="round" stroke-miterlimit="10" x1="86.437" y1="408.193" x2="74.923" y2="408.193"></line></g><g><path fill="none" stroke="#000000" stroke-width="3" stroke-linecap="round" stroke-linejoin="round" stroke-miterlimit="10" d="   M453.406,387.964h-85.104v16.625l4.156,4.156l-4.552,4.552v11.479l6.729,3.563l-6.729,3.958v14.25h10.397   c2.183,0,4.307,0.667,6.1,1.913c5.222,3.628,17.142,11.15,26.197,11.15c9.095,0,20.918-6.901,26.025-10.181   c1.724-1.108,3.723-1.694,5.773-1.694h11.009v-18.604l-4.75-5.344l4.75-3.76V387.964z"></path><line fill="none" stroke="#000000" stroke-width="3" stroke-linecap="round" stroke-linejoin="round" stroke-miterlimit="10" x1="367.906" y1="376.485" x2="453.406" y2="376.485"></line><line fill="none" stroke="#000000" stroke-width="3" stroke-linecap="round" stroke-linejoin="round" stroke-miterlimit="10" x1="440.542" y1="394.902" x2="440.542" y2="371.943"></line><line fill="none" stroke="#000000" stroke-width="3" stroke-linecap="round" stroke-linejoin="round" stroke-miterlimit="10" x1="382.823" y1="394.902" x2="382.823" y2="371.943"></line><line fill="none" stroke="#000000" stroke-width="3" stroke-linecap="round" stroke-linejoin="round" stroke-miterlimit="10" x1="374.636" y1="428.339" x2="382.823" y2="428.339"></line><line fill="none" stroke="#000000" stroke-width="3" stroke-linecap="round" stroke-linejoin="round" stroke-miterlimit="10" x1="372.459" y1="408.745" x2="375.823" y2="408.745"></line><line fill="none" stroke="#000000" stroke-width="3" stroke-linecap="round" stroke-linejoin="round" stroke-miterlimit="10" x1="388.573" y1="428.339" x2="391.073" y2="428.339"></line><line fill="none" stroke="#000000" stroke-width="3" stroke-linecap="round" stroke-linejoin="round" stroke-miterlimit="10" x1="448.573" y1="423.787" x2="444.823" y2="423.787"></line><line fill="none" stroke="#000000" stroke-width="3" stroke-linecap="round" stroke-linejoin="round" stroke-miterlimit="10" x1="446.557" y1="408.193" x2="435.044" y2="408.193"></line><path fill="none" stroke="#000000" stroke-width="3" stroke-linecap="round" stroke-linejoin="round" stroke-miterlimit="10" d="   M396.977,421.423c0,0-1.415,6.376,1.964,8.628c0,0,2.859-0.251,5.397-2.305c1.262-1.022,2.445-2.489,3.158-4.594"></path><path fill="none" stroke="#000000" stroke-width="3" stroke-linecap="round" stroke-linejoin="round" stroke-miterlimit="10" d="   M400.184,429.812c0.307,0.662,0.541,6.435,4.155,7.561c0,0,2.561-0.977,3.158-3.586"></path><path fill="none" stroke="#000000" stroke-width="3" stroke-linecap="round" stroke-linejoin="round" stroke-miterlimit="10" d="   M410.219,405.926c8.528,0,15.442,6.913,15.442,15.442c0,0-7.425,1.081-10.1-4.692c0,0,1.143,5.636-5.342,7.887h-0.022   c-6.485-2.25-5.342-7.887-5.342-7.887c-2.675,5.773-10.1,4.692-10.1,4.692c0-8.528,6.913-15.442,15.442-15.442"></path><path fill="none" stroke="#000000" stroke-width="3" stroke-linecap="round" stroke-linejoin="round" stroke-miterlimit="10" d="   M423.439,421.423c0,0,1.415,6.376-1.964,8.628c0,0-2.859-0.251-5.397-2.305c-1.262-1.022-2.445-2.489-3.158-4.594"></path><path fill="none" stroke="#000000" stroke-width="3" stroke-linecap="round" stroke-linejoin="round" stroke-miterlimit="10" d="   M416.078,427.746c-0.047,5.016-5.858,7.937-5.858,7.937h-0.022c0,0-5.812-2.921-5.858-7.937"></path><path fill="none" stroke="#000000" stroke-width="3" stroke-linecap="round" stroke-linejoin="round" stroke-miterlimit="10" d="   M420.233,429.812c-0.307,0.662-0.541,6.435-4.155,7.561c0,0-2.561-0.977-3.158-3.586"></path><path fill="none" stroke="#000000" stroke-width="3" stroke-linecap="round" stroke-linejoin="round" stroke-miterlimit="10" d="   M414.61,436.463c-0.952,3.595-4.39,5.697-4.39,5.697h-0.022c0,0-3.439-2.102-4.39-5.697"></path><line fill="none" stroke="#000000" stroke-width="3" stroke-linecap="round" stroke-linejoin="round" stroke-miterlimit="10" x1="410.197" y1="405.926" x2="410.197" y2="400.813"></line></g><g><polyline fill="none" stroke="#000000" stroke-width="3" stroke-linejoin="round" stroke-miterlimit="10" points="891.581,429.328    902.348,420.9 902.348,405.624 891.393,395.791 880.438,405.624 880.438,420.9 891.205,429.328  "></polyline><line fill="none" stroke="#000000" stroke-width="3" stroke-linecap="round" stroke-linejoin="round" stroke-miterlimit="10" x1="891.393" y1="433.542" x2="891.393" y2="395.791"></line><polyline fill="none" stroke="#000000" stroke-width="3" stroke-linecap="round" stroke-linejoin="round" stroke-miterlimit="10" points="   881.152,407.292 891.393,412.911 901.082,405.799  "></polyline><polyline fill="none" stroke="#000000" stroke-width="3" stroke-linecap="round" stroke-linejoin="round" stroke-miterlimit="10" points="   881.152,415.189 891.393,420.808 901.082,413.697  "></polyline><polygon fill="none" stroke="#000000" stroke-width="3" stroke-linejoin="round" stroke-miterlimit="10" points="890.676,376.964    897.368,373.213 902.573,378.848 910.096,377.349 913.305,384.316 920.924,385.215 921.822,392.834 928.79,396.043    927.291,403.566 932.926,408.771 929.175,415.463 932.926,422.155 927.291,427.36 928.79,434.883 921.822,438.092 920.924,445.71    913.305,446.609 910.096,453.577 902.573,452.077 897.368,457.713 890.676,453.962 883.984,457.713 878.779,452.077    871.256,453.577 868.047,446.609 860.428,445.71 859.53,438.092 852.562,434.883 854.061,427.36 848.426,422.155 852.177,415.463    848.426,408.771 854.061,403.566 852.562,396.043 859.53,392.834 860.428,385.215 868.047,384.316 871.256,377.349    878.779,378.848 883.984,373.213  "></polygon><circle fill="none" stroke="#000000" stroke-width="3" stroke-linejoin="round" stroke-miterlimit="10" cx="890.676" cy="415.463" r="31"></circle></g><g><polygon fill="none" stroke="#000000" stroke-width="3" stroke-linejoin="round" stroke-miterlimit="10" points="770.676,376.964    777.368,373.213 782.573,378.848 790.096,377.349 793.305,384.316 800.924,385.215 801.822,392.834 808.79,396.043    807.291,403.566 812.926,408.771 809.175,415.463 812.926,422.155 807.291,427.36 808.79,434.883 801.822,438.092 800.924,445.71    793.305,446.609 790.096,453.577 782.573,452.077 777.368,457.713 770.676,453.962 763.984,457.713 758.779,452.077    751.256,453.577 748.047,446.609 740.428,445.71 739.53,438.092 732.562,434.883 734.061,427.36 728.426,422.155 732.177,415.463    728.426,408.771 734.061,403.566 732.562,396.043 739.53,392.834 740.428,385.215 748.047,384.316 751.256,377.349    758.779,378.848 763.984,373.213  "></polygon><circle fill="none" stroke="#000000" stroke-width="3" stroke-linejoin="round" stroke-miterlimit="10" cx="770.676" cy="415.463" r="31"></circle><path fill="none" stroke="#000000" stroke-width="3" stroke-linecap="round" stroke-linejoin="round" stroke-miterlimit="10" d="   M756.478,415.313c0,0-1.522,6.858,2.113,9.282c0,0,3.075-0.27,5.805-2.48c1.358-1.099,2.631-2.678,3.397-4.941"></path><path fill="none" stroke="#000000" stroke-width="3" stroke-linecap="round" stroke-linejoin="round" stroke-miterlimit="10" d="   M759.927,424.336c0.33,0.712,0.582,6.922,4.47,8.134c0,0,2.755-1.051,3.397-3.857"></path><path fill="none" stroke="#000000" stroke-width="3" stroke-linecap="round" stroke-linejoin="round" stroke-miterlimit="10" d="   M770.723,398.643c9.174,0,16.611,7.437,16.611,16.611c0,0-7.987,1.163-10.864-5.047c0,0,1.229,6.063-5.746,8.484h-0.024   c-6.975-2.421-5.746-8.484-5.746-8.484c-2.878,6.209-10.864,5.047-10.864,5.047c0-9.174,7.437-16.611,16.611-16.611"></path><path fill="none" stroke="#000000" stroke-width="3" stroke-linecap="round" stroke-linejoin="round" stroke-miterlimit="10" d="   M784.943,415.313c0,0,1.522,6.858-2.113,9.282c0,0-3.075-0.27-5.805-2.48c-1.358-1.099-2.63-2.678-3.397-4.941"></path><path fill="none" stroke="#000000" stroke-width="3" stroke-linecap="round" stroke-linejoin="round" stroke-miterlimit="10" d="   M777.025,422.115c-0.05,5.396-6.302,8.538-6.302,8.538h-0.024c0,0-6.252-3.142-6.302-8.538"></path><path fill="none" stroke="#000000" stroke-width="3" stroke-linecap="round" stroke-linejoin="round" stroke-miterlimit="10" d="   M781.494,424.336c-0.33,0.712-0.582,6.922-4.47,8.134c0,0-2.755-1.051-3.397-3.857"></path><path fill="none" stroke="#000000" stroke-width="3" stroke-linecap="round" stroke-linejoin="round" stroke-miterlimit="10" d="   M775.446,431.491c-1.024,3.867-4.723,6.128-4.723,6.128h-0.024c0,0-3.699-2.261-4.723-6.128"></path><line fill="none" stroke="#000000" stroke-width="3" stroke-linecap="round" stroke-linejoin="round" stroke-miterlimit="10" x1="770.699" y1="398.643" x2="770.699" y2="393.143"></line></g><g><polygon fill="none" stroke="#000000" stroke-width="3" stroke-linejoin="round" stroke-miterlimit="10" points="649.777,376.964    656.468,373.213 661.674,378.848 669.197,377.349 672.406,384.316 680.024,385.215 680.923,392.834 687.891,396.043    686.391,403.566 692.027,408.771 688.276,415.463 692.027,422.155 686.391,427.36 687.891,434.883 680.923,438.092 680.024,445.71    672.406,446.609 669.197,453.577 661.674,452.077 656.468,457.713 649.777,453.962 643.085,457.713 637.88,452.077    630.357,453.577 627.148,446.609 619.529,445.71 618.63,438.092 611.662,434.883 613.162,427.36 607.527,422.155 611.278,415.463    607.527,408.771 613.162,403.566 611.662,396.043 618.63,392.834 619.529,385.215 627.148,384.316 630.357,377.349 637.88,378.848    643.085,373.213  "></polygon><circle fill="none" stroke="#000000" stroke-width="3" stroke-linejoin="round" stroke-miterlimit="10" cx="649.777" cy="415.463" r="31"></circle></g><g><path fill="none" stroke="#000000" stroke-width="3" stroke-linecap="round" stroke-linejoin="round" stroke-miterlimit="10" d="   M505.367,412.838c0,0-2.672,12.041,3.71,16.295c0,0,5.399-0.474,10.192-4.354c2.384-1.929,4.618-4.701,5.964-8.675"></path><path fill="none" stroke="#000000" stroke-width="3" stroke-linecap="round" stroke-linejoin="round" stroke-miterlimit="10" d="   M511.422,428.68c0.58,1.251,1.022,12.153,7.847,14.28c0,0,4.837-1.845,5.964-6.772"></path><path fill="none" stroke="#000000" stroke-width="3" stroke-linecap="round" stroke-linejoin="round" stroke-miterlimit="10" d="   M530.375,383.571c16.106,0,29.163,13.057,29.163,29.163c0,0-14.022,2.041-19.074-8.86c0,0,2.158,10.644-10.089,14.894h-0.042   c-12.247-4.25-10.089-14.894-10.089-14.894c-5.052,10.902-19.074,8.86-19.074,8.86c0-16.106,13.057-29.163,29.163-29.163"></path><path fill="none" stroke="#000000" stroke-width="3" stroke-linecap="round" stroke-linejoin="round" stroke-miterlimit="10" d="   M555.342,412.838c0,0,2.672,12.041-3.71,16.295c0,0-5.399-0.474-10.192-4.354c-2.384-1.929-4.618-4.701-5.964-8.675"></path><path fill="none" stroke="#000000" stroke-width="3" stroke-linecap="round" stroke-linejoin="round" stroke-miterlimit="10" d="   M541.439,424.779c-0.088,9.473-11.064,14.989-11.064,14.989h-0.042c0,0-10.976-5.517-11.064-14.989"></path><path fill="none" stroke="#000000" stroke-width="3" stroke-linecap="round" stroke-linejoin="round" stroke-miterlimit="10" d="   M549.287,428.68c-0.58,1.251-1.022,12.153-7.847,14.28c0,0-4.837-1.845-5.964-6.772"></path><path fill="none" stroke="#000000" stroke-width="3" stroke-linecap="round" stroke-linejoin="round" stroke-miterlimit="10" d="   M538.667,441.241c-1.797,6.79-8.292,10.759-8.292,10.759h-0.042c0,0-6.495-3.969-8.292-10.759"></path><line fill="none" stroke="#000000" stroke-width="3" stroke-linecap="round" stroke-linejoin="round" stroke-miterlimit="10" x1="530.334" y1="383.571" x2="530.334" y2="373.915"></line></g><g><path fill="none" stroke="#000000" stroke-width="3" stroke-linejoin="round" stroke-miterlimit="10" d="M529.727,590h10.272   c2.209,0,4-1.791,4-4v-46.885c0,0-0.167-7.167-8-10l-0.77-22.5h-5.502h0.323h-5.502l-0.77,22.5c-7.833,2.833-8,10-8,10V586   c0,2.209,1.791,4,4,4h10.272"></path><path fill="none" stroke="#000000" stroke-width="3" stroke-linejoin="round" stroke-miterlimit="10" d="M529.942,506.518h7.513   v-1.252c0-1.936-1.569-3.505-3.505-3.505h-4.062h-4.062c-1.936,0-3.505,1.569-3.505,3.505v1.252h7.513"></path><line fill="none" stroke="#000000" stroke-width="3" stroke-linejoin="round" stroke-miterlimit="10" x1="515.667" y1="545.448" x2="543.887" y2="545.448"></line><line fill="none" stroke="#000000" stroke-width="3" stroke-linejoin="round" stroke-miterlimit="10" x1="515.667" y1="576.198" x2="543.887" y2="576.198"></line><line fill="none" stroke="#000000" stroke-width="3" stroke-linejoin="round" stroke-miterlimit="10" x1="523.843" y1="523.948" x2="535.71" y2="523.948"></line><line fill="none" stroke="#000000" stroke-width="3" stroke-linejoin="round" stroke-miterlimit="10" x1="535.305" y1="512.107" x2="524.248" y2="512.107"></line><path fill="none" stroke="#000000" stroke-width="2" stroke-linecap="round" stroke-linejoin="round" stroke-miterlimit="10" d="   M525.091,559.977c0,0-0.563,2.536,0.781,3.432c0,0,1.137-0.1,2.147-0.917c0.502-0.406,0.973-0.99,1.256-1.827"></path><path fill="none" stroke="#000000" stroke-width="2" stroke-linecap="round" stroke-linejoin="round" stroke-miterlimit="10" d="   M526.367,563.314c0.122,0.263,0.215,2.56,1.653,3.008c0,0,1.019-0.389,1.256-1.427"></path><path fill="none" stroke="#000000" stroke-width="2" stroke-linecap="round" stroke-linejoin="round" stroke-miterlimit="10" d="   M530.359,553.812c3.393,0,6.143,2.75,6.143,6.143c0,0-2.954,0.43-4.018-1.866c0,0,0.455,2.242-2.125,3.137h-0.009   c-2.58-0.895-2.125-3.137-2.125-3.137c-1.064,2.296-4.018,1.866-4.018,1.866c0-3.393,2.75-6.143,6.143-6.143"></path><path fill="none" stroke="#000000" stroke-width="2" stroke-linecap="round" stroke-linejoin="round" stroke-miterlimit="10" d="   M535.618,559.977c0,0,0.563,2.536-0.781,3.432c0,0-1.137-0.1-2.147-0.917c-0.502-0.406-0.973-0.99-1.256-1.827"></path><path fill="none" stroke="#000000" stroke-width="2" stroke-linecap="round" stroke-linejoin="round" stroke-miterlimit="10" d="   M532.69,562.492c-0.019,1.995-2.331,3.157-2.331,3.157h-0.009c0,0-2.312-1.162-2.331-3.157"></path><path fill="none" stroke="#000000" stroke-width="2" stroke-linecap="round" stroke-linejoin="round" stroke-miterlimit="10" d="   M534.342,563.314c-0.122,0.263-0.215,2.56-1.653,3.008c0,0-1.019-0.389-1.256-1.427"></path><path fill="none" stroke="#000000" stroke-width="2" stroke-linecap="round" stroke-linejoin="round" stroke-miterlimit="10" d="   M532.106,565.96c-0.379,1.43-1.747,2.266-1.747,2.266h-0.009c0,0-1.368-0.836-1.747-2.266"></path><line fill="none" stroke="#000000" stroke-width="2" stroke-linecap="round" stroke-linejoin="round" stroke-miterlimit="10" x1="530.35" y1="553.812" x2="530.35" y2="551.778"></line></g></svg>