<svg xmlns="http://www.w3.org/2000/svg" version="1.1" x="0px" y="0px" viewBox="0 0 100 100" style="enable-background:new 0 0 100 100;">
<path d="M72,22.4c-0.1-0.6-0.4-1.1-0.8-1.5c-0.5-0.3-1.1-0.5-1.7-0.3c-1.6,0.4-3.6,0.6-6.6-2.2c-1.5-1.4-2.3-3.2-2.2-5     c0.1-1.6,0.7-3.1,1.7-4.4c0.4-0.4,0.6-1,0.5-1.6c-0.1-0.6-0.4-1.1-0.9-1.4c-4.3-2.8-9.3-4-14.4-3.4c-11.2,1.2-19.7,11-19.7,22.7     v28.4c0,5.6,4.6,10.2,10.2,10.2h3.7v25.4c0,4.5,3.7,8.2,8.2,8.2s8.2-3.7,8.2-8.2V63.9h3.7c5.6,0,10.2-4.6,10.2-10.2V24.6     C72.1,23.9,72.1,23.1,72,22.4z M54.1,89.3c0,2.2-1.8,4.1-4.1,4.1c-2.2,0-4.1-1.8-4.1-4.1V63.9h8.2V89.3z M68,53.7     c0,3.4-2.7,6.1-6.1,6.1H38.1c-3.4,0-6.1-2.7-6.1-6.1V25.3C32,15.8,39,7.7,48.1,6.7c0.7-0.1,1.3-0.1,2-0.1c2.8,0,5.4,0.6,7.9,1.9     c-0.8,1.5-1.3,3.2-1.3,4.9c-0.1,2.9,1.2,5.8,3.5,8c3,2.9,5.7,3.6,7.9,3.6V53.7z"></path>
<path d="M47.6,49.6h-5.4V36.5c0-1.1-0.9-2-2-2c-1.1,0-2,0.9-2,2v15.1c0,1.1,0.9,2,2,2h7.5c1.1,0,2-0.9,2-2     C49.7,50.5,48.7,49.6,47.6,49.6z"></path>
\</svg>