<svg xmlns="http://www.w3.org/2000/svg" xmlns:xlink="http://www.w3.org/1999/xlink" style="isolation:isolate;" viewBox="0 0 512 512" x="0px" y="0px"><defs><clipPath id="a"><rect width="512" height="512"></rect></clipPath></defs><g clip-path="url(#a)"><path d=" M 285 39 Q 238.377 80.832 236 126 C 233 183 270 268 252 323 C 239.732 360.487 215.136 404.592 162.871 439.417 L 170.649 473 L 344.483 473 Q 361.562 456.815 364.541 437.417 C 372.297 386.897 356.866 343.009 342.002 317 C 314 268 264.567 161.737 274 107.497 Q 284 50 305 39 L 295 39 L 285 39 Z " fill="rgb(0,0,0)"></path><path d=" M 355.01 59.29 L 374.94 98.12 C 374.95 98.15 374.97 98.17 374.98 98.19 C 375.71 99.65 376.34 101.16 376.87 102.7 C 377.4 104.24 377.86 105.81 378.24 107.4 C 378.62 108.98 378.93 110.58 379.16 112.2 C 379.4 113.81 379.53 115.44 379.54 117.07 C 379.54 117.1 379.54 117.12 379.54 117.15 L 379.54 422.83 C 379.54 425.29 379.45 427.75 379.26 430.2 C 379.1 432.41 378.85 434.6 378.49 436.78 C 378.19 438.74 377.73 440.68 377.12 442.57 C 376.79 443.58 376.38 444.56 375.88 445.5 C 375.02 447.16 373.8 448.61 372.3 449.73 C 369.3 451.86 366.44 454.2 363.75 456.72 C 361.33 458.97 359.07 461.38 356.99 463.94 C 356.13 465.01 355.32 466.11 354.55 467.24 C 353.95 468.14 353.4 469.07 352.91 470.03 C 352.59 470.63 352.33 471.26 352.13 471.91 C 352.13 471.92 352.12 471.94 352.12 471.95 C 352.12 472.15 352.11 472.35 352.1 472.55 C 351.91 475.18 350.71 477.64 348.75 479.4 C 347.93 480.14 347 480.75 346 481.2 C 345.13 481.59 344.23 481.88 343.3 482.08 C 342.1 482.34 340.88 482.52 339.66 482.62 C 338.28 482.75 336.9 482.85 335.52 482.9 C 333.9 482.97 332.27 483 330.65 483 L 182.14 483 C 180.49 483 178.85 482.96 177.2 482.89 C 175.8 482.82 174.39 482.71 172.99 482.56 C 171.71 482.44 170.43 482.22 169.18 481.91 C 168.32 481.7 167.48 481.41 166.68 481.03 C 163.12 479.39 160.78 475.88 160.65 471.96 C 160.66 471.71 160.63 471.45 160.55 471.2 C 160.33 470.44 160.05 469.71 159.7 469 C 159.19 467.95 158.61 466.92 157.98 465.94 C 157.2 464.72 156.36 463.54 155.47 462.41 C 153.36 459.72 151.05 457.19 148.55 454.86 C 145.84 452.29 142.93 449.93 139.86 447.79 C 138.35 446.69 137.11 445.25 136.23 443.59 C 135.72 442.65 135.29 441.66 134.95 440.64 C 134.32 438.74 133.85 436.79 133.54 434.81 C 133.17 432.62 132.91 430.42 132.74 428.21 C 132.55 425.75 132.46 423.28 132.46 420.81 L 132.46 392 C 132.46 389.35 133.51 386.8 135.39 384.93 C 137.26 383.05 139.81 382 142.46 382 C 145.11 382 147.66 383.05 149.53 384.93 C 151.41 386.8 152.46 389.35 152.46 392 L 152.46 420.82 C 152.46 420.82 152.46 420.82 152.46 420.82 C 152.46 422.78 152.53 424.74 152.69 426.7 C 152.81 428.35 153.01 429.99 153.28 431.63 C 153.35 432.09 153.44 432.55 153.55 433 C 156.6 435.26 159.51 437.69 162.27 440.3 C 165.49 443.32 168.48 446.59 171.21 450.07 C 172.48 451.69 173.68 453.37 174.79 455.11 C 175.86 456.76 176.82 458.47 177.68 460.23 C 178.11 461.12 178.5 462.02 178.85 462.94 C 179.94 462.98 181.03 463 182.12 463 C 182.12 463 182.13 463 182.13 463 L 330.65 463 C 330.66 463 330.66 463 330.66 463 C 331.82 463 332.99 462.98 334.15 462.94 C 334.45 462.22 334.79 461.52 335.15 460.83 C 335.99 459.19 336.93 457.6 337.97 456.07 C 339.06 454.45 340.22 452.87 341.45 451.35 C 344.12 448.07 347.01 444.97 350.1 442.1 C 352.76 439.61 355.55 437.26 358.46 435.07 C 358.57 434.61 358.66 434.14 358.73 433.67 C 359 432.03 359.2 430.38 359.32 428.72 C 359.47 426.77 359.54 424.8 359.54 422.84 C 359.54 422.84 359.54 422.83 359.54 422.83 L 359.54 117.2 C 359.53 116.49 359.48 115.78 359.37 115.08 C 359.23 114.08 359.04 113.08 358.8 112.09 C 358.56 111.11 358.28 110.13 357.94 109.17 C 357.72 108.5 357.44 107.85 357.13 107.21 L 336.17 66.39 C 336.14 66.34 336.12 66.28 336.09 66.23 C 335.58 65.2 335.21 64.1 334.99 62.97 C 334.8 62.04 334.7 61.08 334.69 60.13 C 334.69 59.23 334.77 58.34 334.95 57.46 C 334.96 57.42 334.96 57.38 334.97 57.35 L 336.76 49 L 175.24 49 L 177.03 57.35 C 177.04 57.38 177.04 57.42 177.05 57.46 C 177.23 58.34 177.31 59.23 177.31 60.13 C 177.3 61.08 177.2 62.04 177.01 62.97 C 176.79 64.1 176.42 65.2 175.91 66.23 C 175.88 66.28 175.86 66.34 175.83 66.39 L 154.87 107.21 C 154.56 107.85 154.28 108.5 154.06 109.17 C 153.72 110.13 153.44 111.11 153.2 112.09 C 152.96 113.08 152.77 114.08 152.63 115.08 C 152.52 115.78 152.47 116.49 152.46 117.2 L 152.46 359.5 C 152.46 362.15 151.41 364.7 149.53 366.57 C 147.66 368.45 145.11 369.5 142.46 369.5 C 139.81 369.5 137.26 368.45 135.39 366.57 C 133.51 364.7 132.46 362.15 132.46 359.5 L 132.46 117.15 C 132.46 117.12 132.46 117.1 132.46 117.07 C 132.47 115.44 132.6 113.81 132.84 112.2 C 133.07 110.58 133.38 108.98 133.76 107.4 C 134.14 105.81 134.6 104.24 135.13 102.7 C 135.66 101.16 136.29 99.65 137.02 98.19 C 137.03 98.17 137.05 98.15 137.06 98.12 L 156.99 59.29 L 154.7 48.59 C 154.45 47.42 154.31 46.22 154.31 45.03 C 154.26 40.72 155.97 36.58 159.03 33.56 C 160.58 32.05 162.43 30.87 164.45 30.1 C 166.4 29.36 168.47 28.99 170.56 29 L 341.44 29 C 343.53 28.99 345.6 29.36 347.55 30.1 C 349.57 30.87 351.42 32.05 352.97 33.56 C 356.03 36.58 357.74 40.72 357.69 45.03 C 357.69 46.22 357.55 47.42 357.3 48.59 L 355.01 59.29 Z  M 352.12 471.95 C 352.12 471.96 352.12 471.96 352.12 471.97 L 352.12 471.85 L 352.12 471.85 L 352.12 471.85" fill-rule="evenodd" fill="rgb(0,0,0)"></path><path d=" M 173.37 172.5 C 173.37 174.49 172.58 176.4 171.17 177.8 C 169.77 179.21 167.86 180 165.87 180 C 163.88 180 161.97 179.21 160.57 177.8 C 159.16 176.4 158.37 174.49 158.37 172.5 L 158.37 120 C 158.37 119.98 158.37 119.96 158.37 119.94 C 158.38 119 158.45 118.06 158.58 117.12 C 158.71 116.22 158.87 115.32 159.08 114.43 C 159.28 113.54 159.53 112.66 159.82 111.79 C 160.11 110.89 160.46 110.01 160.87 109.16 C 160.88 109.15 160.88 109.13 160.89 109.11 L 171.54 87.35 C 172.42 85.56 173.97 84.2 175.85 83.55 C 177.73 82.91 179.79 83.04 181.58 83.91 C 183.36 84.78 184.73 86.33 185.37 88.21 C 186.02 90.1 185.89 92.16 185.02 93.94 L 174.38 115.67 C 174.26 115.92 174.16 116.18 174.07 116.45 C 173.93 116.9 173.8 117.35 173.69 117.81 C 173.59 118.27 173.5 118.73 173.44 119.2 C 173.4 119.48 173.37 119.76 173.37 120.04 L 173.37 172.5 Z " fill="rgb(0,0,0)"></path></g></svg>