<svg xmlns="http://www.w3.org/2000/svg" data-name="Layer 1" viewBox="0 0 100 100" x="0px" y="0px"><title>4</title><path d="M86.7,52.9a10,10,0,0,0-10-10H70.2v-15h-.1c0-.1.1-.1.1-.2A11.9,11.9,0,0,0,58.3,15.8a12.4,12.4,0,0,0-3.3.4,15.6,15.6,0,0,0-28.1,3.4H25.7A12.5,12.5,0,0,0,13.3,32V50.6a10.4,10.4,0,0,0,9.5,10.3V89.3a2,2,0,0,0,2,2H68.2a2,2,0,0,0,2-2v-10h6.5a10,10,0,0,0,10-10ZM26.8,60.4A10.2,10.2,0,0,0,34,50.6V41.3a15.7,15.7,0,0,0,2.1-2.4,15.4,15.4,0,0,0,5.6,1,16.1,16.1,0,0,0,9.3-3,11.9,11.9,0,0,0,7.3,2.5,11.7,11.7,0,0,0,7.9-3V75.3H26.8Zm-9.5-9.8V32a8.5,8.5,0,0,1,8.4-8.4l2.2.3a2.3,2.3,0,0,0,1.6-.3,2.2,2.2,0,0,0,.8-1.3,11.7,11.7,0,0,1,22-2.8,2,2,0,0,0,1.1,1.1,1.8,1.8,0,0,0,1.6-.1,7.5,7.5,0,0,1,3.3-.7,7.8,7.8,0,1,1,0,15.6,7.7,7.7,0,0,1-5.8-2.6,2,2,0,0,0-1.4-.6,2.4,2.4,0,0,0-1.4.5,11.4,11.4,0,0,1-8,3.2,11.8,11.8,0,0,1-5.5-1.4,1.8,1.8,0,0,0-1.6-.1,1.7,1.7,0,0,0-1.2,1,8.5,8.5,0,0,1-2.6,3.3,2.1,2.1,0,0,0-.8,1.6V50.6a6.4,6.4,0,0,1-12.7,0ZM66.2,87.3H26.8v-8H66.2Zm16.5-18a6,6,0,0,1-6,6H70.2V46.9h6.5a6,6,0,0,1,6,6Z"></path></svg>