<?xml version="1.0" encoding="UTF-8"?>
<svg height="200px" width="200px" version="1.1" viewBox="0 0 700 700" xmlns="http://www.w3.org/2000/svg">
 <g>
  <path d="m369.46 81.41c5.3203 0 9.6523 4.2695 9.7305 9.5898v1.2617c1.6953 0.10938 3.0117 1.5195 3.0078 3.2188v16.52c0.003906 1.6992-1.3125 3.1094-3.0078 3.2188v111.37c0 35 40.672 35 40.672 100.38v270.9l-0.003906 0.003906c0 5.5703-2.2109 10.91-6.1484 14.848-3.9414 3.9375-9.2812 6.1523-14.852 6.1523h-97.859c-5.5703 0-10.91-2.2148-14.848-6.1523-3.9414-3.9375-6.1523-9.2773-6.1523-14.848v-270.9c0-65.172 40.672-65.172 40.672-100.38v-111.37c-1.6406-0.17969-2.8828-1.5703-2.8711-3.2188v-16.379c-0.003906-1.6992 1.3125-3.1094 3.0078-3.2227v-1.3984c0-5.375 4.3594-9.7305 9.7305-9.7305h38.922m0-14h-38.922c-5.1328 0.085938-10.102 1.8281-14.164 4.9688s-7 7.5117-8.375 12.461c-2.5312 3.0781-3.9141 6.9375-3.9219 10.922v16.379c-0.007813 3.4727 1.043 6.8672 3.0117 9.7305v105c0 9.3789-3.9883 14.559-12.391 24.43-19.289 20.445-29.402 47.875-28 75.949v270.9c0 9.2812 3.6875 18.184 10.254 24.746 6.5625 6.5664 15.465 10.254 24.746 10.254h97.301c9.2812 0 18.184-3.6875 24.75-10.254 6.5625-6.5625 10.25-15.465 10.25-24.746v-271.04c1.4023-28.074-8.7109-55.504-28-75.949-8.3984-9.8711-12.391-15.051-12.391-24.43v-105c1.7969-2.8711 2.6953-6.207 2.5898-9.5898v-16.379c-0.082031-4.0195-1.5664-7.8828-4.1992-10.922-1.4141-4.9688-4.4023-9.3398-8.5195-12.461-4.1172-3.1172-9.1367-4.8125-14.301-4.8281z"/>
  <path d="m350 338.03c-32.48 0-58.172-2.8008-58.172-2.8008v227.43s28 2.8008 58.172 2.8008 58.172-2.8008 58.172-2.8008v-227.43s-25.691 2.8008-58.172 2.8008zm19.109 89.531v-0.003906c1.4219-5.0352 6.2773-8.3047 11.48-7.7344 5.1992 0.57422 9.2266 4.8203 9.5195 10.047 0.17578 3.1445-1.0391 6.207-3.3242 8.3711-2.2852 2.168-5.4102 3.2188-8.5391 2.875s-5.9492-2.0508-7.7109-4.6602c-1.7578-2.6133-2.2812-5.8672-1.4258-8.8984zm3.5703 21.559c0.17578 3.1445-1.0391 6.207-3.3242 8.3711-2.2852 2.168-5.4102 3.2188-8.5391 2.875-3.1328-0.34375-5.9492-2.0508-7.7109-4.6602-1.7617-2.6133-2.2812-5.8672-1.4258-8.8984 1.4219-5.0352 6.2773-8.3047 11.477-7.7344 5.2031 0.57422 9.2305 4.8203 9.5234 10.047zm-18.828 18.898c-0.50391 4.2617-3.5195 7.8047-7.6445 8.9844-4.1289 1.1758-8.5586-0.23828-11.238-3.5938-2.6758-3.3516-3.0781-7.9844-1.0195-11.75 2.0625-3.7617 6.1836-5.9219 10.449-5.4688 5.875 0.65625 10.105 5.9531 9.4531 11.828zm10.57-92.328c1.9844 10.07 1.4805 20.477-1.4727 30.309l-3.9883-1.5391c1.9883-9.3086 1.4297-18.98-1.6094-28zm-18.621 43.398c1.4219-5.0352 6.2734-8.3086 11.477-7.7344 5.2031 0.57031 9.2305 4.8203 9.5234 10.043-1.4219 5.0391-6.2773 8.3086-11.48 7.7383-5.1992-0.57422-9.2266-4.8203-9.5195-10.047zm3.5703 21.91c-1.4219 5.0352-6.2773 8.3086-11.48 7.7344-5.1992-0.57031-9.2266-4.8203-9.5195-10.043-0.17969-3.1445 1.0391-6.207 3.3242-8.375 2.2852-2.168 5.4102-3.2188 8.5391-2.8711 3.1289 0.34375 5.9492 2.0469 7.7109 4.6602 1.7578 2.6094 2.2812 5.8633 1.4258 8.8945zm-28.422-28c0.53125-4.25 3.5586-7.7695 7.6836-8.9258s8.543 0.27344 11.207 3.625c2.6641 3.3555 3.0586 7.9844 0.99609 11.738s-6.1758 5.9102-10.438 5.4609c-2.832-0.3125-5.4258-1.75-7.1992-3.9805-1.7734-2.2344-2.582-5.0859-2.25-7.918zm-17.289 20.301c1.4219-5.0352 6.2773-8.3086 11.477-7.7344 5.2031 0.57031 9.2305 4.8203 9.5234 10.043 0.17578 3.1445-1.0391 6.207-3.3242 8.375-2.2852 2.1641-5.4102 3.2148-8.5391 2.8711-3.1328-0.34375-5.9531-2.0469-7.7109-4.6602-1.7617-2.6094-2.2812-5.8633-1.4258-8.8945zm4.3398 26.32c0.45312-4.3164 3.4648-7.9336 7.6289-9.1562 4.1641-1.2266 8.6523 0.17969 11.371 3.5625 2.7188 3.3828 3.125 8.0742 1.0352 11.875-2.0938 3.8008-6.2734 5.9648-10.586 5.4766-5.8438-0.66016-10.062-5.9102-9.4492-11.758zm6.3008 26.391c0.47656-4.3008 3.4922-7.8945 7.6484-9.1055 4.1523-1.2109 8.625 0.19922 11.34 3.5703 2.7109 3.3672 3.1289 8.0391 1.0586 11.84-2.0703 3.7969-6.2266 5.9766-10.527 5.5234-5.8477-0.69531-10.039-5.9766-9.3789-11.828zm29.191 27.441-0.003907-0.003906c-0.47656 4.3008-3.4922 7.8945-7.6445 9.1055-4.1562 1.2109-8.6289-0.19922-11.344-3.5703-2.7109-3.3711-3.1289-8.043-1.0586-11.84 2.0703-3.8008 6.2266-5.9805 10.527-5.5234 2.8516 0.28125 5.4766 1.6875 7.2891 3.9062 1.8125 2.2227 2.6641 5.0703 2.3711 7.9219zm17.359-19.461v-0.003907c-0.47656 4.3008-3.4961 7.8945-7.6484 9.1055-4.1562 1.2109-8.6289-0.19922-11.344-3.5703-2.7109-3.3672-3.1289-8.0391-1.0586-11.84 2.0742-3.7969 6.2266-5.9766 10.527-5.5234 2.8633 0.26562 5.4961 1.668 7.3125 3.8906 1.8164 2.2227 2.6602 5.0859 2.3477 7.9375zm17.641-18.762h-0.003907c0.17969 3.1445-1.0391 6.207-3.3242 8.3711-2.2852 2.168-5.4062 3.2188-8.5391 2.875-3.1289-0.34375-5.9492-2.0508-7.7109-4.6602-1.7578-2.6133-2.2812-5.8672-1.4258-8.8945 1.4258-5.0391 6.2773-8.3086 11.48-7.7383 5.1992 0.57422 9.2266 4.8203 9.5195 10.047zm18.059-19.18c-0.45312 4.3164-3.4648 7.9297-7.6289 9.1562-4.1641 1.2266-8.6523-0.18359-11.371-3.5664s-3.1289-8.0703-1.0352-11.871c2.0938-3.8047 6.2734-5.9648 10.586-5.4805 2.832 0.28516 5.4375 1.6836 7.2344 3.8906 1.8008 2.207 2.6484 5.0391 2.3555 7.8711z"/>
 </g>
</svg>
