<svg xmlns="http://www.w3.org/2000/svg" viewBox="0 0 26.458333 26.458334" version="1.1" x="0px" y="0px"><g transform="translate(0,-270.54165)"><path d="m 13.462011,274.67982 c -0.0635,0 -0.126999,0.0212 -0.169332,0.0423 0,0 -0.380997,0.27517 -0.613829,0.762 -0.232832,0.48683 -0.296331,1.20649 0.211665,2.03198 0.338664,0.59266 0.550329,1.05833 0.571496,1.41816 0,0.381 -0.148166,0.69849 -0.656162,1.07949 -0.296331,0.21167 0.04233,0.67733 0.317498,0.42333 0.592662,-0.4445 0.888993,-0.95249 0.867826,-1.50282 0,-0.55033 -0.275164,-1.10066 -0.656161,-1.69332 -0.42333,-0.6985 -0.338664,-1.18533 -0.169332,-1.52399 0.169332,-0.35983 0.444497,-0.55033 0.444497,-0.55033 0.211666,-0.14817 0.105832,-0.48683 -0.148166,-0.48683 z m -3.259643,2.11665 c -0.0635,0.0212 -0.126999,0.0423 -0.169332,0.0847 0,0 -0.2116653,0.23283 -0.2963313,0.57149 -0.105832,0.33867 -0.0635,0.84666 0.2751653,1.39699 0.275164,0.40217 0.211665,0.99483 -0.3598313,1.50282 -0.275165,0.23284 0.08467,0.635 0.3598313,0.40217 0.719661,-0.635 0.888993,-1.56632 0.465663,-2.22249 -0.296331,-0.42333 -0.275165,-0.71966 -0.232832,-0.95249 0.0635,-0.21166 0.169332,-0.3175 0.169332,-0.3175 0.169332,-0.16933 0.04233,-0.46566 -0.211665,-0.46566 z m 6.24412,0 c -0.0635,0.0212 -0.126997,0.0423 -0.16933,0.0847 0,0 -0.211667,0.23283 -0.296331,0.57149 -0.105833,0.33867 -0.08467,0.84666 0.275164,1.39699 0.275164,0.40217 0.211664,0.99483 -0.359831,1.50282 -0.275164,0.23284 0.08467,0.635 0.359831,0.40217 0.719661,-0.635 0.888992,-1.56632 0.444497,-2.22249 -0.275166,-0.42333 -0.254,-0.71966 -0.211666,-0.95249 0.0635,-0.21166 0.169333,-0.3175 0.169333,-0.3175 0.169331,-0.16933 0.04233,-0.46566 -0.211667,-0.46566 z m -8.9534333,4.88946 c -0.169332,0 -0.296331,0.127 -0.275164,0.29634 0,0 0.08466,0.93132 0.317497,2.09548 0.232832,1.16416 0.634995,2.58231 1.312324,3.57714 0.253998,0.381 0.888993,1.29116 2.0319853,1.86265 v 1.016 c 0,0.10583 0.0635,0.19049 0.148165,0.23283 0,0 0.190499,0.0847 0.55033,0.16933 0.338664,0.0635 0.888993,0.127 1.650987,0.127 0.761994,0 1.291158,-0.0635 1.650989,-0.127 0.359831,-0.0847 0.529161,-0.16933 0.529161,-0.16933 0.105834,-0.0423 0.169334,-0.127 0.169334,-0.23283 v -1.016 c 1.142989,-0.57149 1.777987,-1.48165 2.031984,-1.86265 0.105833,-0.127 0.190497,-0.29633 0.275164,-0.4445 0.677328,0.254 1.396989,0.0847 1.926153,-0.38099 0.656162,-0.55033 1.100659,-1.46049 1.248823,-2.56115 0.04233,-0.4445 -0.08466,-0.80433 -0.317497,-1.03716 -0.232831,-0.23283 -0.550328,-0.3175 -0.846659,-0.35983 -0.275167,-0.0423 -0.550331,-0.0212 -0.761995,0 0.0635,-0.55033 0.105831,-0.88899 0.105831,-0.88899 0,-0.16934 -0.105831,-0.29634 -0.275164,-0.29634 z m 0.317498,0.52917 H 18.647806 c -0.02117,0.21166 -0.0635,0.78316 -0.253998,1.75682 -0.232833,1.14299 -0.634994,2.49765 -1.227658,3.38664 -0.253998,0.381 -0.825492,1.22766 -1.926151,1.73565 -0.02117,0 -0.02117,0.0212 -0.04233,0.0212 -0.402164,0.16933 -0.846661,0.3175 -1.375822,0.381 h -0.04233 c -0.08467,0 -0.148166,0.0212 -0.211665,0.0212 h -0.08467 -0.253999 -0.275164 -0.0635 c -0.0635,0 -0.126999,-0.0212 -0.190498,-0.0212 h -0.0635 c -0.529163,-0.0635 -0.994825,-0.21167 -1.375823,-0.381 -0.02117,0 -0.02117,-0.0212 -0.04233,-0.0212 -1.100659,-0.50799 -1.6721553,-1.35465 -1.9261523,-1.73565 -0.592663,-0.88899 -0.994827,-2.24365 -1.227658,-3.38664 -0.190498,-0.97366 -0.253997,-1.54516 -0.253997,-1.75682 z m 11.6839143,1.18532 c 0.105831,-0.0212 0.232831,0 0.338664,0 0.232831,0.0423 0.423331,0.10583 0.529161,0.21167 0.127,0.127 0.1905,0.27516 0.148167,0.59266 -0.105833,0.99483 -0.529164,1.77799 -1.037159,2.22248 -0.42333,0.35983 -0.867828,0.48683 -1.354656,0.29633 0.380995,-0.84666 0.634995,-1.82032 0.804326,-2.64581 0.04233,-0.23283 0.08467,-0.4445 0.127,-0.63499 0.105833,-0.0212 0.253997,-0.0423 0.444497,-0.0423 z m -0.380997,5.41863 c -0.338664,0.0212 -0.338664,0.50799 -0.02117,0.55033 1.037159,0.14816 1.862653,0.33866 2.391814,0.52916 0.253997,0.0847 0.465664,0.1905 0.571497,0.27517 0.105831,0.0847 0.105831,0.12699 0.105831,0.12699 0,0 0,0.0423 -0.08467,0.10584 -0.08466,0.0847 -0.253997,0.16933 -0.465661,0.254 -0.423331,0.19049 -1.100659,0.35983 -1.904987,0.48682 -1.650987,0.27517 -3.936971,0.46567 -6.476952,0.46567 -2.539981,0 -4.8259643,-0.1905 -6.4769523,-0.46567 -0.804327,-0.12699 -1.481656,-0.29633 -1.9049859,-0.48682 -0.211665,-0.0847 -0.380997,-0.16934 -0.4656631,-0.254 -0.08467,-0.0635 -0.08467,-0.10584 -0.08467,-0.10584 0,0 -0.02117,0 0.04233,-0.0635 0.04233,-0.0423 0.126999,-0.10583 0.275165,-0.19049 0.253998,-0.127 0.698495,-0.27517 1.26999,-0.42333 0.359831,-0.0635 0.232832,-0.59267 -0.126999,-0.508 -0.592662,0.127 -1.058325,0.27516 -1.396989,0.46566 -0.169333,0.0847 -0.317498,0.16934 -0.423331,0.29633 -0.105831,0.10584 -0.190497,0.254 -0.190497,0.42333 0,0.21167 0.126999,0.40217 0.275164,0.52917 0.169332,0.127 0.359831,0.23283 0.613829,0.33866 0.507997,0.1905 1.185325,0.35983 2.031985,0.508 1.693321,0.29633 4.0004713,0.46566 6.5616183,0.46566 2.561148,0 4.868299,-0.16933 6.561619,-0.46566 0.846659,-0.14817 1.523989,-0.3175 2.031984,-0.508 0.232833,-0.10583 0.444497,-0.21166 0.592664,-0.33866 0.169331,-0.127 0.296331,-0.3175 0.296331,-0.52917 0,-0.23283 -0.148167,-0.42333 -0.338664,-0.55032 -0.169334,-0.14817 -0.402164,-0.254 -0.698495,-0.35984 -0.613831,-0.21166 -1.439323,-0.40216 -2.497648,-0.55032 -0.02117,-0.0212 -0.04233,-0.0212 -0.0635,-0.0212 z m -7.704611,0.93133 c 0.529163,0.19049 1.121826,0.31749 1.82032,0.31749 0.698494,0 1.291158,-0.127 1.799153,-0.31749 v 0.57149 c -0.04233,0.0212 -0.0635,0.0423 -0.253997,0.0847 -0.317498,0.0423 -0.804328,0.10583 -1.545156,0.10583 -0.740828,0 -1.227657,-0.0635 -1.545155,-0.10583 -0.190498,-0.0423 -0.211665,-0.0635 -0.275165,-0.0847 z m 5.757291,2.43414 v 0 h -0.02117 c -1.227656,0.0847 -2.561148,0.14817 -3.915805,0.14817 -1.33349,0 -2.645814,-0.0635 -3.8523053,-0.14817 -0.35983,-0.0423 -0.402163,0.508 -0.04233,0.52917 1.2276583,0.10583 2.5399823,0.14816 3.8946383,0.14816 1.375823,0 2.730482,-0.0423 3.958138,-0.14816 0.359831,-0.0212 0.338664,-0.55033 -0.02117,-0.52917 z" style="" fill="#000000" fill-opacity="1" fill-rule="nonzero" stroke="none"></path></g></svg>