<svg xmlns="http://www.w3.org/2000/svg" xmlns:xlink="http://www.w3.org/1999/xlink" version="1.1" x="0px" y="0px" viewBox="0 0 100 100" style="enable-background:new 0 0 100 100;" xml:space="preserve"><style type="text/css">
	.st0{fill:none;stroke:#000000;stroke-width:2;stroke-linecap:round;stroke-linejoin:round;stroke-miterlimit:10;}
	.st1{fill:#FFFFFF;stroke:#000000;stroke-width:2;stroke-linecap:round;stroke-linejoin:round;stroke-miterlimit:10;}
</style><g><path d="M66.3,22.7c-1-3.2-4-5.6-7.5-5.6c-1.6,0-3.1,0.5-4.4,1.3c-1.7-2.8-4.7-4.5-8.1-4.5c-3.8,0-7.1,2.2-8.6,5.6   c-0.9-0.4-1.8-0.6-2.7-0.6c-3.9,0-7,3.1-7,7c0,2.4,1.3,4.6,3.2,5.9l4.8,47.3c0,0.1,0,0.1,0,0.2c0,3.8,3.1,6.8,6.8,6.8h15.1   c3.8,0,6.8-3.1,6.8-6.8c0-0.1,0-0.1,0-0.2l4.7-46.8c1.6-0.9,2.7-2.6,2.7-4.5C72,24.8,69.3,22.4,66.3,22.7z M57.8,82.8H42.7   c-1.4,0-2.6-0.8-3.2-1.9h21.4C60.3,82,59.1,82.8,57.8,82.8z M61.4,77.7H39l-4.5-44.7h0.2c0.1,0,0.2,0,0.2,0h1.8v4.1   c0,2.8,2.3,5.1,5.1,5.1c2.8,0,5.1-2.3,5.1-5.1v-4.1h19L61.4,77.7z M66.9,29.7H45.3c-0.9,0-1.6,0.7-1.6,1.6v5.8c0,1-0.8,1.8-1.8,1.8   c-1,0-1.8-0.8-1.8-1.8v-5.8c0-0.9-0.7-1.6-1.6-1.6H35c-2.1,0-3.8-1.7-3.8-3.8c0-2.1,1.7-3.8,3.8-3.8c0.9,0,1.8,0.4,2.5,1   c0.4,0.4,1.1,0.5,1.6,0.3c0.6-0.2,1-0.7,1.1-1.2c0.6-3,3.1-5.1,6.1-5.1c2.8,0,5.2,1.8,6,4.5c0.2,0.6,0.7,1,1.3,1.1   c0.6,0.1,1.2-0.1,1.6-0.6c0.9-1.2,2.2-1.8,3.7-1.8c2.5,0,4.6,2,4.6,4.5c0,0.6,0.3,1.1,0.9,1.4c0.5,0.3,1.1,0.3,1.6,0   c1.3-0.8,2.9,0.2,2.9,1.6C68.8,28.8,67.9,29.7,66.9,29.7z"></path><path d="M60.9,38.7c0.4,0,0.8-0.2,1.1-0.5c0.3-0.3,0.5-0.7,0.5-1.1c0-0.4-0.2-0.8-0.5-1.2c-0.6-0.6-1.7-0.6-2.3,0   c-0.3,0.3-0.5,0.7-0.5,1.2c0,0.4,0.2,0.8,0.5,1.2C60,38.6,60.4,38.7,60.9,38.7z"></path><path d="M60.9,44c0.4,0,0.8-0.2,1.1-0.5c0.3-0.3,0.5-0.7,0.5-1.1c0-0.4-0.2-0.9-0.5-1.2c-0.6-0.6-1.7-0.6-2.3,0   c-0.3,0.3-0.5,0.7-0.5,1.2c0,0.4,0.2,0.8,0.5,1.1C60,43.9,60.4,44,60.9,44z"></path><path d="M56.8,41.3c0.4,0,0.8-0.2,1.2-0.5c0.3-0.3,0.5-0.7,0.5-1.2c0-0.4-0.2-0.8-0.5-1.2c-0.6-0.6-1.7-0.6-2.3,0   c-0.3,0.3-0.5,0.7-0.5,1.2c0,0.4,0.2,0.8,0.5,1.2C56,41.1,56.4,41.3,56.8,41.3z"></path><path d="M43.8,66.4l-0.3-2.3c-0.1-0.9-0.9-1.5-1.8-1.4c-0.9,0.1-1.5,0.9-1.4,1.8l1,9c0.1,0.8,0.8,1.4,1.6,1.4h6.8   c0.9,0,1.6-0.7,1.6-1.6s-0.7-1.6-1.6-1.6h-1.4h-4L43.8,66.4z"></path></g></svg>