<svg xmlns="http://www.w3.org/2000/svg" xmlns:xlink="http://www.w3.org/1999/xlink" version="1.1" x="0px" y="0px" viewBox="0 0 100 100" enable-background="new 0 0 100 100" xml:space="preserve"><g><path fill="#000000" d="M38.624,48.339c-0.192,1.451,0.092,37.095,0.097,37.442c0.032,2.357,1.649,3.928,2.785,4.289   c0.437,0.142,4.471,0.213,8.503,0.213c4.025,0,8.048-0.071,8.482-0.212c1.139-0.362,2.756-1.934,2.789-4.294l0.008-1.039   c0.117-16.021,0.228-35.341,0.087-36.403c-0.027-0.194-0.046-0.431-0.068-0.701c-0.132-1.606-0.378-4.597-2.878-7.336   c-1.542-1.688-1.75-5.815-1.85-7.799c-0.064-1.286-0.526-6.303-0.935-10.729c-0.295-3.204-0.6-6.509-0.643-7.184   c0.302-0.451,0.737-1.456,0.296-2.502c-0.137-0.315-0.282-0.733-0.408-1.115c0.003,0,0.004-0.001,0.007-0.001l0.53-0.033   l-0.033-0.531c-0.005-0.073-0.013-0.203-0.016-0.457c-0.075-0.728-0.345-2.022-1.302-2.521C53.402,7.078,52.104,7.03,50.8,7.03   l-0.796,0.002L49.207,7.03c-1.307,0-2.609,0.048-3.281,0.397c-0.964,0.499-1.23,1.794-1.307,2.571c0,0.202-0.008,0.332-0.015,0.441   l-0.03,0.528h0.529c0.003,0,0.004,0.001,0.007,0.001c-0.126,0.38-0.271,0.796-0.411,1.12c-0.438,1.041-0.006,2.04,0.296,2.493   c-0.046,0.744-0.348,4.015-0.64,7.188c-0.408,4.426-0.87,9.442-0.935,10.729c-0.1,1.983-0.308,6.111-1.851,7.799   c-2.497,2.737-2.744,5.727-2.876,7.333C38.672,47.903,38.652,48.14,38.624,48.339z M46.387,8.314   c0.548-0.284,2.199-0.284,2.82-0.284l0.797,0.002L50.8,8.03c0.619,0,2.266,0,2.815,0.284c0.389,0.203,0.677,0.852,0.766,1.685   c0,0.023,0,0.046,0,0.067c-0.043,0.019-0.08,0.036-0.112,0.052c-0.161,0.077-0.224,0.079-0.385,0   c-0.123-0.06-0.309-0.149-0.629-0.149c-0.319,0-0.505,0.09-0.628,0.149c-0.159,0.078-0.222,0.078-0.381,0.001   c-0.122-0.06-0.308-0.15-0.628-0.15c-0.319,0-0.504,0.091-0.626,0.15c-0.16,0.078-0.215,0.078-0.375,0   c-0.122-0.06-0.308-0.15-0.627-0.15s-0.505,0.091-0.627,0.15c-0.161,0.079-0.218,0.075-0.376,0c-0.123-0.06-0.309-0.15-0.628-0.15   s-0.505,0.091-0.627,0.15c-0.16,0.078-0.215,0.078-0.375,0c-0.122-0.06-0.308-0.15-0.627-0.15s-0.505,0.091-0.627,0.15   c-0.159,0.077-0.213,0.078-0.374,0c-0.032-0.016-0.069-0.034-0.112-0.052c0-0.006-0.001-0.012-0.001-0.019   C45.686,9.368,45.924,8.555,46.387,8.314z M39.615,48.474c0.029-0.21,0.051-0.467,0.075-0.761c0.132-1.592,0.352-4.256,2.618-6.74   c1.569-1.717,1.941-5.062,2.11-8.423c0.064-1.267,0.525-6.271,0.933-10.688c0.563-6.115,0.666-7.305,0.646-7.491l-0.017-0.158   l-0.105-0.119c-0.104-0.118-0.567-0.873-0.256-1.611c0.172-0.396,0.346-0.905,0.486-1.341c0.195-0.027,0.346-0.079,0.438-0.124   c0.16-0.078,0.215-0.078,0.375,0c0.122,0.06,0.308,0.15,0.627,0.15s0.505-0.091,0.627-0.15c0.161-0.078,0.219-0.076,0.376,0   c0.123,0.06,0.309,0.15,0.628,0.15s0.505-0.091,0.627-0.15c0.16-0.078,0.215-0.078,0.375,0c0.122,0.06,0.308,0.15,0.627,0.15   s0.505-0.091,0.627-0.15c0.162-0.08,0.218-0.076,0.377,0c0.122,0.061,0.308,0.15,0.627,0.15c0.32,0,0.506-0.09,0.629-0.15   c0.162-0.076,0.223-0.076,0.382,0.001c0.095,0.046,0.248,0.098,0.448,0.125c0.146,0.452,0.316,0.949,0.484,1.335   c0.312,0.74-0.15,1.498-0.255,1.616l-0.104,0.119l-0.017,0.157c-0.021,0.187,0.082,1.376,0.646,7.491   c0.407,4.416,0.868,9.421,0.933,10.688c0.169,3.36,0.541,6.706,2.109,8.422c2.27,2.487,2.488,5.151,2.619,6.744   c0.024,0.293,0.046,0.548,0.074,0.754c0.049,0.364,0.136,4.627-0.096,36.261l-0.008,1.037c-0.026,1.905-1.376,3.122-2.079,3.347   c-0.92,0.21-15.483,0.21-16.39,0.004c-0.716-0.228-2.065-1.444-2.091-3.351C39.686,83.093,39.446,49.746,39.615,48.474z"></path><path fill="#000000" d="M50,69.222c4.636,0,8.407-3.771,8.407-8.408c0-4.636-3.771-8.407-8.407-8.407   c-4.637,0-8.408,3.771-8.408,8.407C41.592,65.45,45.363,69.222,50,69.222z M50,53.406c4.084,0,7.407,3.323,7.407,7.407   c0,4.085-3.323,7.408-7.407,7.408c-4.085,0-7.408-3.323-7.408-7.408C42.592,56.729,45.915,53.406,50,53.406z"></path></g></svg>