<svg xmlns="http://www.w3.org/2000/svg" xmlns:xlink="http://www.w3.org/1999/xlink" version="1.1" x="0px" y="0px" viewBox="0 0 100 100" enable-background="new 0 0 100 100" xml:space="preserve"><g><g><ellipse fill="none" cx="49.0609131" cy="45.6771431" rx="0.2212396" ry="0.2314715"></ellipse><ellipse fill="none" cx="51.0160103" cy="42.231575" rx="0.2212399" ry="0.2308006"></ellipse><ellipse fill="none" cx="47.5808411" cy="26.4297981" rx="0.2212399" ry="0.2308006"></ellipse><ellipse fill="none" cx="53.7641449" cy="31.2390347" rx="0.2212399" ry="0.2308006"></ellipse><ellipse fill="none" cx="49.6419411" cy="34.6742058" rx="0.2212399" ry="0.2308006"></ellipse><path fill="none" d="M52.290947,52.0844154c0.0640297-0.0653763,0.1287346-0.1325531,0.1956596-0.2052231    c0.0526276-0.0571976,0.1069717-0.1193848,0.16119-0.1812363c0.0686455-0.078331,0.1381302-0.1595535,0.2089539-0.2455177    c0.0563164-0.0683937,0.1135139-0.1408958,0.1709633-0.2142792c0.0718307-0.0917473,0.1443329-0.1878166,0.2175903-0.2876625    c0.05896-0.0803833,0.1182518-0.1637039,0.1779213-0.2495003c0.073761-0.1060905,0.1479836-0.2178421,0.2224579-0.3324051    c0.0605087-0.0930481,0.1210175-0.1877785,0.1817398-0.2865715c0.0748482-0.1218567,0.1497421-0.2509689,0.2245941-0.3817596    c0.0602989-0.1053772,0.1205559-0.2108841,0.180645-0.322216c0.0754814-0.1398888,0.1502075-0.2889595,0.2249298-0.4384956    c0.0585403-0.1171608,0.1172485-0.2326851,0.1751137-0.3559303c0.0755234-0.1608963,0.1493683-0.3330307,0.223381-0.5045395    c0.0549736-0.1274338,0.1105766-0.2512207,0.1644592-0.3846092c0.0758591-0.1877365,0.1488228-0.3890572,0.2221642-0.588913    c0.048893-0.1332207,0.0990448-0.2606964,0.1466408-0.399456c0.0791702-0.2308846,0.1539345-0.4780807,0.2289124-0.7246056    c0.0376549-0.123745,0.0775337-0.2396049,0.1139755-0.3673744c0.109066-0.3823051,0.2131882-0.7810478,0.3101387-1.2003403    c0.0814323-0.3525734,0.1585464-0.7255707,0.2332306-1.1093826c0.0251617-0.1295319,0.0489349-0.265522,0.0733833-0.3984528    c0.0478058-0.2596054,0.0946007-0.5235748,0.1395531-0.7953453c0.0280533-0.1696625,0.0554352-0.3420067,0.0824013-0.5161972    c0.0376549-0.242878,0.0740089-0.4910393,0.1096535-0.7421341c0.0284309-0.2005692,0.0570717-0.4000854,0.0842018-0.6056862    c0.0291023-0.2198524,0.0564003-0.4464188,0.0841179-0.6716003c0.1246681-1.0167122,0.2363358-2.0819016,0.3340836-3.190197    c0.0039825-0.0450783,0.0082169-0.0893593,0.0121994-0.1345634c0.0377426-0.4336319,0.0735931-0.8727112,0.1075592-1.3168678    c0.0003777-0.0045738,0.0007133-0.0091858,0.001091-0.0137558c0.4012604-5.2538128,0.5449638-11.1728954,0.577713-16.2630424    L42.559967,18.1383018c-0.3285484,5.2133045-0.5661011,11.2939148-0.3907776,16.6348228    c0.0002098,0.0065422,0.0004196,0.0130424,0.0006294,0.0195427c0.014595,0.4421005,0.0322456,0.878624,0.0527115,1.3095322    c0.0025139,0.0528755,0.0055351,0.1047478,0.0081749,0.1574593c0.054348,1.1017532,0.1307068,2.1578827,0.2280769,3.1631889    c0.0220146,0.225853,0.043232,0.4534225,0.0675964,0.6735306c0.0224762,0.2042999,0.047718,0.4018478,0.0722923,0.6008186    c0.0311127,0.2509308,0.0634041,0.4987984,0.0979958,0.7408371c0.0247421,0.1735611,0.0502396,0.3449821,0.0767822,0.5136795    c0.0422249,0.2678261,0.087471,0.5274773,0.1344376,0.7824745c0.0245323,0.1335144,0.0479279,0.270134,0.0738029,0.3998756    c0.0754776,0.3783646,0.1550674,0.7454033,0.2422066,1.0905151c0.0984993,0.3901024,0.2063103,0.7633934,0.3203278,1.123558    c0.0566101,0.1785088,0.119133,0.3443985,0.1791801,0.5157356c0.0594177,0.1701241,0.1168251,0.3447342,0.1791801,0.5078545    c0.0857964,0.223671,0.1764145,0.4348488,0.2671127,0.6456871c0.0400887,0.0934258,0.0784988,0.1912994,0.1194267,0.2822113    c0.1107864,0.2456017,0.2252235,0.4797173,0.3411293,0.7074547c0.0218887,0.0430641,0.0430641,0.0886459,0.0650787,0.1310844    c0.1328011,0.2552872,0.2680779,0.4996338,0.4050751,0.7324448c0.0042763,0.0072556,0.0084267,0.0149727,0.0127068,0.0222244    c1.5945511,2.6997871,3.3965454,3.9030609,3.7009811,4.0934372c0.1476059,0.0496483,0.5974655,0.1878624,1.0802002,0.2079887    c0.5823708,0.0201302,1.0104218-0.0570297,1.1603775-0.0912437c0.0371513-0.0215988,0.1016884-0.0626068,0.1776695-0.113472    c0.0326233-0.0218048,0.0632362-0.0419769,0.1022758-0.0696945c0.0252838-0.0179901,0.056778-0.0426445,0.0845795-0.0631943    c0.0451622-0.0334206,0.0899887-0.0665054,0.1413574-0.1070137c0.0334625-0.0264168,0.0718727-0.0594177,0.1077271-0.0889397    c0.0527916-0.0434418,0.1057129-0.0870934,0.163414-0.1376228c0.0413857-0.036232,0.0865898-0.0789185,0.1302414-0.1189232    c0.058918-0.0539703,0.1182098-0.1087761,0.1809006-0.1698303C52.1906853,52.1877365,52.2411308,52.1352386,52.290947,52.0844154z     M53.7638931,30.0954323c0.6360435,0,1.1533318,0.5132637,1.1533318,1.1439381    c0,0.6300049-0.5172882,1.1425953-1.1533318,1.1425953c-0.6353722,0-1.1523247-0.5125904-1.1523247-1.1425953    C52.6115685,30.608696,53.128521,30.0954323,53.7638931,30.0954323z M49.6416893,33.5306015    c0.6360435,0,1.1533318,0.5132637,1.1533318,1.14394c0,0.6300049-0.5172882,1.1425934-1.1533318,1.1425934    c-0.6353722,0-1.1523247-0.5125885-1.1523247-1.1425934C48.4893646,34.0438652,49.0063171,33.5306015,49.6416893,33.5306015z     M46.4282646,26.4301338c0-0.6306744,0.5169525-1.1439381,1.1523247-1.1439381    c0.6360435,0,1.1533318,0.5132637,1.1533318,1.1439381c0,0.6300049-0.5172882,1.1425972-1.1533318,1.1425972    C46.9452171,27.572731,46.4282646,27.0601387,46.4282646,26.4301338z M49.0606613,46.8197403    c-0.6353722,0-1.1523247-0.5125923-1.1523247-1.1425972c0-0.6300011,0.5169525-1.1425934,1.1523247-1.1425934    c0.6360435,0,1.1533318,0.5125923,1.1533318,1.1425934C50.2139931,46.307148,49.6967049,46.8197403,49.0606613,46.8197403z     M51.0157585,43.3745079c-0.6353722,0-1.1523247-0.5125923-1.1523247-1.1425972    c0-0.6306763,0.5169525-1.1439362,1.1523247-1.1439362c0.6360435,0,1.1533318,0.5132599,1.1533318,1.1439362    C52.1690903,42.8619156,51.6518021,43.3745079,51.0157585,43.3745079z"></path><path fill="none" d="M57.8879814,17.2820683c0.013546-4.9068575-0.0697746-8.8549118-0.1072235-10.3458481L43.5325241,6.3974628    c-0.1555748,1.4874969-0.5489922,5.4474182-0.882946,10.3692875L57.8879814,17.2820683z"></path><path fill="none" d="M50.0821571,88.0538483l0.5249596-33.5006561c-0.1497421,0.0116997-0.3131561,0.0198326-0.4934273,0.0198326    c-0.0888977,0-0.1808167-0.0020142-0.2764244-0.0060387c-0.2274017-0.0093498-0.4446182-0.0376549-0.6436729-0.0728378    l-0.4979172,33.4738159c-0.0036888,0.2442245-0.1372032,0.4683151-0.3498878,0.5884094    c-0.0130844,0.0073776-1.3388443,0.7641907-2.7343826,2.1805267c-0.7970657,0.8091431-1.6303635,1.8443909-2.215416,2.6079102    l11.7812195,0.2542877c-0.4813919-0.756813-1.1717796-1.7806549-1.8588142-2.5911407    c-1.2013016-1.4163361-2.8615227-2.3314896-2.8782959-2.34021C50.2160072,88.545639,50.0781288,88.3087997,50.0821571,88.0538483z    "></path><path d="M52.0309601,54.1111298c0.0166054-0.0111961,0.0341759-0.023777,0.0515785-0.0358086    c0.0632362-0.0435295,0.1308327-0.0923805,0.2043419-0.1472282c0.0269203-0.0200882,0.0533371-0.0402565,0.0814743-0.0619354    c0.0734673-0.0565262,0.150959-0.1193008,0.2324371-0.1870651c0.0302734-0.0251999,0.0587463-0.0482635,0.0899887-0.0750618    c0.1004295-0.0860023,0.205513-0.1805191,0.3152962-0.2839279c0.0138779-0.0131264,0.0265007-0.0236511,0.0405464-0.0370674    c0.1249619-0.119133,0.2550812-0.2503433,0.3893929-0.3931694c0.0284309-0.0301895,0.0579109-0.064785,0.0866776-0.0960655    c0.1043701-0.1136398,0.2101669-0.2330246,0.3185234-0.3616333c0.0455818-0.0540924,0.0913734-0.1116257,0.1375427-0.1684456    c0.0956917-0.1177902,0.1918831-0.2410316,0.289505-0.3709831c0.0505714-0.0673027,0.1007233-0.1351929,0.1517143-0.2058525    c0.0997162-0.1382942,0.199646-0.284893,0.3002434-0.4363556c0.0469208-0.0706978,0.0934258-0.1381683,0.1404343-0.2118034    c0.1307487-0.2048035,0.2613678-0.4212608,0.391571-0.6496315c0.0155983-0.0274239,0.0312843-0.0513687,0.0469246-0.0791283    c0.1448364-0.2575531,0.2882462-0.5325089,0.4300232-0.8208847c0.0400467-0.0813904,0.0787926-0.1697845,0.1184616-0.2536926    c0.1008492-0.2133598,0.2004852-0.4322929,0.298439-0.6623802c0.0486412-0.1142654,0.0960274-0.2330627,0.1438332-0.3515663    c0.0881424-0.2185555,0.1743164-0.4442406,0.2590179-0.677475c0.0470924-0.1296997,0.0938492-0.2596054,0.1397247-0.3939209    c0.08638-0.2529411,0.169239-0.5172043,0.2508011-0.7869606c0.0379066-0.1254616,0.0770302-0.2461891,0.1137657-0.3753014    c0.1150208-0.4043198,0.2255592-0.8223114,0.3276634-1.2640343c0.0882721-0.3819275,0.1717186-0.7851982,0.2522316-1.2011757    c0.0195389-0.1011848,0.0376549-0.2084923,0.056736-0.3116493c0.0622673-0.3355064,0.1227798-0.6782265,0.1804771-1.0327721    c0.0145531-0.0899048,0.0285149-0.1820335,0.0427742-0.2730713c0.063736-0.4046974,0.1247101-0.8197098,0.182869-1.2458344    c0.00457-0.0336723,0.0091438-0.0672607,0.0136719-0.101059c1.6763649-12.4222546,1.0581436-33.3160248,1.0274048-34.3056488    c-0.0110703-0.3609614-0.2999077-0.6514745-0.6608658-0.6648932L42.9434471,5.0005832    c-0.3522415-0.0147605-0.6685867,0.2522702-0.7085037,0.6098771c-0.1135979,1.0125194-2.4710846,22.3593769-1.0592346,34.7635193    c0.0060387,0.0535889,0.0122871,0.1065521,0.0184517,0.1597633c0.0481377,0.410778,0.1007233,0.81036,0.1575432,1.1998787    c0.0148849,0.1028214,0.0292702,0.206604,0.0447845,0.3078728c0.0533791,0.3462448,0.1114578,0.6802406,0.1723442,1.0069847    c0.0199623,0.1076431,0.0382423,0.2195625,0.0590439,0.3249397c0.081768,0.4125404,0.1685295,0.8116608,0.2635498,1.1879692    c0.1036148,0.4101906,0.2175484,0.8015938,0.3371849,1.181427c0.0395432,0.1255455,0.0823975,0.2434196,0.1234932,0.3657417    c0.0838661,0.2495842,0.169075,0.4955673,0.258812,0.7317772c0.0505714,0.1331367,0.1027336,0.2612839,0.1549835,0.3902283    c0.0868454,0.2143631,0.1751556,0.4236107,0.2660675,0.6265678c0.055603,0.1240807,0.1111641,0.2466927,0.1681099,0.3666191    c0.0948524,0.1998558,0.1913834,0.3919106,0.2893372,0.5803146c0.0546837,0.1051712,0.1084824,0.2124329,0.1639595,0.3141212    c0.1155281,0.2117233,0.2327309,0.4128761,0.3508568,0.6095848c0.0391235,0.0651627,0.0774078,0.1349831,0.1166992,0.198513    c0.1572914,0.2540703,0.3158417,0.4951897,0.4748116,0.7238922c0.0445747,0.0641556,0.0888138,0.1213951,0.1333885,0.1835403    c0.1163635,0.162323,0.2323532,0.321167,0.3480453,0.4704094c0.0603828,0.0779114,0.1196365,0.1500778,0.1795998,0.2244682    c0.1000099,0.1240387,0.1989746,0.2448044,0.2973061,0.3592834c0.0614738,0.071579,0.1217766,0.1402664,0.1824112,0.2081566    c0.096447,0.108017,0.1908798,0.2107964,0.2846413,0.3097191c0.0566521,0.0597115,0.1126747,0.1194649,0.1681099,0.1759071    c0.0998001,0.1016464,0.1959114,0.1956177,0.2912254,0.2869072c0.0438652,0.0420189,0.0886917,0.0867615,0.1315041,0.1266403    c0.1346893,0.1254616,0.2648926,0.2425003,0.3872108,0.3471642c0.0039825,0.0033951,0.0072556,0.0058708,0.0112381,0.0092659    c0.1206436,0.1029472,0.2330666,0.1942368,0.3389893,0.2775993c0.0370674,0.0291862,0.0688133,0.0527115,0.1038666,0.0795479    c0.0694008,0.0530853,0.1356964,0.1035309,0.1966248,0.1477318c0.0353928,0.0256615,0.0658379,0.0472145,0.0981674,0.0699425    c0.0253677,0.0178642,0.0553513,0.0400887,0.0787506,0.0561485l-0.4995079,33.5868301    c-0.5266838,0.3374786-1.584404,1.0761719-2.6947975,2.2026672c-1.510601,1.5344162-3.0755501,3.7411118-3.1413002,3.8343735    c-0.1469345,0.2073212-0.1670609,0.4790421-0.0526695,0.7058182c0.1143951,0.2267761,0.3448601,0.3723679,0.5988083,0.377739    L56.405014,95c0.0050316,0,0.0097275,0,0.0147591,0c0.2425423,0,0.4673042-0.1281509,0.5910912-0.3368073    c0.1264725-0.213356,0.1281471-0.4783707,0.0040283-0.6937408c-0.0533409-0.0925903-1.3250923-2.2885513-2.6485023-3.8498077    c-1.0164642-1.1989517-2.2888832-2.0631104-2.904129-2.4435349l0.5256767-33.5351639    C52.0008926,54.1323891,52.0174599,54.1202316,52.0309601,54.1111298z M51.8316956,52.5230789    c-0.0577011,0.0505295-0.1106224,0.0941811-0.163414,0.1376228c-0.0358543,0.0295219-0.0742645,0.0625229-0.1077271,0.0889397    c-0.0513687,0.0405083-0.0961952,0.0735931-0.1413574,0.1070137c-0.0278015,0.0205498-0.0592957,0.0452042-0.0845795,0.0631943    c-0.0390396,0.0277176-0.0696526,0.0478897-0.1022758,0.0696945c-0.0759811,0.0508652-0.1405182,0.0918732-0.1776695,0.113472    c-0.1499557,0.034214-0.5780067,0.1113739-1.1603775,0.0912437c-0.4827347-0.0201263-0.9325943-0.1583405-1.0802002-0.2079887    c-0.3044357-0.1903763-2.1064301-1.3936501-3.7009811-4.0934372c-0.0042801-0.0072517-0.0084305-0.0149689-0.0127068-0.0222244    c-0.1369972-0.232811-0.272274-0.4771576-0.4050751-0.7324448c-0.0220146-0.0424385-0.04319-0.0880203-0.0650787-0.1310844    c-0.1159058-0.2277374-0.2303429-0.461853-0.3411293-0.7074547c-0.0409279-0.0909119-0.0793381-0.1887856-0.1194267-0.2822113    c-0.0906982-0.2108383-0.1813164-0.4220161-0.2671127-0.6456871c-0.062355-0.1631203-0.1197624-0.3377304-0.1791801-0.5078545    c-0.0600471-0.1713371-0.12257-0.3372269-0.1791801-0.5157356c-0.1140175-0.3601646-0.2218285-0.7334557-0.3203278-1.123558    c-0.0871391-0.3451118-0.166729-0.7121506-0.2422066-1.0905151c-0.0258751-0.1297417-0.0492706-0.2663612-0.0738029-0.3998756    c-0.0469666-0.2549973-0.0922127-0.5146484-0.1344376-0.7824745c-0.0265427-0.1686974-0.0520401-0.3401184-0.0767822-0.5136795    c-0.0345917-0.2420387-0.0668831-0.4899063-0.0979958-0.7408371c-0.0245743-0.1989708-0.0498161-0.3965187-0.0722923-0.6008186    c-0.0243645-0.220108-0.0455818-0.4476776-0.0675964-0.6735306c-0.0973701-1.0053062-0.1737289-2.0614357-0.2280769-3.1631889    c-0.0026398-0.0527115-0.005661-0.1045837-0.0081749-0.1574593c-0.0204659-0.4309082-0.0381165-0.8674316-0.0527115-1.3095322    c-0.0002098-0.0065002-0.0004196-0.0130005-0.0006294-0.0195427c-0.1753235-5.3409081,0.0622292-11.4215183,0.3907776-16.6348228    l15.3215981,0.5182533c-0.0327492,5.090147-0.1764526,11.0092297-0.577713,16.2630424    c-0.0003777,0.00457-0.0007133,0.009182-0.001091,0.0137558c-0.0339661,0.4441566-0.0698166,0.8832359-0.1075592,1.3168678    c-0.0039825,0.0452042-0.0082169,0.0894852-0.0121994,0.1345634c-0.0977478,1.1082954-0.2094154,2.1734848-0.3340836,3.190197    c-0.0277176,0.2251816-0.0550156,0.4517479-0.0841179,0.6716003c-0.0271301,0.2056007-0.0557709,0.405117-0.0842018,0.6056862    c-0.0356445,0.2510948-0.0719986,0.4992561-0.1096535,0.7421341c-0.0269661,0.1741905-0.054348,0.3465347-0.0824013,0.5161972    c-0.0449524,0.2717705-0.0917473,0.5357399-0.1395531,0.7953453c-0.0244484,0.1329308-0.0482216,0.2689209-0.0733833,0.3984528    c-0.0746841,0.383812-0.1517982,0.7568092-0.2332306,1.1093826c-0.0969505,0.4192924-0.2010727,0.8180351-0.3101387,1.2003403    c-0.0364418,0.1277695-0.0763206,0.2436295-0.1139755,0.3673744c-0.0749779,0.2465248-0.1497421,0.493721-0.2289124,0.7246056    c-0.047596,0.1387596-0.0977478,0.2662354-0.1466408,0.399456c-0.0733414,0.1998558-0.1463051,0.4011765-0.2221642,0.588913    c-0.0538826,0.1333885-0.1094856,0.2571754-0.1644592,0.3846092c-0.0740128,0.1715088-0.1478577,0.3436432-0.223381,0.5045395    c-0.0578651,0.1232452-0.1165733,0.2387695-0.1751137,0.3559303c-0.0747223,0.1495361-0.1494484,0.2986069-0.2249298,0.4384956    c-0.0600891,0.1113319-0.1203461,0.2168388-0.180645,0.322216c-0.074852,0.1307907-0.1497459,0.259903-0.2245941,0.3817596    c-0.0607224,0.098793-0.1212311,0.1935234-0.1817398,0.2865715c-0.0744743,0.114563-0.1486969,0.2263145-0.2224579,0.3324051    c-0.0596695,0.0857964-0.1189613,0.169117-0.1779213,0.2495003c-0.0732574,0.0998459-0.1457596,0.1959152-0.2175903,0.2876625    c-0.0574493,0.0733833-0.1146469,0.1458855-0.1709633,0.2142792c-0.0708237,0.0859642-0.1403084,0.1671867-0.2089539,0.2455177    c-0.0542183,0.0618515-0.1085625,0.1240387-0.16119,0.1812363c-0.066925,0.07267-0.1316299,0.1398468-0.1956596,0.2052231    c-0.0498161,0.0508232-0.1002617,0.1033211-0.1481094,0.14991c-0.0626907,0.0610542-0.1219826,0.11586-0.1809006,0.1698303    C51.9182854,52.4441605,51.8730812,52.4868469,51.8316956,52.5230789z M43.5325241,6.3974628l14.2482338,0.5387578    c0.0374489,1.4909358,0.1207695,5.4389901,0.1072235,10.3458481l-15.2384033-0.5153179    C42.983532,11.8448811,43.3769493,7.8849597,43.5325241,6.3974628z M53.3183937,91.0079575    c0.6870346,0.8104858,1.3774223,1.8343277,1.8588142,2.5911407l-11.7812195-0.2542877    c0.5850525-0.7635193,1.4183502-1.7987671,2.215416-2.6079102c1.3955383-1.4163361,2.7212982-2.1731491,2.7343826-2.1805267    c0.2126846-0.1200943,0.346199-0.3441849,0.3498878-0.5884094l0.4979172-33.4738159    c0.1990547,0.035183,0.4162712,0.063488,0.6436729,0.0728378c0.0956078,0.0040245,0.1875267,0.0060387,0.2764244,0.0060387    c0.1802711,0,0.3436852-0.0081329,0.4934273-0.0198326l-0.5249596,33.5006561    c-0.0040283,0.2549515,0.1338501,0.4917908,0.3579407,0.6138992    C50.456871,88.6764679,52.1170921,89.5916214,53.3183937,91.0079575z"></path><path d="M52.1690903,42.2319107c0-0.6306763-0.5172882-1.1439362-1.1533318-1.1439362    c-0.6353722,0-1.1523247,0.5132599-1.1523247,1.1439362c0,0.6300049,0.5169525,1.1425972,1.1523247,1.1425972    C51.6518021,43.3745079,52.1690903,42.8619156,52.1690903,42.2319107z M51.0157585,42.4620399    c-0.1217766,0-0.2207375-0.1033211-0.2207375-0.2301292c0-0.1274757,0.0989609-0.231472,0.2207375-0.231472    c0.1221085,0,0.2217407,0.1039963,0.2217407,0.231472C51.2374992,42.3587189,51.137867,42.4620399,51.0157585,42.4620399z"></path><path d="M49.0606613,44.5345497c-0.6353722,0-1.1523247,0.5125923-1.1523247,1.1425934    c0,0.6300049,0.5169525,1.1425972,1.1523247,1.1425972c0.6360435,0,1.1533318-0.5125923,1.1533318-1.1425972    C50.2139931,45.047142,49.6967049,44.5345497,49.0606613,44.5345497z M49.0606613,45.9086151    c-0.1217728,0-0.2207336-0.1039925-0.2207336-0.231472c0-0.1274757,0.0989609-0.2314682,0.2207336-0.2314682    c0.1221123,0,0.2217445,0.1039925,0.2217445,0.2314682C49.2824059,45.8046227,49.1827736,45.9086151,49.0606613,45.9086151z"></path><path d="M49.6416893,35.8171349c0.6360435,0,1.1533318-0.5125885,1.1533318-1.1425934    c0-0.6306763-0.5172882-1.14394-1.1533318-1.14394c-0.6353722,0-1.1523247,0.5132637-1.1523247,1.14394    C48.4893646,35.3045464,49.0063171,35.8171349,49.6416893,35.8171349z M49.6416893,34.4430695    c0.1221085,0,0.2217445,0.1039925,0.2217445,0.231472c0,0.1268044-0.0996361,0.2301292-0.2217445,0.2301292    c-0.1217728,0-0.2207375-0.1033249-0.2207375-0.2301292C49.4209518,34.5470619,49.5199165,34.4430695,49.6416893,34.4430695z"></path><path d="M53.7638931,32.3819656c0.6360435,0,1.1533318-0.5125904,1.1533318-1.1425953    c0-0.6306744-0.5172882-1.1439381-1.1533318-1.1439381c-0.6353722,0-1.1523247,0.5132637-1.1523247,1.1439381    C52.6115685,31.8693752,53.128521,32.3819656,53.7638931,32.3819656z M53.7638931,31.0079002    c0.1221085,0,0.2217407,0.1039944,0.2217407,0.2314701c0,0.1268063-0.0996323,0.2301292-0.2217407,0.2301292    c-0.1217728,0-0.2207375-0.103323-0.2207375-0.2301292C53.5431557,31.1118946,53.6421204,31.0079002,53.7638931,31.0079002z"></path><path d="M48.7339211,26.4301338c0-0.6306744-0.5172882-1.1439381-1.1533318-1.1439381    c-0.6353722,0-1.1523247,0.5132637-1.1523247,1.1439381c0,0.6300049,0.5169525,1.1425972,1.1523247,1.1425972    C48.2166328,27.572731,48.7339211,27.0601387,48.7339211,26.4301338z M47.5805893,26.6602631    c-0.1217766,0-0.2207375-0.103323-0.2207375-0.2301292c0-0.1274757,0.0989609-0.2314701,0.2207375-0.2314701    c0.1221085,0,0.2217407,0.1039944,0.2217407,0.2314701C47.80233,26.5569401,47.7026978,26.6602631,47.5805893,26.6602631z"></path></g></g></svg>