<svg xmlns="http://www.w3.org/2000/svg" xmlns:xlink="http://www.w3.org/1999/xlink" version="1.1" x="0px" y="0px" viewBox="0 0 100 100" style="enable-background:new 0 0 100 100;" xml:space="preserve"><path d="M50.6635742,30.3291016c-0.3862305-0.3427734-0.9697266-0.3359375-1.3461914,0.0175781  c-0.3789062,0.3535156-9.2807617,8.7509766-9.2807617,15.8310547c0,5.1556396,3.937561,9.4088745,8.9633789,9.9122314v4.0125732  c0,0.5527344,0.4477539,1,1,1s1-0.4472656,1-1v-4.0125732c5.0258179-0.5033569,8.9633789-4.7565918,8.9633789-9.9122314  C59.9633789,38.6679688,51.043457,30.6660156,50.6635742,30.3291016z M42.0366211,46.1777344  c0-4.4802856,4.4486084-9.9252319,6.9633789-12.645813v20.5388794  C45.0803223,53.576416,42.0366211,50.2290039,42.0366211,46.1777344z M51,54.0708008V33.4591064  c2.506958,2.614502,6.9633789,7.9346924,6.9633789,12.7186279C57.9633789,50.2290039,54.9196777,53.576416,51,54.0708008z"></path><path d="M68.6401367,13.1269531c0,0,0,0,0-0.0009766l0.2773438-1.9882812  c0.0400391-0.2861328-0.0458984-0.5761719-0.2358398-0.7939453C68.4916992,10.125,68.2167969,10,67.9272461,10H32.0727539  c-0.2895508,0-0.5644531,0.125-0.7543945,0.34375c-0.1899414,0.2177734-0.2758789,0.5078125-0.2358398,0.7949219  l0.1225586,0.8769531c1.3916016,9.9716797,0.6347656,19.3496094-2.2504883,27.8720703  c-1.027832,3.0341797-1.3803711,6.2177734-1.0483398,9.4619141c1.0527344,10.3017578,9.2827148,18.6025391,19.5688477,19.7382812  C47.9854736,69.144165,48.4934692,69.1782227,49,69.2009277V88H38.2729492c-0.5522461,0-1,0.4472656-1,1s0.4477539,1,1,1h23.4541016  c0.5522461,0,1-0.4472656,1-1s-0.4477539-1-1-1H51V69.1861572c5.1179199-0.2178345,9.9303589-2.1409302,13.8144531-5.619751  c4.7026367-4.2109375,7.3994141-10.2441406,7.3994141-16.5527344c0-2.2519531-0.3364258-4.4755859-1-6.6074219  C68.2910156,31.0117188,67.4248047,21.8339844,68.6401367,13.1269531z M66.777832,12l-0.1181641,0.8496094  c-0.5368042,3.8449097-0.6575928,7.7794189-0.4130859,11.7749634c-7.776123-0.0646973-11.7263184-0.9264526-15.8862305-1.8384399  c-4.1137695-0.9021606-8.3757324-1.8319702-16.505249-1.8863525C33.8279419,17.9872437,33.6329346,15.0232544,33.2216797,12  H66.777832z M63.4804688,62.0771484c-4.3374023,3.8837891-9.9443359,5.6708984-15.7856445,5.0224609  c-9.355957-1.0332031-16.8413086-8.5830078-17.7993164-17.953125c-0.3022461-2.9570312,0.0185547-5.8564453,0.9536133-8.6181641  c1.880249-5.5543213,2.8804932-11.4544678,3.0106812-17.6287231c7.8986206,0.0523682,11.8789673,0.9204102,16.0718384,1.8396606  c4.1038208,0.8999634,8.3551025,1.8273926,16.4467163,1.8859253C66.8181152,31.3427124,67.7936401,36.1452026,69.3041992,41  c0.6035156,1.9394531,0.909668,3.9628906,0.909668,6.0136719C70.2138672,52.7539062,67.7597656,58.2441406,63.4804688,62.0771484z"></path></svg>